%TF.GenerationSoftware,KiCad,Pcbnew,10.0.1*%
%TF.CreationDate,2026-07-27T10:26:09-04:00*%
%TF.ProjectId,RosetteController,526f7365-7474-4654-936f-6e74726f6c6c,A*%
%TF.SameCoordinates,Original*%
%TF.FileFunction,Paste,Top*%
%TF.FilePolarity,Positive*%
%FSLAX46Y46*%
G04 Gerber Fmt 4.6, Leading zero omitted, Abs format (unit mm)*
G04 Created by KiCad (PCBNEW 10.0.1) date 2026-07-27 10:26:09*
%MOMM*%
%LPD*%
G01*
G04 APERTURE LIST*
G04 Aperture macros list*
%AMRoundRect*
0 Rectangle with rounded corners*
0 $1 Rounding radius*
0 $2 $3 $4 $5 $6 $7 $8 $9 X,Y pos of 4 corners*
0 Add a 4 corners polygon primitive as box body*
4,1,4,$2,$3,$4,$5,$6,$7,$8,$9,$2,$3,0*
0 Add four circle primitives for the rounded corners*
1,1,$1+$1,$2,$3*
1,1,$1+$1,$4,$5*
1,1,$1+$1,$6,$7*
1,1,$1+$1,$8,$9*
0 Add four rect primitives between the rounded corners*
20,1,$1+$1,$2,$3,$4,$5,0*
20,1,$1+$1,$4,$5,$6,$7,0*
20,1,$1+$1,$6,$7,$8,$9,0*
20,1,$1+$1,$8,$9,$2,$3,0*%
G04 Aperture macros list end*
%ADD10C,0.010000*%
%ADD11RoundRect,0.150000X0.512500X0.150000X-0.512500X0.150000X-0.512500X-0.150000X0.512500X-0.150000X0*%
%ADD12RoundRect,0.135000X-0.135000X-0.185000X0.135000X-0.185000X0.135000X0.185000X-0.135000X0.185000X0*%
%ADD13RoundRect,0.230000X0.375000X-0.230000X0.375000X0.230000X-0.375000X0.230000X-0.375000X-0.230000X0*%
%ADD14RoundRect,0.150000X0.150000X-0.825000X0.150000X0.825000X-0.150000X0.825000X-0.150000X-0.825000X0*%
%ADD15RoundRect,0.225000X-0.250000X0.225000X-0.250000X-0.225000X0.250000X-0.225000X0.250000X0.225000X0*%
%ADD16RoundRect,0.140000X0.170000X-0.140000X0.170000X0.140000X-0.170000X0.140000X-0.170000X-0.140000X0*%
%ADD17RoundRect,0.135000X0.185000X-0.135000X0.185000X0.135000X-0.185000X0.135000X-0.185000X-0.135000X0*%
%ADD18RoundRect,0.157500X-0.222500X0.157500X-0.222500X-0.157500X0.222500X-0.157500X0.222500X0.157500X0*%
%ADD19RoundRect,0.125000X-0.125000X0.600000X-0.125000X-0.600000X0.125000X-0.600000X0.125000X0.600000X0*%
%ADD20RoundRect,0.140000X0.140000X0.170000X-0.140000X0.170000X-0.140000X-0.170000X0.140000X-0.170000X0*%
%ADD21RoundRect,0.135000X0.135000X0.185000X-0.135000X0.185000X-0.135000X-0.185000X0.135000X-0.185000X0*%
%ADD22RoundRect,0.167500X0.167500X0.312500X-0.167500X0.312500X-0.167500X-0.312500X0.167500X-0.312500X0*%
%ADD23RoundRect,0.062500X0.362500X0.062500X-0.362500X0.062500X-0.362500X-0.062500X0.362500X-0.062500X0*%
%ADD24RoundRect,0.140000X-0.140000X-0.170000X0.140000X-0.170000X0.140000X0.170000X-0.140000X0.170000X0*%
%ADD25RoundRect,0.250000X0.450000X-0.262500X0.450000X0.262500X-0.450000X0.262500X-0.450000X-0.262500X0*%
%ADD26RoundRect,0.135000X-0.185000X0.135000X-0.185000X-0.135000X0.185000X-0.135000X0.185000X0.135000X0*%
%ADD27RoundRect,0.225000X0.225000X0.250000X-0.225000X0.250000X-0.225000X-0.250000X0.225000X-0.250000X0*%
%ADD28RoundRect,0.218750X0.218750X0.256250X-0.218750X0.256250X-0.218750X-0.256250X0.218750X-0.256250X0*%
%ADD29RoundRect,0.140000X-0.170000X0.140000X-0.170000X-0.140000X0.170000X-0.140000X0.170000X0.140000X0*%
%ADD30RoundRect,0.250000X-0.375000X-0.625000X0.375000X-0.625000X0.375000X0.625000X-0.375000X0.625000X0*%
%ADD31R,0.381000X1.117600*%
%ADD32R,0.254000X1.117600*%
%ADD33R,0.812800X0.304800*%
%ADD34R,0.457200X1.193800*%
%ADD35RoundRect,0.250000X-0.650000X-2.450000X0.650000X-2.450000X0.650000X2.450000X-0.650000X2.450000X0*%
%ADD36RoundRect,0.250000X0.362500X1.075000X-0.362500X1.075000X-0.362500X-1.075000X0.362500X-1.075000X0*%
%ADD37RoundRect,0.250000X0.250000X0.475000X-0.250000X0.475000X-0.250000X-0.475000X0.250000X-0.475000X0*%
%ADD38RoundRect,0.087500X-0.662500X-0.087500X0.662500X-0.087500X0.662500X0.087500X-0.662500X0.087500X0*%
%ADD39RoundRect,0.250000X-0.800000X0.450000X-0.800000X-0.450000X0.800000X-0.450000X0.800000X0.450000X0*%
%ADD40RoundRect,0.162500X-0.162500X0.650000X-0.162500X-0.650000X0.162500X-0.650000X0.162500X0.650000X0*%
%ADD41RoundRect,0.157500X0.157500X0.222500X-0.157500X0.222500X-0.157500X-0.222500X0.157500X-0.222500X0*%
%ADD42RoundRect,0.125000X0.600000X0.125000X-0.600000X0.125000X-0.600000X-0.125000X0.600000X-0.125000X0*%
%ADD43RoundRect,0.150000X-0.150000X0.512500X-0.150000X-0.512500X0.150000X-0.512500X0.150000X0.512500X0*%
%ADD44RoundRect,0.137500X0.600000X0.137500X-0.600000X0.137500X-0.600000X-0.137500X0.600000X-0.137500X0*%
%ADD45RoundRect,0.137500X0.137500X0.600000X-0.137500X0.600000X-0.137500X-0.600000X0.137500X-0.600000X0*%
%ADD46RoundRect,0.150000X0.150000X-0.512500X0.150000X0.512500X-0.150000X0.512500X-0.150000X-0.512500X0*%
%ADD47RoundRect,0.112500X0.112500X-0.637500X0.112500X0.637500X-0.112500X0.637500X-0.112500X-0.637500X0*%
G04 APERTURE END LIST*
%TO.C,U4*%
D10*
X177150000Y-140840000D02*
X177350000Y-140840000D01*
X177350000Y-141140000D01*
X177150000Y-141140000D01*
X177150000Y-140840000D01*
G36*
X177150000Y-140840000D02*
G01*
X177350000Y-140840000D01*
X177350000Y-141140000D01*
X177150000Y-141140000D01*
X177150000Y-140840000D01*
G37*
X177150000Y-144290000D02*
X177350000Y-144290000D01*
X177350000Y-144590000D01*
X177150000Y-144590000D01*
X177150000Y-144290000D01*
G36*
X177150000Y-144290000D02*
G01*
X177350000Y-144290000D01*
X177350000Y-144590000D01*
X177150000Y-144590000D01*
X177150000Y-144290000D01*
G37*
X177095000Y-143200000D02*
X177605000Y-143200000D01*
X177605000Y-144130000D01*
X177095000Y-144130000D01*
X177095000Y-143200000D01*
G36*
X177095000Y-143200000D02*
G01*
X177605000Y-143200000D01*
X177605000Y-144130000D01*
X177095000Y-144130000D01*
X177095000Y-143200000D01*
G37*
X177095121Y-141300000D02*
X177605121Y-141300000D01*
X177605121Y-142230000D01*
X177095121Y-142230000D01*
X177095121Y-141300000D01*
G36*
X177095121Y-141300000D02*
G01*
X177605121Y-141300000D01*
X177605121Y-142230000D01*
X177095121Y-142230000D01*
X177095121Y-141300000D01*
G37*
X177650000Y-140840000D02*
X177850000Y-140840000D01*
X177850000Y-141140000D01*
X177650000Y-141140000D01*
X177650000Y-140840000D01*
G36*
X177650000Y-140840000D02*
G01*
X177850000Y-140840000D01*
X177850000Y-141140000D01*
X177650000Y-141140000D01*
X177650000Y-140840000D01*
G37*
X177650000Y-144290000D02*
X177850000Y-144290000D01*
X177850000Y-144590000D01*
X177650000Y-144590000D01*
X177650000Y-144290000D01*
G36*
X177650000Y-144290000D02*
G01*
X177850000Y-144290000D01*
X177850000Y-144590000D01*
X177650000Y-144590000D01*
X177650000Y-144290000D01*
G37*
X177795000Y-141300000D02*
X178305000Y-141300000D01*
X178305000Y-142230000D01*
X177795000Y-142230000D01*
X177795000Y-141300000D01*
G36*
X177795000Y-141300000D02*
G01*
X178305000Y-141300000D01*
X178305000Y-142230000D01*
X177795000Y-142230000D01*
X177795000Y-141300000D01*
G37*
X177795000Y-143200000D02*
X178305000Y-143200000D01*
X178305000Y-144130000D01*
X177795000Y-144130000D01*
X177795000Y-143200000D01*
G36*
X177795000Y-143200000D02*
G01*
X178305000Y-143200000D01*
X178305000Y-144130000D01*
X177795000Y-144130000D01*
X177795000Y-143200000D01*
G37*
X178150000Y-140840000D02*
X178350000Y-140840000D01*
X178350000Y-141140000D01*
X178150000Y-141140000D01*
X178150000Y-140840000D01*
G36*
X178150000Y-140840000D02*
G01*
X178350000Y-140840000D01*
X178350000Y-141140000D01*
X178150000Y-141140000D01*
X178150000Y-140840000D01*
G37*
X178150000Y-144290000D02*
X178350000Y-144290000D01*
X178350000Y-144590000D01*
X178150000Y-144590000D01*
X178150000Y-144290000D01*
G36*
X178150000Y-144290000D02*
G01*
X178350000Y-144290000D01*
X178350000Y-144590000D01*
X178150000Y-144590000D01*
X178150000Y-144290000D01*
G37*
X178650000Y-140840000D02*
X178850000Y-140840000D01*
X178850000Y-141140000D01*
X178650000Y-141140000D01*
X178650000Y-140840000D01*
G36*
X178650000Y-140840000D02*
G01*
X178850000Y-140840000D01*
X178850000Y-141140000D01*
X178650000Y-141140000D01*
X178650000Y-140840000D01*
G37*
X178650000Y-144290000D02*
X178850000Y-144290000D01*
X178850000Y-144590000D01*
X178650000Y-144590000D01*
X178650000Y-144290000D01*
G36*
X178650000Y-144290000D02*
G01*
X178850000Y-144290000D01*
X178850000Y-144590000D01*
X178650000Y-144590000D01*
X178650000Y-144290000D01*
G37*
X178495000Y-141300000D02*
X179005000Y-141300000D01*
X179005000Y-142230000D01*
X178495000Y-142230000D01*
X178495000Y-141300000D01*
G36*
X178495000Y-141300000D02*
G01*
X179005000Y-141300000D01*
X179005000Y-142230000D01*
X178495000Y-142230000D01*
X178495000Y-141300000D01*
G37*
X178495000Y-143200000D02*
X179005000Y-143200000D01*
X179005000Y-144130000D01*
X178495000Y-144130000D01*
X178495000Y-143200000D01*
G36*
X178495000Y-143200000D02*
G01*
X179005000Y-143200000D01*
X179005000Y-144130000D01*
X178495000Y-144130000D01*
X178495000Y-143200000D01*
G37*
X181500000Y-142865000D02*
X179980000Y-142865000D01*
X179980000Y-142565000D01*
X181500000Y-142565000D01*
X181500000Y-142865000D01*
G36*
X181500000Y-142865000D02*
G01*
X179980000Y-142865000D01*
X179980000Y-142565000D01*
X181500000Y-142565000D01*
X181500000Y-142865000D01*
G37*
%TD*%
D11*
%TO.C,U5*%
X196977500Y-141487500D03*
X196977500Y-140537500D03*
X196977500Y-139587500D03*
X194702500Y-139587500D03*
X194702500Y-141487500D03*
%TD*%
D12*
%TO.C,R20*%
X214552500Y-136347500D03*
X215572500Y-136347500D03*
%TD*%
D13*
%TO.C,U10*%
X211922500Y-130147500D03*
X213422500Y-130147500D03*
X211922500Y-129007500D03*
X213422500Y-129007500D03*
D14*
X210767500Y-132052500D03*
X212037500Y-132052500D03*
X213307500Y-132052500D03*
X214577500Y-132052500D03*
X214577500Y-127102500D03*
X213307500Y-127102500D03*
X212037500Y-127102500D03*
X210767500Y-127102500D03*
%TD*%
D15*
%TO.C,C9*%
X175915000Y-141210000D03*
X175915000Y-142760000D03*
%TD*%
D16*
%TO.C,C27*%
X204382500Y-124037500D03*
X204382500Y-123077500D03*
%TD*%
D17*
%TO.C,R25*%
X209472500Y-129587500D03*
X209472500Y-128567500D03*
%TD*%
D18*
%TO.C,U2*%
X188557500Y-143260000D03*
X187617500Y-143260000D03*
X188557500Y-144040000D03*
X187617500Y-144040000D03*
D19*
X189062500Y-141500000D03*
X188412500Y-141500000D03*
X187762500Y-141500000D03*
X187112500Y-141500000D03*
X187112500Y-145800000D03*
X187762500Y-145800000D03*
X188412500Y-145800000D03*
X189062500Y-145800000D03*
%TD*%
D20*
%TO.C,C4*%
X181032197Y-145391020D03*
X180072197Y-145391020D03*
%TD*%
D21*
%TO.C,R26*%
X190625000Y-128820000D03*
X189605000Y-128820000D03*
%TD*%
D22*
%TO.C,U9*%
X182720000Y-133325000D03*
X182720000Y-132135000D03*
X181900000Y-133325000D03*
X181900000Y-132135000D03*
D23*
X183760000Y-133730000D03*
X183760000Y-133230000D03*
X183760000Y-132730000D03*
X183760000Y-132230000D03*
X183760000Y-131730000D03*
X180860000Y-131730000D03*
X180860000Y-132230000D03*
X180860000Y-132730000D03*
X180860000Y-133230000D03*
X180860000Y-133730000D03*
%TD*%
D17*
%TO.C,R2*%
X215652500Y-146740000D03*
X215652500Y-145720000D03*
%TD*%
D20*
%TO.C,C10*%
X193345000Y-141700000D03*
X192385000Y-141700000D03*
%TD*%
D24*
%TO.C,C20*%
X206860000Y-134080000D03*
X207820000Y-134080000D03*
%TD*%
D25*
%TO.C,R15*%
X181755000Y-139737500D03*
X181755000Y-137912500D03*
%TD*%
D26*
%TO.C,R21*%
X203340000Y-131645000D03*
X203340000Y-132665000D03*
%TD*%
D17*
%TO.C,R10*%
X206440000Y-145060000D03*
X206440000Y-144040000D03*
%TD*%
D24*
%TO.C,C3*%
X197620000Y-146220000D03*
X198580000Y-146220000D03*
%TD*%
D17*
%TO.C,R28*%
X196750000Y-127180000D03*
X196750000Y-126160000D03*
%TD*%
D25*
%TO.C,R29*%
X189075000Y-125987500D03*
X189075000Y-124162500D03*
%TD*%
D27*
%TO.C,C11*%
X193090000Y-140450000D03*
X191540000Y-140450000D03*
%TD*%
D17*
%TO.C,R6*%
X199920000Y-145060000D03*
X199920000Y-144040000D03*
%TD*%
D28*
%TO.C,D2*%
X222287500Y-138750000D03*
X220712500Y-138750000D03*
%TD*%
D17*
%TO.C,R33*%
X203382500Y-124067500D03*
X203382500Y-123047500D03*
%TD*%
D29*
%TO.C,C22*%
X187715000Y-131620000D03*
X187715000Y-132580000D03*
%TD*%
%TO.C,C8*%
X204570000Y-144090000D03*
X204570000Y-145050000D03*
%TD*%
D26*
%TO.C,R34*%
X205382500Y-123047500D03*
X205382500Y-124067500D03*
%TD*%
D30*
%TO.C,F1*%
X182355000Y-146047500D03*
X185155000Y-146047500D03*
%TD*%
D31*
%TO.C,U4*%
X181010000Y-141314114D03*
D32*
X180200000Y-141314114D03*
X179700000Y-141314114D03*
X179700000Y-144115886D03*
X180200000Y-144115886D03*
D31*
X181010000Y-144115886D03*
D33*
X181095589Y-143215000D03*
X181095589Y-142215000D03*
%TD*%
D17*
%TO.C,R9*%
X205500000Y-145060000D03*
X205500000Y-144040000D03*
%TD*%
D29*
%TO.C,C18*%
X187715000Y-135020000D03*
X187715000Y-135980000D03*
%TD*%
D34*
%TO.C,U11*%
X179925000Y-127932300D03*
X181175000Y-127932300D03*
X182425000Y-127932300D03*
X183675000Y-127932300D03*
X183675000Y-125519300D03*
X182425000Y-125519300D03*
X181175000Y-125519300D03*
X179925000Y-125519300D03*
%TD*%
D35*
%TO.C,C23*%
X216572500Y-131477500D03*
X221672500Y-131477500D03*
%TD*%
D26*
%TO.C,R12*%
X182225000Y-141625000D03*
X182225000Y-142645000D03*
%TD*%
%TO.C,R18*%
X194315000Y-137585000D03*
X194315000Y-138605000D03*
%TD*%
D29*
%TO.C,C7*%
X203650000Y-144090000D03*
X203650000Y-145050000D03*
%TD*%
D36*
%TO.C,R31*%
X212085000Y-124277500D03*
X207460000Y-124277500D03*
%TD*%
D26*
%TO.C,R32*%
X202382500Y-123047500D03*
X202382500Y-124067500D03*
%TD*%
%TO.C,R8*%
X201800000Y-144040000D03*
X201800000Y-145060000D03*
%TD*%
D17*
%TO.C,R1*%
X214652500Y-146740000D03*
X214652500Y-145720000D03*
%TD*%
D20*
%TO.C,C13*%
X179468100Y-139990000D03*
X178508100Y-139990000D03*
%TD*%
D26*
%TO.C,R11*%
X182225000Y-143485000D03*
X182225000Y-144505000D03*
%TD*%
D16*
%TO.C,C25*%
X178500000Y-127905800D03*
X178500000Y-126945800D03*
%TD*%
D37*
%TO.C,C14*%
X179155000Y-138545000D03*
X177255000Y-138545000D03*
%TD*%
D26*
%TO.C,R30*%
X196750000Y-124160000D03*
X196750000Y-125180000D03*
%TD*%
D38*
%TO.C,U1*%
X192740000Y-143000000D03*
X192740000Y-143500000D03*
X192740000Y-144000000D03*
X192740000Y-144500000D03*
X192740000Y-145000000D03*
X196940000Y-145000000D03*
X196940000Y-144500000D03*
X196940000Y-144000000D03*
X196940000Y-143500000D03*
X196940000Y-143000000D03*
%TD*%
D21*
%TO.C,R14*%
X190125000Y-140050000D03*
X189105000Y-140050000D03*
%TD*%
D12*
%TO.C,R13*%
X187230000Y-140050000D03*
X188250000Y-140050000D03*
%TD*%
D39*
%TO.C,D1*%
X184205000Y-138097500D03*
X184205000Y-142497500D03*
%TD*%
D40*
%TO.C,U7*%
X213012500Y-134362500D03*
X211742500Y-134362500D03*
X210472500Y-134362500D03*
X209202500Y-134362500D03*
X209202500Y-141537500D03*
X210472500Y-141537500D03*
X211742500Y-141537500D03*
X213012500Y-141537500D03*
%TD*%
D24*
%TO.C,C2*%
X195800000Y-146225000D03*
X196760000Y-146225000D03*
%TD*%
D29*
%TO.C,C1*%
X216652500Y-145750000D03*
X216652500Y-146710000D03*
%TD*%
D41*
%TO.C,U13*%
X193540000Y-126140000D03*
X193540000Y-125200000D03*
X192760000Y-126140000D03*
X192760000Y-125200000D03*
D42*
X195300000Y-126645000D03*
X195300000Y-125995000D03*
X195300000Y-125345000D03*
X195300000Y-124695000D03*
X191000000Y-124695000D03*
X191000000Y-125345000D03*
X191000000Y-125995000D03*
X191000000Y-126645000D03*
%TD*%
D29*
%TO.C,C6*%
X202730000Y-144090000D03*
X202730000Y-145050000D03*
%TD*%
D43*
%TO.C,U12*%
X205332500Y-125420000D03*
X204382500Y-125420000D03*
X203432500Y-125420000D03*
X203432500Y-127695000D03*
X204382500Y-127695000D03*
X205332500Y-127695000D03*
%TD*%
D21*
%TO.C,R19*%
X215572500Y-137297500D03*
X214552500Y-137297500D03*
%TD*%
D17*
%TO.C,R7*%
X200860000Y-145060000D03*
X200860000Y-144040000D03*
%TD*%
D29*
%TO.C,C5*%
X198400000Y-144370000D03*
X198400000Y-145330000D03*
%TD*%
%TO.C,C19*%
X179710000Y-133850000D03*
X179710000Y-134810000D03*
%TD*%
D16*
%TO.C,C12*%
X214470000Y-140735000D03*
X214470000Y-139775000D03*
%TD*%
D44*
%TO.C,U6*%
X207202500Y-141180000D03*
X207202500Y-140380000D03*
X207202500Y-139580000D03*
X207202500Y-138780000D03*
X207202500Y-137980000D03*
X207202500Y-137180000D03*
X207202500Y-136380000D03*
X207202500Y-135580000D03*
D45*
X205840000Y-134217500D03*
X205040000Y-134217500D03*
X204240000Y-134217500D03*
X203440000Y-134217500D03*
X202640000Y-134217500D03*
X201840000Y-134217500D03*
X201040000Y-134217500D03*
X200240000Y-134217500D03*
D44*
X198877500Y-135580000D03*
X198877500Y-136380000D03*
X198877500Y-137180000D03*
X198877500Y-137980000D03*
X198877500Y-138780000D03*
X198877500Y-139580000D03*
X198877500Y-140380000D03*
X198877500Y-141180000D03*
D45*
X200240000Y-142542500D03*
X201040000Y-142542500D03*
X201840000Y-142542500D03*
X202640000Y-142542500D03*
X203440000Y-142542500D03*
X204240000Y-142542500D03*
X205040000Y-142542500D03*
X205840000Y-142542500D03*
%TD*%
D29*
%TO.C,C17*%
X192315000Y-137590000D03*
X192315000Y-138550000D03*
%TD*%
D16*
%TO.C,C15*%
X190150000Y-138550000D03*
X190150000Y-137590000D03*
%TD*%
D46*
%TO.C,U3*%
X214702500Y-144367500D03*
X215652500Y-144367500D03*
X216602500Y-144367500D03*
X216602500Y-142092500D03*
X215652500Y-142092500D03*
X214702500Y-142092500D03*
%TD*%
D29*
%TO.C,C16*%
X191200000Y-137590000D03*
X191200000Y-138550000D03*
%TD*%
D25*
%TO.C,R5*%
X190790000Y-145662500D03*
X190790000Y-143837500D03*
%TD*%
D21*
%TO.C,R4*%
X194940000Y-146225000D03*
X193920000Y-146225000D03*
%TD*%
D26*
%TO.C,R24*%
X187715000Y-129690000D03*
X187715000Y-130710000D03*
%TD*%
%TO.C,R23*%
X179710000Y-131020000D03*
X179710000Y-132040000D03*
%TD*%
%TO.C,R22*%
X204340000Y-131645000D03*
X204340000Y-132665000D03*
%TD*%
%TO.C,R3*%
X217652500Y-145720000D03*
X217652500Y-146740000D03*
%TD*%
D24*
%TO.C,C21*%
X206860000Y-133080000D03*
X207820000Y-133080000D03*
%TD*%
D35*
%TO.C,C26*%
X216572500Y-125577500D03*
X221672500Y-125577500D03*
%TD*%
D12*
%TO.C,R16*%
X218565000Y-138761900D03*
X219585000Y-138761900D03*
%TD*%
D29*
%TO.C,C24*%
X209472500Y-130497500D03*
X209472500Y-131457500D03*
%TD*%
D26*
%TO.C,R17*%
X193315000Y-137585000D03*
X193315000Y-138605000D03*
%TD*%
D47*
%TO.C,U8*%
X188790000Y-136112500D03*
X189440000Y-136112500D03*
X190090000Y-136112500D03*
X190740000Y-136112500D03*
X191390000Y-136112500D03*
X192040000Y-136112500D03*
X192690000Y-136112500D03*
X193340000Y-136112500D03*
X193990000Y-136112500D03*
X194640000Y-136112500D03*
X194640000Y-130312500D03*
X193990000Y-130312500D03*
X193340000Y-130312500D03*
X192690000Y-130312500D03*
X192040000Y-130312500D03*
X191390000Y-130312500D03*
X190740000Y-130312500D03*
X190090000Y-130312500D03*
X189440000Y-130312500D03*
X188790000Y-130312500D03*
%TD*%
D12*
%TO.C,R27*%
X191480000Y-128820000D03*
X192500000Y-128820000D03*
%TD*%
M02*
