%TF.GenerationSoftware,KiCad,Pcbnew,10.0.1*%
%TF.CreationDate,2026-07-25T22:17:56-04:00*%
%TF.ProjectId,RosetteController,526f7365-7474-4654-936f-6e74726f6c6c,A*%
%TF.SameCoordinates,Original*%
%TF.FileFunction,Copper,L4,Bot*%
%TF.FilePolarity,Positive*%
%FSLAX46Y46*%
G04 Gerber Fmt 4.6, Leading zero omitted, Abs format (unit mm)*
G04 Created by KiCad (PCBNEW 10.0.1) date 2026-07-25 22:17:56*
%MOMM*%
%LPD*%
G01*
G04 APERTURE LIST*
G04 Aperture macros list*
%AMRoundRect*
0 Rectangle with rounded corners*
0 $1 Rounding radius*
0 $2 $3 $4 $5 $6 $7 $8 $9 X,Y pos of 4 corners*
0 Add a 4 corners polygon primitive as box body*
4,1,4,$2,$3,$4,$5,$6,$7,$8,$9,$2,$3,0*
0 Add four circle primitives for the rounded corners*
1,1,$1+$1,$2,$3*
1,1,$1+$1,$4,$5*
1,1,$1+$1,$6,$7*
1,1,$1+$1,$8,$9*
0 Add four rect primitives between the rounded corners*
20,1,$1+$1,$2,$3,$4,$5,0*
20,1,$1+$1,$4,$5,$6,$7,0*
20,1,$1+$1,$6,$7,$8,$9,0*
20,1,$1+$1,$8,$9,$2,$3,0*%
G04 Aperture macros list end*
%TA.AperFunction,HeatsinkPad*%
%ADD10C,0.500000*%
%TD*%
%TA.AperFunction,HeatsinkPad*%
%ADD11R,1.650000X2.380000*%
%TD*%
%TA.AperFunction,ComponentPad*%
%ADD12C,0.528000*%
%TD*%
%TA.AperFunction,ComponentPad*%
%ADD13RoundRect,0.250000X0.650000X1.550000X-0.650000X1.550000X-0.650000X-1.550000X0.650000X-1.550000X0*%
%TD*%
%TA.AperFunction,ComponentPad*%
%ADD14O,1.800000X3.600000*%
%TD*%
%TA.AperFunction,HeatsinkPad*%
%ADD15C,0.600000*%
%TD*%
%TA.AperFunction,HeatsinkPad*%
%ADD16R,1.890000X1.570000*%
%TD*%
%TA.AperFunction,ComponentPad*%
%ADD17RoundRect,0.250000X-0.650000X-1.550000X0.650000X-1.550000X0.650000X1.550000X-0.650000X1.550000X0*%
%TD*%
%TA.AperFunction,HeatsinkPad*%
%ADD18R,1.570000X1.890000*%
%TD*%
%TA.AperFunction,ViaPad*%
%ADD19C,0.609600*%
%TD*%
%TA.AperFunction,Conductor*%
%ADD20C,0.508000*%
%TD*%
%TA.AperFunction,Conductor*%
%ADD21C,1.016000*%
%TD*%
%TA.AperFunction,Conductor*%
%ADD22C,0.304800*%
%TD*%
%TA.AperFunction,Conductor*%
%ADD23C,0.254000*%
%TD*%
G04 APERTURE END LIST*
D10*
%TO.P,U10,11,EP_11*%
%TO.N,GND*%
X182885000Y-133670000D03*
X182885000Y-132730000D03*
X182885000Y-131790000D03*
D11*
X182310000Y-132730000D03*
D10*
X181735000Y-133670000D03*
X181735000Y-132730000D03*
X181735000Y-131790000D03*
%TD*%
D12*
%TO.P,U3,10,GND_10*%
%TO.N,GND*%
X179800000Y-142715000D03*
X178950000Y-142715000D03*
X178100000Y-142715000D03*
X177250000Y-142715000D03*
%TD*%
D13*
%TO.P,J3,1,Pin_1_1*%
%TO.N,GND*%
X217372500Y-117877500D03*
D14*
%TO.P,J3,2,Pin_2_2*%
%TO.N,/MOTOR1*%
X213872500Y-117877500D03*
%TO.P,J3,3,Pin_3_3*%
%TO.N,/MOTOR2*%
X210372500Y-117877500D03*
%TO.P,J3,4,Pin_4_4*%
%TO.N,+3.3V*%
X206872500Y-117877500D03*
%TO.P,J3,5,Pin_5_5*%
%TO.N,/PULSE_IN*%
X203372500Y-117877500D03*
%TD*%
D15*
%TO.P,U12,9,EP_9*%
%TO.N,GND*%
X188732500Y-143165000D03*
X187442500Y-143165000D03*
D16*
X188087500Y-143650000D03*
D15*
X188732500Y-144135000D03*
X187442500Y-144135000D03*
%TD*%
D13*
%TO.P,J4,1,Pin_1_1*%
%TO.N,GND*%
X197472500Y-117877500D03*
D14*
%TO.P,J4,2,Pin_2_2*%
%TO.N,/CTD_PWR*%
X193972500Y-117877500D03*
%TO.P,J4,3,Pin_3_3*%
%TO.N,/CTD_RX*%
X190472500Y-117877500D03*
%TO.P,J4,4,Pin_4_4*%
%TO.N,/CTD_TX*%
X186972500Y-117877500D03*
%TO.P,J4,5,Pin_5_5*%
%TO.N,unconnected-(J4-Pin_5-Pad5)*%
X183472500Y-117877500D03*
%TO.P,J4,6,Pin_6_6*%
%TO.N,unconnected-(J4-Pin_6-Pad6)*%
X179972500Y-117877500D03*
%TD*%
D17*
%TO.P,J1,1,Pin_1_1*%
%TO.N,GND*%
X178400000Y-151942500D03*
D14*
%TO.P,J1,2,Pin_2_2*%
%TO.N,/VBATT+*%
X181900000Y-151942500D03*
%TO.P,J1,3,Pin_3_3*%
%TO.N,/PRES_24V*%
X185400000Y-151942500D03*
%TO.P,J1,4,Pin_4_4*%
%TO.N,/PRES_SIG*%
X188900000Y-151942500D03*
%TD*%
D17*
%TO.P,J2,1,Pin_1_1*%
%TO.N,GND*%
X194800000Y-151942500D03*
D14*
%TO.P,J2,2,Pin_2_2*%
%TO.N,/FTDI_5V*%
X198300000Y-151942500D03*
%TO.P,J2,3,Pin_3_3*%
%TO.N,/RS232_RX*%
X201800000Y-151942500D03*
%TO.P,J2,4,Pin_4_4*%
%TO.N,/RS232_TX*%
X205300000Y-151942500D03*
%TO.P,J2,5,Pin_5_5*%
%TO.N,unconnected-(J2-Pin_5-Pad5)*%
X208800000Y-151942500D03*
%TO.P,J2,6,Pin_6_6*%
%TO.N,/START_PLUG*%
X212300000Y-151942500D03*
%TO.P,J2,7,Pin_7_7*%
%TO.N,+24V*%
X215800000Y-151942500D03*
%TO.P,J2,8,Pin_8_8*%
%TO.N,GND*%
X219300000Y-151942500D03*
%TD*%
D15*
%TO.P,U11,9,EP_9*%
%TO.N,GND*%
X193635000Y-126315000D03*
X193635000Y-125025000D03*
D18*
X193150000Y-125670000D03*
D15*
X192665000Y-126315000D03*
X192665000Y-125025000D03*
%TD*%
D19*
%TO.N,+24V*%
X190200000Y-127900000D03*
X191000000Y-127900000D03*
X189800000Y-147000000D03*
X189146600Y-147400000D03*
%TO.N,GND*%
X220250000Y-134000000D03*
X220250000Y-132750000D03*
X220250000Y-131500000D03*
X220250000Y-130250000D03*
X220250000Y-129000000D03*
X220250000Y-128000000D03*
X220250000Y-126750000D03*
X220250000Y-125500000D03*
X220250000Y-124250000D03*
X220250000Y-123000000D03*
%TO.N,+24V*%
X218000000Y-131500000D03*
X218000000Y-129000000D03*
X218000000Y-134000000D03*
X218000000Y-132750000D03*
X218000000Y-130250000D03*
X218000000Y-124250000D03*
X218000000Y-126750000D03*
X218000000Y-128000000D03*
X218000000Y-123000000D03*
X218000000Y-125500000D03*
%TO.N,/RS232_RX*%
X201800000Y-147125000D03*
%TO.N,/RS232_TX*%
X205293751Y-146457138D03*
%TO.N,Net-(D2-K)*%
X181568397Y-136822500D03*
%TO.N,+24V*%
X182305000Y-136822500D03*
%TO.N,Net-(D2-K)*%
X181562413Y-138858251D03*
%TO.N,+24V*%
X182296522Y-138797700D03*
X180325000Y-138510000D03*
X180325000Y-139760000D03*
X180325000Y-140385000D03*
%TO.N,+3.3V*%
X176950000Y-140035000D03*
%TO.N,GND*%
X176325000Y-137885000D03*
%TO.N,+3.3V*%
X175500000Y-140035000D03*
X176225000Y-140035000D03*
X183300000Y-140550000D03*
%TO.N,+24V*%
X180325000Y-137885000D03*
X180325000Y-139135000D03*
%TO.N,GND*%
X176325000Y-138535000D03*
X176325000Y-139185000D03*
X179355000Y-145395000D03*
X181617049Y-144845022D03*
X178175000Y-139310000D03*
X186975000Y-132575000D03*
X188800000Y-137325000D03*
X203425000Y-126600000D03*
X191575000Y-143000000D03*
X208900000Y-123750000D03*
X208500000Y-125350000D03*
X209200000Y-133125000D03*
X186975000Y-136000000D03*
X204375000Y-122375000D03*
X189100000Y-139300000D03*
X204575000Y-145750000D03*
X198113131Y-146841434D03*
X188250000Y-139300000D03*
X210625000Y-128725000D03*
X223150000Y-138725000D03*
X202750000Y-145750000D03*
X205350000Y-126600000D03*
X208900000Y-124800000D03*
X216625000Y-143200000D03*
X191675000Y-141700000D03*
X209175000Y-143700000D03*
X214725000Y-129575000D03*
X179725000Y-135450000D03*
X209475000Y-132050000D03*
X214725000Y-130425000D03*
X192325000Y-139250000D03*
X190850000Y-141150000D03*
X214475000Y-139075000D03*
X208500000Y-124275000D03*
X196750000Y-146975000D03*
X202650000Y-141375000D03*
X217150000Y-147350000D03*
X201800000Y-145750000D03*
X216275000Y-136350000D03*
X190075000Y-131500000D03*
X199150000Y-145325000D03*
X215650000Y-143275000D03*
X210625000Y-129575000D03*
X207825000Y-132350000D03*
X205050000Y-135375000D03*
X208500000Y-123225000D03*
X182425000Y-128950000D03*
X204400000Y-126525000D03*
X179225000Y-126950000D03*
X214700000Y-143175000D03*
X210625000Y-130425000D03*
X203650000Y-145750000D03*
X195900000Y-140525000D03*
X207825000Y-134800000D03*
X214725000Y-128725000D03*
X203375000Y-122350000D03*
%TO.N,/PRES_ON*%
X195796800Y-139560127D03*
X190750853Y-139862097D03*
%TO.N,+3.3V*%
X178500000Y-128600000D03*
X204375000Y-128800000D03*
X216275000Y-137300000D03*
X215150000Y-140350000D03*
X203350000Y-130950000D03*
X193225000Y-146225000D03*
X178975000Y-131050000D03*
X205375000Y-122350000D03*
X193950000Y-140450000D03*
X199150000Y-144350000D03*
X211725000Y-143700000D03*
X199925000Y-145750000D03*
X206875000Y-132350000D03*
X187000000Y-131625000D03*
X213900000Y-146725000D03*
X215650000Y-141000000D03*
X179105709Y-134294609D03*
X204225000Y-141375000D03*
X204350000Y-130950000D03*
X206450000Y-145750000D03*
X205500000Y-145750000D03*
%TO.N,/MOTOR_ILIM*%
X211031300Y-139575000D03*
X208643700Y-139575000D03*
%TO.N,/MOTOR_IN2*%
X211442597Y-133133887D03*
X200250000Y-132975000D03*
%TO.N,/MOTOR_IN1*%
X212712597Y-133133887D03*
X201050000Y-135525000D03*
%TO.N,Net-(U6-RS)*%
X211495330Y-128000700D03*
X209475000Y-127900000D03*
%TO.N,/CTD_TX*%
X186975000Y-124600000D03*
X186975000Y-126925000D03*
%TO.N,/PAC_ALERT*%
X178475000Y-132050000D03*
X197700000Y-137200000D03*
%TO.N,/SDA*%
X179126093Y-132581366D03*
X204946647Y-132162410D03*
%TO.N,/SCL*%
X202725670Y-132153424D03*
X179120161Y-133317942D03*
%TO.N,/RESET*%
X199350000Y-143525000D03*
X210450000Y-143700000D03*
%TO.N,/CTD_RX*%
X192500000Y-127425000D03*
X190475000Y-123214200D03*
%TO.N,/RS232_RX*%
X195075000Y-138600000D03*
%TO.N,/RUN_WAKE*%
X213375000Y-143900000D03*
X208225000Y-142531600D03*
%TO.N,/RS232_TX*%
X195110037Y-137864232D03*
%TO.N,/LED*%
X212532632Y-138932632D03*
X208322065Y-138912329D03*
%TO.N,/PC_RXD*%
X195165800Y-136125000D03*
X197159200Y-136125000D03*
%TO.N,/RS232_SHDN*%
X194318751Y-134969935D03*
X200150000Y-137975000D03*
%TO.N,GND*%
X216236700Y-147366488D03*
X193925000Y-144500000D03*
%TD*%
%TO.N,+24V*%
D20*
X215800000Y-151942500D02*
X215800000Y-149750000D01*
D21*
X185000000Y-129900000D02*
X187000000Y-127900000D01*
X177535200Y-131160722D02*
X178795922Y-129900000D01*
X178795922Y-129900000D02*
X185000000Y-129900000D01*
X187000000Y-127900000D02*
X191000000Y-127900000D01*
X177535200Y-135095200D02*
X177535200Y-131160722D01*
X180325000Y-137885000D02*
X177535200Y-135095200D01*
D20*
X189546600Y-147000000D02*
X189146600Y-147400000D01*
X189800000Y-147000000D02*
X189546600Y-147000000D01*
%TO.N,/RS232_RX*%
D22*
X199222881Y-147125000D02*
X201800000Y-147125000D01*
X196475000Y-144377119D02*
X199222881Y-147125000D01*
X196475000Y-144000000D02*
X196475000Y-144377119D01*
%TO.N,/RS232_TX*%
X199455954Y-146457138D02*
X205293751Y-146457138D01*
X198565800Y-145566984D02*
X199455954Y-146457138D01*
%TO.N,Net-(D2-K)*%
X181562413Y-136828484D02*
X181568397Y-136822500D01*
X181562413Y-138858251D02*
X181562413Y-136828484D01*
%TO.N,+24V*%
X182296522Y-136830978D02*
X182305000Y-136822500D01*
X182296522Y-138797700D02*
X182296522Y-136830978D01*
%TO.N,/SDA*%
X204334237Y-131550000D02*
X204946647Y-132162410D01*
X190975000Y-131550000D02*
X204334237Y-131550000D01*
X189175000Y-133350000D02*
X190975000Y-131550000D01*
X181224400Y-134218200D02*
X186206800Y-134218200D01*
X179587566Y-132581366D02*
X181224400Y-134218200D01*
X187075000Y-133350000D02*
X189175000Y-133350000D01*
X179126093Y-132581366D02*
X179587566Y-132581366D01*
X186206800Y-134218200D02*
X187075000Y-133350000D01*
%TO.N,GND*%
X191675000Y-141700000D02*
X191800000Y-141700000D01*
%TO.N,/PRES_ON*%
X195494830Y-139862097D02*
X190750853Y-139862097D01*
X195796800Y-139560127D02*
X195494830Y-139862097D01*
%TO.N,/MOTOR_ILIM*%
D23*
X208643700Y-139575000D02*
X211031300Y-139575000D01*
%TO.N,/MOTOR_IN2*%
D22*
X200525000Y-134200000D02*
X200250000Y-133925000D01*
X211442597Y-133133887D02*
X210376484Y-134200000D01*
X210376484Y-134200000D02*
X200525000Y-134200000D01*
X200250000Y-133925000D02*
X200250000Y-132975000D01*
%TO.N,/MOTOR_IN1*%
X201484200Y-135959200D02*
X201050000Y-135525000D01*
X209887284Y-135959200D02*
X201484200Y-135959200D01*
X212712597Y-133133887D02*
X209887284Y-135959200D01*
%TO.N,Net-(U6-RS)*%
X211495330Y-128000700D02*
X210600000Y-128000700D01*
X210499300Y-127900000D02*
X210600000Y-128000700D01*
X209475000Y-127900000D02*
X210499300Y-127900000D01*
%TO.N,/CTD_TX*%
X186975000Y-124600000D02*
X186975000Y-126925000D01*
%TO.N,/PAC_ALERT*%
X192775000Y-135400000D02*
X180501184Y-135400000D01*
X178475000Y-134490084D02*
X178475000Y-132050000D01*
X196246119Y-134385735D02*
X193789265Y-134385735D01*
X179347693Y-134878809D02*
X178863725Y-134878809D01*
X178863725Y-134878809D02*
X178475000Y-134490084D01*
X197743400Y-135883016D02*
X196246119Y-134385735D01*
X197700000Y-137200000D02*
X197743400Y-137156600D01*
X179966984Y-134865800D02*
X179360702Y-134865800D01*
X179360702Y-134865800D02*
X179347693Y-134878809D01*
X193789265Y-134385735D02*
X192775000Y-135400000D01*
X197743400Y-137156600D02*
X197743400Y-135883016D01*
X180501184Y-135400000D02*
X179966984Y-134865800D01*
%TO.N,/SCL*%
X191225000Y-134650000D02*
X193721576Y-132153424D01*
X180452219Y-134650000D02*
X191225000Y-134650000D01*
X193721576Y-132153424D02*
X202725670Y-132153424D01*
X179120161Y-133317942D02*
X180452219Y-134650000D01*
%TO.N,/RESET*%
X209865800Y-143115800D02*
X210450000Y-143700000D01*
X199759200Y-143115800D02*
X209865800Y-143115800D01*
X199350000Y-143525000D02*
X199759200Y-143115800D01*
%TO.N,/CTD_RX*%
X190465066Y-125390066D02*
X192500000Y-127425000D01*
X190465066Y-123224134D02*
X190465066Y-125390066D01*
X190475000Y-123214200D02*
X190465066Y-123224134D01*
%TO.N,/RS232_RX*%
X195662857Y-138600000D02*
X196484200Y-139421343D01*
X196484200Y-139421343D02*
X196484200Y-142715800D01*
X196475000Y-142725000D02*
X196475000Y-144000000D01*
X195075000Y-138600000D02*
X195662857Y-138600000D01*
X196484200Y-142715800D02*
X196475000Y-142725000D01*
X201800000Y-151026184D02*
X201800000Y-151942500D01*
%TO.N,/RUN_WAKE*%
X208225000Y-142531600D02*
X212006600Y-142531600D01*
X212006600Y-142531600D02*
X213375000Y-143900000D01*
%TO.N,/RS232_TX*%
X205300000Y-151125000D02*
X205300000Y-151942500D01*
X195110037Y-137864232D02*
X196014232Y-137864232D01*
X198565800Y-140415800D02*
X198565800Y-145566984D01*
X196014232Y-137864232D02*
X198565800Y-140415800D01*
%TO.N,/LED*%
D23*
X208322065Y-138912329D02*
X212512329Y-138912329D01*
X212512329Y-138912329D02*
X212532632Y-138932632D01*
%TO.N,/PC_RXD*%
D22*
X195165800Y-136125000D02*
X197159200Y-136125000D01*
%TO.N,/RS232_SHDN*%
X194318751Y-134969935D02*
X194318751Y-136104135D01*
X197375000Y-137975000D02*
X200150000Y-137975000D01*
X196832432Y-137432432D02*
X197375000Y-137975000D01*
X195647048Y-137432432D02*
X196832432Y-137432432D01*
X194318751Y-136104135D02*
X195647048Y-137432432D01*
%TD*%
%TA.AperFunction,Conductor*%
%TO.N,+24V*%
G36*
X219543039Y-122619685D02*
G01*
X219588794Y-122672489D01*
X219600000Y-122724000D01*
X219600000Y-147598638D01*
X219580315Y-147665677D01*
X219563681Y-147686319D01*
X217336319Y-149913681D01*
X217274996Y-149947166D01*
X217248638Y-149950000D01*
X187901362Y-149950000D01*
X187834323Y-149930315D01*
X187813681Y-149913681D01*
X179236319Y-141336319D01*
X179202834Y-141274996D01*
X179200000Y-141248638D01*
X179200000Y-137424000D01*
X179219685Y-137356961D01*
X179272489Y-137311206D01*
X179324000Y-137300000D01*
X181076000Y-137300000D01*
X181143039Y-137319685D01*
X181188794Y-137372489D01*
X181200000Y-137424000D01*
X181200000Y-138588143D01*
X181183388Y-138650141D01*
X181159576Y-138691385D01*
X181159574Y-138691388D01*
X181139933Y-138764688D01*
X181130113Y-138801338D01*
X181130113Y-138915164D01*
X181148708Y-138984562D01*
X181159574Y-139025113D01*
X181159577Y-139025118D01*
X181216482Y-139123682D01*
X181216486Y-139123687D01*
X181216487Y-139123689D01*
X181296975Y-139204177D01*
X181296977Y-139204178D01*
X181296981Y-139204181D01*
X181395545Y-139261086D01*
X181395552Y-139261090D01*
X181452988Y-139276480D01*
X181508573Y-139308573D01*
X182866455Y-140666455D01*
X182891772Y-140710295D01*
X182894051Y-140709352D01*
X182897160Y-140716857D01*
X182897161Y-140716861D01*
X182897162Y-140716864D01*
X182897164Y-140716867D01*
X182954069Y-140815431D01*
X182954073Y-140815436D01*
X182954074Y-140815438D01*
X183034562Y-140895926D01*
X183034564Y-140895927D01*
X183034568Y-140895930D01*
X183133136Y-140952838D01*
X183140649Y-140955950D01*
X183139702Y-140958235D01*
X183183544Y-140983544D01*
X189650000Y-147450000D01*
X201465198Y-147450000D01*
X201526813Y-147468092D01*
X201527523Y-147466863D01*
X201633132Y-147527835D01*
X201633139Y-147527839D01*
X201743087Y-147557300D01*
X201743089Y-147557300D01*
X201856911Y-147557300D01*
X201856913Y-147557300D01*
X201966861Y-147527839D01*
X202005322Y-147505633D01*
X202072477Y-147466863D01*
X202074208Y-147469861D01*
X202124520Y-147450427D01*
X202134802Y-147450000D01*
X213950000Y-147450000D01*
X214090425Y-147309575D01*
X215804400Y-147309575D01*
X215804400Y-147423401D01*
X215811642Y-147450427D01*
X215833861Y-147533350D01*
X215833864Y-147533355D01*
X215890769Y-147631919D01*
X215890773Y-147631924D01*
X215890774Y-147631926D01*
X215971262Y-147712414D01*
X215971264Y-147712415D01*
X215971268Y-147712418D01*
X216069832Y-147769323D01*
X216069839Y-147769327D01*
X216179787Y-147798788D01*
X216179789Y-147798788D01*
X216293611Y-147798788D01*
X216293613Y-147798788D01*
X216403561Y-147769327D01*
X216502138Y-147712414D01*
X216582626Y-147631926D01*
X216590722Y-147617903D01*
X216641284Y-147569689D01*
X216709891Y-147556463D01*
X216774757Y-147582428D01*
X216798312Y-147609610D01*
X216799124Y-147608987D01*
X216804073Y-147615436D01*
X216804074Y-147615438D01*
X216884562Y-147695926D01*
X216884564Y-147695927D01*
X216884568Y-147695930D01*
X216913120Y-147712414D01*
X216983139Y-147752839D01*
X217093087Y-147782300D01*
X217093089Y-147782300D01*
X217206911Y-147782300D01*
X217206913Y-147782300D01*
X217316861Y-147752839D01*
X217415438Y-147695926D01*
X217495926Y-147615438D01*
X217552839Y-147516861D01*
X217582300Y-147406913D01*
X217582300Y-147293087D01*
X217552839Y-147183139D01*
X217537921Y-147157300D01*
X217495930Y-147084568D01*
X217495924Y-147084560D01*
X217415439Y-147004075D01*
X217415431Y-147004069D01*
X217316867Y-146947164D01*
X217316862Y-146947161D01*
X217268446Y-146934188D01*
X217206913Y-146917700D01*
X217093087Y-146917700D01*
X217038113Y-146932430D01*
X216983137Y-146947161D01*
X216983132Y-146947164D01*
X216884568Y-147004069D01*
X216884560Y-147004075D01*
X216804075Y-147084560D01*
X216804071Y-147084565D01*
X216795976Y-147098587D01*
X216745408Y-147146801D01*
X216676801Y-147160023D01*
X216611937Y-147134054D01*
X216588389Y-147106877D01*
X216587576Y-147107501D01*
X216582624Y-147101048D01*
X216502139Y-147020563D01*
X216502131Y-147020557D01*
X216403567Y-146963652D01*
X216403562Y-146963649D01*
X216342039Y-146947164D01*
X216293613Y-146934188D01*
X216179787Y-146934188D01*
X216131372Y-146947161D01*
X216069837Y-146963649D01*
X216069832Y-146963652D01*
X215971268Y-147020557D01*
X215971260Y-147020563D01*
X215890775Y-147101048D01*
X215890769Y-147101056D01*
X215833864Y-147199620D01*
X215833861Y-147199625D01*
X215821898Y-147244273D01*
X215804400Y-147309575D01*
X214090425Y-147309575D01*
X216650000Y-144750000D01*
X216650000Y-143735999D01*
X216669685Y-143668960D01*
X216722489Y-143623205D01*
X216741899Y-143616226D01*
X216791861Y-143602839D01*
X216890438Y-143545926D01*
X216970926Y-143465438D01*
X217027839Y-143366861D01*
X217057300Y-143256913D01*
X217057300Y-143143087D01*
X217027839Y-143033139D01*
X217014227Y-143009562D01*
X216970930Y-142934568D01*
X216970924Y-142934560D01*
X216890439Y-142854075D01*
X216890431Y-142854069D01*
X216791867Y-142797164D01*
X216791863Y-142797162D01*
X216791861Y-142797161D01*
X216791859Y-142797160D01*
X216791858Y-142797160D01*
X216741904Y-142783774D01*
X216682244Y-142747408D01*
X216651716Y-142684561D01*
X216650000Y-142664000D01*
X216650000Y-137548305D01*
X216666614Y-137486303D01*
X216677838Y-137466862D01*
X216677839Y-137466861D01*
X216707300Y-137356913D01*
X216707300Y-137243087D01*
X216677839Y-137133139D01*
X216676149Y-137130212D01*
X216666612Y-137113692D01*
X216650000Y-137051694D01*
X216650000Y-136598305D01*
X216666614Y-136536303D01*
X216677838Y-136516862D01*
X216677839Y-136516861D01*
X216707300Y-136406913D01*
X216707300Y-136293087D01*
X216677839Y-136183139D01*
X216668441Y-136166861D01*
X216666612Y-136163692D01*
X216650000Y-136101694D01*
X216650000Y-122724000D01*
X216669685Y-122656961D01*
X216722489Y-122611206D01*
X216774000Y-122600000D01*
X219476000Y-122600000D01*
X219543039Y-122619685D01*
G37*
%TD.AperFunction*%
%TD*%
M02*
