%TF.GenerationSoftware,KiCad,Pcbnew,10.0.1*%
%TF.CreationDate,2026-07-25T22:17:56-04:00*%
%TF.ProjectId,RosetteController,526f7365-7474-4654-936f-6e74726f6c6c,A*%
%TF.SameCoordinates,Original*%
%TF.FileFunction,Copper,L2,Inr*%
%TF.FilePolarity,Positive*%
%FSLAX46Y46*%
G04 Gerber Fmt 4.6, Leading zero omitted, Abs format (unit mm)*
G04 Created by KiCad (PCBNEW 10.0.1) date 2026-07-25 22:17:56*
%MOMM*%
%LPD*%
G01*
G04 APERTURE LIST*
G04 Aperture macros list*
%AMRoundRect*
0 Rectangle with rounded corners*
0 $1 Rounding radius*
0 $2 $3 $4 $5 $6 $7 $8 $9 X,Y pos of 4 corners*
0 Add a 4 corners polygon primitive as box body*
4,1,4,$2,$3,$4,$5,$6,$7,$8,$9,$2,$3,0*
0 Add four circle primitives for the rounded corners*
1,1,$1+$1,$2,$3*
1,1,$1+$1,$4,$5*
1,1,$1+$1,$6,$7*
1,1,$1+$1,$8,$9*
0 Add four rect primitives between the rounded corners*
20,1,$1+$1,$2,$3,$4,$5,0*
20,1,$1+$1,$4,$5,$6,$7,0*
20,1,$1+$1,$6,$7,$8,$9,0*
20,1,$1+$1,$8,$9,$2,$3,0*%
G04 Aperture macros list end*
%TA.AperFunction,HeatsinkPad*%
%ADD10C,0.500000*%
%TD*%
%TA.AperFunction,ComponentPad*%
%ADD11C,0.528000*%
%TD*%
%TA.AperFunction,ComponentPad*%
%ADD12RoundRect,0.250000X0.650000X1.550000X-0.650000X1.550000X-0.650000X-1.550000X0.650000X-1.550000X0*%
%TD*%
%TA.AperFunction,ComponentPad*%
%ADD13O,1.800000X3.600000*%
%TD*%
%TA.AperFunction,HeatsinkPad*%
%ADD14C,0.600000*%
%TD*%
%TA.AperFunction,ComponentPad*%
%ADD15RoundRect,0.250000X-0.650000X-1.550000X0.650000X-1.550000X0.650000X1.550000X-0.650000X1.550000X0*%
%TD*%
%TA.AperFunction,ViaPad*%
%ADD16C,0.609600*%
%TD*%
G04 APERTURE END LIST*
D10*
%TO.N,GND*%
%TO.C,U10*%
X182885000Y-133670000D03*
X182885000Y-132730000D03*
X182885000Y-131790000D03*
X181735000Y-133670000D03*
X181735000Y-132730000D03*
X181735000Y-131790000D03*
%TD*%
D11*
%TO.N,GND*%
%TO.C,U3*%
X179800000Y-142715000D03*
X178950000Y-142715000D03*
X178100000Y-142715000D03*
X177250000Y-142715000D03*
%TD*%
D12*
%TO.N,GND*%
%TO.C,J3*%
X217372500Y-117877500D03*
D13*
%TO.N,/MOTOR1*%
X213872500Y-117877500D03*
%TO.N,/MOTOR2*%
X210372500Y-117877500D03*
%TO.N,+3.3V*%
X206872500Y-117877500D03*
%TO.N,/PULSE_IN*%
X203372500Y-117877500D03*
%TD*%
D14*
%TO.N,GND*%
%TO.C,U12*%
X188732500Y-143165000D03*
X187442500Y-143165000D03*
X188732500Y-144135000D03*
X187442500Y-144135000D03*
%TD*%
D12*
%TO.N,GND*%
%TO.C,J4*%
X197472500Y-117877500D03*
D13*
%TO.N,/CTD_PWR*%
X193972500Y-117877500D03*
%TO.N,/CTD_RX*%
X190472500Y-117877500D03*
%TO.N,/CTD_TX*%
X186972500Y-117877500D03*
%TO.N,unconnected-(J4-Pin_5-Pad5)*%
X183472500Y-117877500D03*
%TO.N,unconnected-(J4-Pin_6-Pad6)*%
X179972500Y-117877500D03*
%TD*%
D15*
%TO.N,GND*%
%TO.C,J1*%
X178400000Y-151942500D03*
D13*
%TO.N,/VBATT+*%
X181900000Y-151942500D03*
%TO.N,/PRES_24V*%
X185400000Y-151942500D03*
%TO.N,/PRES_SIG*%
X188900000Y-151942500D03*
%TD*%
D15*
%TO.N,GND*%
%TO.C,J2*%
X194800000Y-151942500D03*
D13*
%TO.N,/FTDI_5V*%
X198300000Y-151942500D03*
%TO.N,/RS232_RX*%
X201800000Y-151942500D03*
%TO.N,/RS232_TX*%
X205300000Y-151942500D03*
%TO.N,unconnected-(J2-Pin_5-Pad5)*%
X208800000Y-151942500D03*
%TO.N,/START_PLUG*%
X212300000Y-151942500D03*
%TO.N,+24V*%
X215800000Y-151942500D03*
%TO.N,GND*%
X219300000Y-151942500D03*
%TD*%
D14*
%TO.N,GND*%
%TO.C,U11*%
X193635000Y-126315000D03*
X193635000Y-125025000D03*
X192665000Y-126315000D03*
X192665000Y-125025000D03*
%TD*%
D16*
%TO.N,+24V*%
X190200000Y-127900000D03*
X191000000Y-127900000D03*
X189800000Y-147000000D03*
X189146600Y-147400000D03*
%TO.N,GND*%
X220250000Y-134000000D03*
X220250000Y-132750000D03*
X220250000Y-131500000D03*
X220250000Y-130250000D03*
X220250000Y-129000000D03*
X220250000Y-128000000D03*
X220250000Y-126750000D03*
X220250000Y-125500000D03*
X220250000Y-124250000D03*
X220250000Y-123000000D03*
%TO.N,+24V*%
X218000000Y-131500000D03*
X218000000Y-129000000D03*
X218000000Y-134000000D03*
X218000000Y-132750000D03*
X218000000Y-130250000D03*
X218000000Y-124250000D03*
X218000000Y-126750000D03*
X218000000Y-128000000D03*
X218000000Y-123000000D03*
X218000000Y-125500000D03*
%TO.N,/RS232_RX*%
X201800000Y-147125000D03*
%TO.N,/RS232_TX*%
X205293751Y-146457138D03*
%TO.N,Net-(D2-K)*%
X181568397Y-136822500D03*
%TO.N,+24V*%
X182305000Y-136822500D03*
%TO.N,Net-(D2-K)*%
X181562413Y-138858251D03*
%TO.N,+24V*%
X182296522Y-138797700D03*
X180325000Y-138510000D03*
X180325000Y-139760000D03*
X180325000Y-140385000D03*
%TO.N,+3.3V*%
X176950000Y-140035000D03*
%TO.N,GND*%
X176325000Y-137885000D03*
%TO.N,+3.3V*%
X175500000Y-140035000D03*
X176225000Y-140035000D03*
X183300000Y-140550000D03*
%TO.N,+24V*%
X180325000Y-137885000D03*
X180325000Y-139135000D03*
%TO.N,GND*%
X176325000Y-138535000D03*
X176325000Y-139185000D03*
X179355000Y-145395000D03*
X181617049Y-144845022D03*
X178175000Y-139310000D03*
X186975000Y-132575000D03*
X188800000Y-137325000D03*
X203425000Y-126600000D03*
X191575000Y-143000000D03*
X208900000Y-123750000D03*
X208500000Y-125350000D03*
X209200000Y-133125000D03*
X186975000Y-136000000D03*
X204375000Y-122375000D03*
X189100000Y-139300000D03*
X204575000Y-145750000D03*
X198113131Y-146841434D03*
X188250000Y-139300000D03*
X210625000Y-128725000D03*
X223150000Y-138725000D03*
X202750000Y-145750000D03*
X205350000Y-126600000D03*
X208900000Y-124800000D03*
X216625000Y-143200000D03*
X191675000Y-141700000D03*
X209175000Y-143700000D03*
X214725000Y-129575000D03*
X179725000Y-135450000D03*
X209475000Y-132050000D03*
X214725000Y-130425000D03*
X192325000Y-139250000D03*
X190850000Y-141150000D03*
X214475000Y-139075000D03*
X208500000Y-124275000D03*
X196750000Y-146975000D03*
X202650000Y-141375000D03*
X217150000Y-147350000D03*
X201800000Y-145750000D03*
X216275000Y-136350000D03*
X190075000Y-131500000D03*
X199150000Y-145325000D03*
X215650000Y-143275000D03*
X210625000Y-129575000D03*
X207825000Y-132350000D03*
X205050000Y-135375000D03*
X208500000Y-123225000D03*
X182425000Y-128950000D03*
X204400000Y-126525000D03*
X179225000Y-126950000D03*
X214700000Y-143175000D03*
X210625000Y-130425000D03*
X203650000Y-145750000D03*
X195900000Y-140525000D03*
X207825000Y-134800000D03*
X214725000Y-128725000D03*
X203375000Y-122350000D03*
%TO.N,/PRES_ON*%
X195796800Y-139560127D03*
X190750853Y-139862097D03*
%TO.N,+3.3V*%
X178500000Y-128600000D03*
X204375000Y-128800000D03*
X216275000Y-137300000D03*
X215150000Y-140350000D03*
X203350000Y-130950000D03*
X193225000Y-146225000D03*
X178975000Y-131050000D03*
X205375000Y-122350000D03*
X193950000Y-140450000D03*
X199150000Y-144350000D03*
X211725000Y-143700000D03*
X199925000Y-145750000D03*
X206875000Y-132350000D03*
X187000000Y-131625000D03*
X213900000Y-146725000D03*
X215650000Y-141000000D03*
X179105709Y-134294609D03*
X204225000Y-141375000D03*
X204350000Y-130950000D03*
X206450000Y-145750000D03*
X205500000Y-145750000D03*
%TO.N,/MOTOR_ILIM*%
X211031300Y-139575000D03*
X208643700Y-139575000D03*
%TO.N,/MOTOR_IN2*%
X211442597Y-133133887D03*
X200250000Y-132975000D03*
%TO.N,/MOTOR_IN1*%
X212712597Y-133133887D03*
X201050000Y-135525000D03*
%TO.N,Net-(U6-RS)*%
X211495330Y-128000700D03*
X209475000Y-127900000D03*
%TO.N,/CTD_TX*%
X186975000Y-124600000D03*
X186975000Y-126925000D03*
%TO.N,/PAC_ALERT*%
X178475000Y-132050000D03*
X197700000Y-137200000D03*
%TO.N,/SDA*%
X179126093Y-132581366D03*
X204946647Y-132162410D03*
%TO.N,/SCL*%
X202725670Y-132153424D03*
X179120161Y-133317942D03*
%TO.N,/RESET*%
X199350000Y-143525000D03*
X210450000Y-143700000D03*
%TO.N,/CTD_RX*%
X192500000Y-127425000D03*
X190475000Y-123214200D03*
%TO.N,/RS232_RX*%
X195075000Y-138600000D03*
%TO.N,/RUN_WAKE*%
X213375000Y-143900000D03*
X208225000Y-142531600D03*
%TO.N,/RS232_TX*%
X195110037Y-137864232D03*
%TO.N,/LED*%
X212532632Y-138932632D03*
X208322065Y-138912329D03*
%TO.N,/PC_RXD*%
X195165800Y-136125000D03*
X197159200Y-136125000D03*
%TO.N,/RS232_SHDN*%
X194318751Y-134969935D03*
X200150000Y-137975000D03*
%TO.N,GND*%
X216236700Y-147366488D03*
X193925000Y-144500000D03*
%TD*%
%TA.AperFunction,Conductor*%
%TO.N,GND*%
G36*
X225753472Y-112354695D02*
G01*
X226044856Y-112371059D01*
X226058657Y-112372614D01*
X226342946Y-112420916D01*
X226356489Y-112424007D01*
X226633575Y-112503834D01*
X226646700Y-112508426D01*
X226913107Y-112618775D01*
X226925628Y-112624806D01*
X227177997Y-112764287D01*
X227189770Y-112771684D01*
X227424946Y-112938549D01*
X227435814Y-112947217D01*
X227650813Y-113139354D01*
X227660645Y-113149186D01*
X227852782Y-113364185D01*
X227861453Y-113375057D01*
X228028315Y-113610229D01*
X228035712Y-113622002D01*
X228175193Y-113874371D01*
X228181227Y-113886900D01*
X228291572Y-114153298D01*
X228296165Y-114166424D01*
X228375990Y-114443504D01*
X228379084Y-114457060D01*
X228427384Y-114741334D01*
X228428941Y-114755152D01*
X228445305Y-115046527D01*
X228445500Y-115053480D01*
X228445500Y-154746519D01*
X228445305Y-154753472D01*
X228428941Y-155044847D01*
X228427384Y-155058665D01*
X228379084Y-155342939D01*
X228375990Y-155356495D01*
X228296165Y-155633575D01*
X228291572Y-155646701D01*
X228181227Y-155913099D01*
X228175193Y-155925628D01*
X228035712Y-156177997D01*
X228028315Y-156189770D01*
X227861453Y-156424942D01*
X227852782Y-156435814D01*
X227660645Y-156650813D01*
X227650813Y-156660645D01*
X227435814Y-156852782D01*
X227424942Y-156861453D01*
X227189770Y-157028315D01*
X227177997Y-157035712D01*
X226925628Y-157175193D01*
X226913099Y-157181227D01*
X226646701Y-157291572D01*
X226633575Y-157296165D01*
X226356495Y-157375990D01*
X226342939Y-157379084D01*
X226058665Y-157427384D01*
X226044847Y-157428941D01*
X225753472Y-157445305D01*
X225746519Y-157445500D01*
X171953481Y-157445500D01*
X171946528Y-157445305D01*
X171655152Y-157428941D01*
X171641334Y-157427384D01*
X171357060Y-157379084D01*
X171343504Y-157375990D01*
X171066424Y-157296165D01*
X171053298Y-157291572D01*
X170786900Y-157181227D01*
X170774371Y-157175193D01*
X170522002Y-157035712D01*
X170510229Y-157028315D01*
X170275057Y-156861453D01*
X170264185Y-156852782D01*
X170049186Y-156660645D01*
X170039354Y-156650813D01*
X169847217Y-156435814D01*
X169838546Y-156424942D01*
X169671684Y-156189770D01*
X169664287Y-156177997D01*
X169524806Y-155925628D01*
X169518775Y-155913107D01*
X169408426Y-155646700D01*
X169403834Y-155633575D01*
X169324009Y-155356495D01*
X169320915Y-155342939D01*
X169272615Y-155058665D01*
X169271059Y-155044856D01*
X169254695Y-154753472D01*
X169254500Y-154746519D01*
X169254500Y-151873723D01*
X170745500Y-151873723D01*
X170745500Y-152126276D01*
X170785009Y-152375722D01*
X170785009Y-152375725D01*
X170863050Y-152615911D01*
X170863051Y-152615914D01*
X170977709Y-152840941D01*
X171126156Y-153045261D01*
X171304739Y-153223844D01*
X171509059Y-153372291D01*
X171619428Y-153428526D01*
X171734085Y-153486948D01*
X171734088Y-153486949D01*
X171958123Y-153559741D01*
X171974279Y-153564991D01*
X172223723Y-153604500D01*
X172223724Y-153604500D01*
X172476276Y-153604500D01*
X172476277Y-153604500D01*
X172725721Y-153564991D01*
X172725724Y-153564990D01*
X172725725Y-153564990D01*
X172965911Y-153486949D01*
X172965914Y-153486948D01*
X173190941Y-153372291D01*
X173395261Y-153223844D01*
X173573844Y-153045261D01*
X173722291Y-152840941D01*
X173836948Y-152615914D01*
X173914991Y-152375721D01*
X173954500Y-152126277D01*
X173954500Y-151873723D01*
X173914991Y-151624279D01*
X173914990Y-151624275D01*
X173914990Y-151624274D01*
X173836949Y-151384088D01*
X173836948Y-151384085D01*
X173722290Y-151159058D01*
X173573844Y-150954739D01*
X173560400Y-150941295D01*
X180872500Y-150941295D01*
X180872500Y-152943704D01*
X180911984Y-153142203D01*
X180911986Y-153142211D01*
X180989439Y-153329201D01*
X180989444Y-153329210D01*
X181101887Y-153497492D01*
X181101890Y-153497496D01*
X181245003Y-153640609D01*
X181245007Y-153640612D01*
X181413289Y-153753055D01*
X181413295Y-153753058D01*
X181413296Y-153753059D01*
X181600289Y-153830514D01*
X181798795Y-153869999D01*
X181798799Y-153870000D01*
X181798800Y-153870000D01*
X182001201Y-153870000D01*
X182001202Y-153869999D01*
X182199711Y-153830514D01*
X182386704Y-153753059D01*
X182554993Y-153640612D01*
X182698112Y-153497493D01*
X182810559Y-153329204D01*
X182888014Y-153142211D01*
X182927500Y-152943700D01*
X182927500Y-150941300D01*
X182927499Y-150941295D01*
X184372500Y-150941295D01*
X184372500Y-152943704D01*
X184411984Y-153142203D01*
X184411986Y-153142211D01*
X184489439Y-153329201D01*
X184489444Y-153329210D01*
X184601887Y-153497492D01*
X184601890Y-153497496D01*
X184745003Y-153640609D01*
X184745007Y-153640612D01*
X184913289Y-153753055D01*
X184913295Y-153753058D01*
X184913296Y-153753059D01*
X185100289Y-153830514D01*
X185298795Y-153869999D01*
X185298799Y-153870000D01*
X185298800Y-153870000D01*
X185501201Y-153870000D01*
X185501202Y-153869999D01*
X185699711Y-153830514D01*
X185886704Y-153753059D01*
X186054993Y-153640612D01*
X186198112Y-153497493D01*
X186310559Y-153329204D01*
X186388014Y-153142211D01*
X186427500Y-152943700D01*
X186427500Y-150941300D01*
X186427499Y-150941295D01*
X187872500Y-150941295D01*
X187872500Y-152943704D01*
X187911984Y-153142203D01*
X187911986Y-153142211D01*
X187989439Y-153329201D01*
X187989444Y-153329210D01*
X188101887Y-153497492D01*
X188101890Y-153497496D01*
X188245003Y-153640609D01*
X188245007Y-153640612D01*
X188413289Y-153753055D01*
X188413295Y-153753058D01*
X188413296Y-153753059D01*
X188600289Y-153830514D01*
X188798795Y-153869999D01*
X188798799Y-153870000D01*
X188798800Y-153870000D01*
X189001201Y-153870000D01*
X189001202Y-153869999D01*
X189199711Y-153830514D01*
X189386704Y-153753059D01*
X189554993Y-153640612D01*
X189698112Y-153497493D01*
X189810559Y-153329204D01*
X189888014Y-153142211D01*
X189927500Y-152943700D01*
X189927500Y-150941300D01*
X189927499Y-150941295D01*
X197272500Y-150941295D01*
X197272500Y-152943704D01*
X197311984Y-153142203D01*
X197311986Y-153142211D01*
X197389439Y-153329201D01*
X197389444Y-153329210D01*
X197501887Y-153497492D01*
X197501890Y-153497496D01*
X197645003Y-153640609D01*
X197645007Y-153640612D01*
X197813289Y-153753055D01*
X197813295Y-153753058D01*
X197813296Y-153753059D01*
X198000289Y-153830514D01*
X198198795Y-153869999D01*
X198198799Y-153870000D01*
X198198800Y-153870000D01*
X198401201Y-153870000D01*
X198401202Y-153869999D01*
X198599711Y-153830514D01*
X198786704Y-153753059D01*
X198954993Y-153640612D01*
X199098112Y-153497493D01*
X199210559Y-153329204D01*
X199288014Y-153142211D01*
X199327500Y-152943700D01*
X199327500Y-150941300D01*
X199327499Y-150941295D01*
X200772500Y-150941295D01*
X200772500Y-152943704D01*
X200811984Y-153142203D01*
X200811986Y-153142211D01*
X200889439Y-153329201D01*
X200889444Y-153329210D01*
X201001887Y-153497492D01*
X201001890Y-153497496D01*
X201145003Y-153640609D01*
X201145007Y-153640612D01*
X201313289Y-153753055D01*
X201313295Y-153753058D01*
X201313296Y-153753059D01*
X201500289Y-153830514D01*
X201698795Y-153869999D01*
X201698799Y-153870000D01*
X201698800Y-153870000D01*
X201901201Y-153870000D01*
X201901202Y-153869999D01*
X202099711Y-153830514D01*
X202286704Y-153753059D01*
X202454993Y-153640612D01*
X202598112Y-153497493D01*
X202710559Y-153329204D01*
X202788014Y-153142211D01*
X202827500Y-152943700D01*
X202827500Y-150941300D01*
X202827499Y-150941295D01*
X204272500Y-150941295D01*
X204272500Y-152943704D01*
X204311984Y-153142203D01*
X204311986Y-153142211D01*
X204389439Y-153329201D01*
X204389444Y-153329210D01*
X204501887Y-153497492D01*
X204501890Y-153497496D01*
X204645003Y-153640609D01*
X204645007Y-153640612D01*
X204813289Y-153753055D01*
X204813295Y-153753058D01*
X204813296Y-153753059D01*
X205000289Y-153830514D01*
X205198795Y-153869999D01*
X205198799Y-153870000D01*
X205198800Y-153870000D01*
X205401201Y-153870000D01*
X205401202Y-153869999D01*
X205599711Y-153830514D01*
X205786704Y-153753059D01*
X205954993Y-153640612D01*
X206098112Y-153497493D01*
X206210559Y-153329204D01*
X206288014Y-153142211D01*
X206327500Y-152943700D01*
X206327500Y-150941300D01*
X206327499Y-150941295D01*
X207772500Y-150941295D01*
X207772500Y-152943704D01*
X207811984Y-153142203D01*
X207811986Y-153142211D01*
X207889439Y-153329201D01*
X207889444Y-153329210D01*
X208001887Y-153497492D01*
X208001890Y-153497496D01*
X208145003Y-153640609D01*
X208145007Y-153640612D01*
X208313289Y-153753055D01*
X208313295Y-153753058D01*
X208313296Y-153753059D01*
X208500289Y-153830514D01*
X208698795Y-153869999D01*
X208698799Y-153870000D01*
X208698800Y-153870000D01*
X208901201Y-153870000D01*
X208901202Y-153869999D01*
X209099711Y-153830514D01*
X209286704Y-153753059D01*
X209454993Y-153640612D01*
X209598112Y-153497493D01*
X209710559Y-153329204D01*
X209788014Y-153142211D01*
X209827500Y-152943700D01*
X209827500Y-150941300D01*
X209827499Y-150941295D01*
X211272500Y-150941295D01*
X211272500Y-152943704D01*
X211311984Y-153142203D01*
X211311986Y-153142211D01*
X211389439Y-153329201D01*
X211389444Y-153329210D01*
X211501887Y-153497492D01*
X211501890Y-153497496D01*
X211645003Y-153640609D01*
X211645007Y-153640612D01*
X211813289Y-153753055D01*
X211813295Y-153753058D01*
X211813296Y-153753059D01*
X212000289Y-153830514D01*
X212198795Y-153869999D01*
X212198799Y-153870000D01*
X212198800Y-153870000D01*
X212401201Y-153870000D01*
X212401202Y-153869999D01*
X212599711Y-153830514D01*
X212786704Y-153753059D01*
X212954993Y-153640612D01*
X213098112Y-153497493D01*
X213210559Y-153329204D01*
X213288014Y-153142211D01*
X213327500Y-152943700D01*
X213327500Y-150941300D01*
X213327499Y-150941295D01*
X214772500Y-150941295D01*
X214772500Y-152943704D01*
X214811984Y-153142203D01*
X214811986Y-153142211D01*
X214889439Y-153329201D01*
X214889444Y-153329210D01*
X215001887Y-153497492D01*
X215001890Y-153497496D01*
X215145003Y-153640609D01*
X215145007Y-153640612D01*
X215313289Y-153753055D01*
X215313295Y-153753058D01*
X215313296Y-153753059D01*
X215500289Y-153830514D01*
X215698795Y-153869999D01*
X215698799Y-153870000D01*
X215698800Y-153870000D01*
X215901201Y-153870000D01*
X215901202Y-153869999D01*
X216099711Y-153830514D01*
X216286704Y-153753059D01*
X216454993Y-153640612D01*
X216598112Y-153497493D01*
X216710559Y-153329204D01*
X216788014Y-153142211D01*
X216827500Y-152943700D01*
X216827500Y-151873723D01*
X223745500Y-151873723D01*
X223745500Y-152126276D01*
X223785009Y-152375722D01*
X223785009Y-152375725D01*
X223863050Y-152615911D01*
X223863051Y-152615914D01*
X223977709Y-152840941D01*
X224126156Y-153045261D01*
X224304739Y-153223844D01*
X224509059Y-153372291D01*
X224619428Y-153428526D01*
X224734085Y-153486948D01*
X224734088Y-153486949D01*
X224958123Y-153559741D01*
X224974279Y-153564991D01*
X225223723Y-153604500D01*
X225223724Y-153604500D01*
X225476276Y-153604500D01*
X225476277Y-153604500D01*
X225725721Y-153564991D01*
X225725724Y-153564990D01*
X225725725Y-153564990D01*
X225965911Y-153486949D01*
X225965914Y-153486948D01*
X226190941Y-153372291D01*
X226395261Y-153223844D01*
X226573844Y-153045261D01*
X226722291Y-152840941D01*
X226836948Y-152615914D01*
X226914991Y-152375721D01*
X226954500Y-152126277D01*
X226954500Y-151873723D01*
X226914991Y-151624279D01*
X226914990Y-151624275D01*
X226914990Y-151624274D01*
X226836949Y-151384088D01*
X226836948Y-151384085D01*
X226722290Y-151159058D01*
X226573844Y-150954739D01*
X226395261Y-150776156D01*
X226190941Y-150627709D01*
X225965914Y-150513051D01*
X225965911Y-150513050D01*
X225725723Y-150435009D01*
X225559425Y-150408669D01*
X225476277Y-150395500D01*
X225223723Y-150395500D01*
X225140575Y-150408669D01*
X224974277Y-150435009D01*
X224974274Y-150435009D01*
X224734088Y-150513050D01*
X224734085Y-150513051D01*
X224509058Y-150627709D01*
X224304736Y-150776158D01*
X224126158Y-150954736D01*
X223977709Y-151159058D01*
X223863051Y-151384085D01*
X223863050Y-151384088D01*
X223785009Y-151624274D01*
X223785009Y-151624277D01*
X223745500Y-151873723D01*
X216827500Y-151873723D01*
X216827500Y-150941300D01*
X216788014Y-150742789D01*
X216710559Y-150555796D01*
X216710558Y-150555795D01*
X216710555Y-150555789D01*
X216598112Y-150387507D01*
X216598109Y-150387503D01*
X216454996Y-150244390D01*
X216454992Y-150244387D01*
X216286710Y-150131944D01*
X216286701Y-150131939D01*
X216099711Y-150054486D01*
X216099703Y-150054484D01*
X215901204Y-150015000D01*
X215901200Y-150015000D01*
X215698800Y-150015000D01*
X215698795Y-150015000D01*
X215500296Y-150054484D01*
X215500288Y-150054486D01*
X215313298Y-150131939D01*
X215313289Y-150131944D01*
X215145007Y-150244387D01*
X215145003Y-150244390D01*
X215001890Y-150387503D01*
X215001887Y-150387507D01*
X214889444Y-150555789D01*
X214889439Y-150555798D01*
X214811986Y-150742788D01*
X214811984Y-150742796D01*
X214772500Y-150941295D01*
X213327499Y-150941295D01*
X213288014Y-150742789D01*
X213210559Y-150555796D01*
X213210558Y-150555795D01*
X213210555Y-150555789D01*
X213098112Y-150387507D01*
X213098109Y-150387503D01*
X212954996Y-150244390D01*
X212954992Y-150244387D01*
X212786710Y-150131944D01*
X212786701Y-150131939D01*
X212599711Y-150054486D01*
X212599703Y-150054484D01*
X212401204Y-150015000D01*
X212401200Y-150015000D01*
X212198800Y-150015000D01*
X212198795Y-150015000D01*
X212000296Y-150054484D01*
X212000288Y-150054486D01*
X211813298Y-150131939D01*
X211813289Y-150131944D01*
X211645007Y-150244387D01*
X211645003Y-150244390D01*
X211501890Y-150387503D01*
X211501887Y-150387507D01*
X211389444Y-150555789D01*
X211389439Y-150555798D01*
X211311986Y-150742788D01*
X211311984Y-150742796D01*
X211272500Y-150941295D01*
X209827499Y-150941295D01*
X209788014Y-150742789D01*
X209710559Y-150555796D01*
X209710558Y-150555795D01*
X209710555Y-150555789D01*
X209598112Y-150387507D01*
X209598109Y-150387503D01*
X209454996Y-150244390D01*
X209454992Y-150244387D01*
X209286710Y-150131944D01*
X209286701Y-150131939D01*
X209099711Y-150054486D01*
X209099703Y-150054484D01*
X208901204Y-150015000D01*
X208901200Y-150015000D01*
X208698800Y-150015000D01*
X208698795Y-150015000D01*
X208500296Y-150054484D01*
X208500288Y-150054486D01*
X208313298Y-150131939D01*
X208313289Y-150131944D01*
X208145007Y-150244387D01*
X208145003Y-150244390D01*
X208001890Y-150387503D01*
X208001887Y-150387507D01*
X207889444Y-150555789D01*
X207889439Y-150555798D01*
X207811986Y-150742788D01*
X207811984Y-150742796D01*
X207772500Y-150941295D01*
X206327499Y-150941295D01*
X206288014Y-150742789D01*
X206210559Y-150555796D01*
X206210558Y-150555795D01*
X206210555Y-150555789D01*
X206098112Y-150387507D01*
X206098109Y-150387503D01*
X205954996Y-150244390D01*
X205954992Y-150244387D01*
X205786710Y-150131944D01*
X205786701Y-150131939D01*
X205599711Y-150054486D01*
X205599703Y-150054484D01*
X205401204Y-150015000D01*
X205401200Y-150015000D01*
X205198800Y-150015000D01*
X205198795Y-150015000D01*
X205000296Y-150054484D01*
X205000288Y-150054486D01*
X204813298Y-150131939D01*
X204813289Y-150131944D01*
X204645007Y-150244387D01*
X204645003Y-150244390D01*
X204501890Y-150387503D01*
X204501887Y-150387507D01*
X204389444Y-150555789D01*
X204389439Y-150555798D01*
X204311986Y-150742788D01*
X204311984Y-150742796D01*
X204272500Y-150941295D01*
X202827499Y-150941295D01*
X202788014Y-150742789D01*
X202710559Y-150555796D01*
X202710558Y-150555795D01*
X202710555Y-150555789D01*
X202598112Y-150387507D01*
X202598109Y-150387503D01*
X202454996Y-150244390D01*
X202454992Y-150244387D01*
X202286710Y-150131944D01*
X202286701Y-150131939D01*
X202099711Y-150054486D01*
X202099703Y-150054484D01*
X201901204Y-150015000D01*
X201901200Y-150015000D01*
X201698800Y-150015000D01*
X201698795Y-150015000D01*
X201500296Y-150054484D01*
X201500288Y-150054486D01*
X201313298Y-150131939D01*
X201313289Y-150131944D01*
X201145007Y-150244387D01*
X201145003Y-150244390D01*
X201001890Y-150387503D01*
X201001887Y-150387507D01*
X200889444Y-150555789D01*
X200889439Y-150555798D01*
X200811986Y-150742788D01*
X200811984Y-150742796D01*
X200772500Y-150941295D01*
X199327499Y-150941295D01*
X199288014Y-150742789D01*
X199210559Y-150555796D01*
X199210558Y-150555795D01*
X199210555Y-150555789D01*
X199098112Y-150387507D01*
X199098109Y-150387503D01*
X198954996Y-150244390D01*
X198954992Y-150244387D01*
X198786710Y-150131944D01*
X198786701Y-150131939D01*
X198599711Y-150054486D01*
X198599703Y-150054484D01*
X198401204Y-150015000D01*
X198401200Y-150015000D01*
X198198800Y-150015000D01*
X198198795Y-150015000D01*
X198000296Y-150054484D01*
X198000288Y-150054486D01*
X197813298Y-150131939D01*
X197813289Y-150131944D01*
X197645007Y-150244387D01*
X197645003Y-150244390D01*
X197501890Y-150387503D01*
X197501887Y-150387507D01*
X197389444Y-150555789D01*
X197389439Y-150555798D01*
X197311986Y-150742788D01*
X197311984Y-150742796D01*
X197272500Y-150941295D01*
X189927499Y-150941295D01*
X189888014Y-150742789D01*
X189810559Y-150555796D01*
X189810558Y-150555795D01*
X189810555Y-150555789D01*
X189698112Y-150387507D01*
X189698109Y-150387503D01*
X189554996Y-150244390D01*
X189554992Y-150244387D01*
X189386710Y-150131944D01*
X189386701Y-150131939D01*
X189199711Y-150054486D01*
X189199703Y-150054484D01*
X189001204Y-150015000D01*
X189001200Y-150015000D01*
X188798800Y-150015000D01*
X188798795Y-150015000D01*
X188600296Y-150054484D01*
X188600288Y-150054486D01*
X188413298Y-150131939D01*
X188413289Y-150131944D01*
X188245007Y-150244387D01*
X188245003Y-150244390D01*
X188101890Y-150387503D01*
X188101887Y-150387507D01*
X187989444Y-150555789D01*
X187989439Y-150555798D01*
X187911986Y-150742788D01*
X187911984Y-150742796D01*
X187872500Y-150941295D01*
X186427499Y-150941295D01*
X186388014Y-150742789D01*
X186310559Y-150555796D01*
X186310558Y-150555795D01*
X186310555Y-150555789D01*
X186198112Y-150387507D01*
X186198109Y-150387503D01*
X186054996Y-150244390D01*
X186054992Y-150244387D01*
X185886710Y-150131944D01*
X185886701Y-150131939D01*
X185699711Y-150054486D01*
X185699703Y-150054484D01*
X185501204Y-150015000D01*
X185501200Y-150015000D01*
X185298800Y-150015000D01*
X185298795Y-150015000D01*
X185100296Y-150054484D01*
X185100288Y-150054486D01*
X184913298Y-150131939D01*
X184913289Y-150131944D01*
X184745007Y-150244387D01*
X184745003Y-150244390D01*
X184601890Y-150387503D01*
X184601887Y-150387507D01*
X184489444Y-150555789D01*
X184489439Y-150555798D01*
X184411986Y-150742788D01*
X184411984Y-150742796D01*
X184372500Y-150941295D01*
X182927499Y-150941295D01*
X182888014Y-150742789D01*
X182810559Y-150555796D01*
X182810558Y-150555795D01*
X182810555Y-150555789D01*
X182698112Y-150387507D01*
X182698109Y-150387503D01*
X182554996Y-150244390D01*
X182554992Y-150244387D01*
X182386710Y-150131944D01*
X182386701Y-150131939D01*
X182199711Y-150054486D01*
X182199703Y-150054484D01*
X182001204Y-150015000D01*
X182001200Y-150015000D01*
X181798800Y-150015000D01*
X181798795Y-150015000D01*
X181600296Y-150054484D01*
X181600288Y-150054486D01*
X181413298Y-150131939D01*
X181413289Y-150131944D01*
X181245007Y-150244387D01*
X181245003Y-150244390D01*
X181101890Y-150387503D01*
X181101887Y-150387507D01*
X180989444Y-150555789D01*
X180989439Y-150555798D01*
X180911986Y-150742788D01*
X180911984Y-150742796D01*
X180872500Y-150941295D01*
X173560400Y-150941295D01*
X173395261Y-150776156D01*
X173190941Y-150627709D01*
X172965914Y-150513051D01*
X172965911Y-150513050D01*
X172725723Y-150435009D01*
X172559425Y-150408669D01*
X172476277Y-150395500D01*
X172223723Y-150395500D01*
X172140575Y-150408669D01*
X171974277Y-150435009D01*
X171974274Y-150435009D01*
X171734088Y-150513050D01*
X171734085Y-150513051D01*
X171509058Y-150627709D01*
X171304736Y-150776158D01*
X171126158Y-150954736D01*
X170977709Y-151159058D01*
X170863051Y-151384085D01*
X170863050Y-151384088D01*
X170785009Y-151624274D01*
X170785009Y-151624277D01*
X170745500Y-151873723D01*
X169254500Y-151873723D01*
X169254500Y-147343087D01*
X188714300Y-147343087D01*
X188714300Y-147456913D01*
X188718055Y-147470926D01*
X188743761Y-147566862D01*
X188743764Y-147566867D01*
X188800669Y-147665431D01*
X188800673Y-147665436D01*
X188800674Y-147665438D01*
X188881162Y-147745926D01*
X188881164Y-147745927D01*
X188881168Y-147745930D01*
X188979732Y-147802835D01*
X188979739Y-147802839D01*
X189089687Y-147832300D01*
X189089689Y-147832300D01*
X189203511Y-147832300D01*
X189203513Y-147832300D01*
X189313461Y-147802839D01*
X189412038Y-147745926D01*
X189492526Y-147665438D01*
X189549439Y-147566861D01*
X189563958Y-147512672D01*
X189600321Y-147453016D01*
X189663168Y-147422486D01*
X189715823Y-147424994D01*
X189743087Y-147432300D01*
X189743089Y-147432300D01*
X189856911Y-147432300D01*
X189856913Y-147432300D01*
X189966861Y-147402839D01*
X190065438Y-147345926D01*
X190145926Y-147265438D01*
X190202839Y-147166861D01*
X190229306Y-147068087D01*
X201367700Y-147068087D01*
X201367700Y-147181913D01*
X201381424Y-147233132D01*
X201397161Y-147291862D01*
X201397164Y-147291867D01*
X201454069Y-147390431D01*
X201454073Y-147390436D01*
X201454074Y-147390438D01*
X201534562Y-147470926D01*
X201534564Y-147470927D01*
X201534568Y-147470930D01*
X201633132Y-147527835D01*
X201633139Y-147527839D01*
X201743087Y-147557300D01*
X201743089Y-147557300D01*
X201856911Y-147557300D01*
X201856913Y-147557300D01*
X201966861Y-147527839D01*
X202065438Y-147470926D01*
X202145926Y-147390438D01*
X202202839Y-147291861D01*
X202232300Y-147181913D01*
X202232300Y-147068087D01*
X202202839Y-146958139D01*
X202173306Y-146906986D01*
X202145930Y-146859568D01*
X202145924Y-146859560D01*
X202065439Y-146779075D01*
X202065431Y-146779069D01*
X201966867Y-146722164D01*
X201966862Y-146722161D01*
X201930211Y-146712340D01*
X201856913Y-146692700D01*
X201743087Y-146692700D01*
X201688113Y-146707430D01*
X201633137Y-146722161D01*
X201633132Y-146722164D01*
X201534568Y-146779069D01*
X201534560Y-146779075D01*
X201454075Y-146859560D01*
X201454069Y-146859568D01*
X201397164Y-146958132D01*
X201397161Y-146958137D01*
X201388508Y-146990431D01*
X201367700Y-147068087D01*
X190229306Y-147068087D01*
X190232300Y-147056913D01*
X190232300Y-146943087D01*
X190202839Y-146833139D01*
X190185478Y-146803068D01*
X190145930Y-146734568D01*
X190145924Y-146734560D01*
X190065439Y-146654075D01*
X190065431Y-146654069D01*
X189966867Y-146597164D01*
X189966862Y-146597161D01*
X189930211Y-146587340D01*
X189856913Y-146567700D01*
X189743087Y-146567700D01*
X189688113Y-146582430D01*
X189633137Y-146597161D01*
X189633132Y-146597164D01*
X189534568Y-146654069D01*
X189534560Y-146654075D01*
X189454075Y-146734560D01*
X189454069Y-146734568D01*
X189397164Y-146833132D01*
X189397159Y-146833143D01*
X189382641Y-146887325D01*
X189346276Y-146946985D01*
X189283429Y-146977513D01*
X189230775Y-146975005D01*
X189203513Y-146967700D01*
X189089687Y-146967700D01*
X189034713Y-146982430D01*
X188979737Y-146997161D01*
X188979732Y-146997164D01*
X188881168Y-147054069D01*
X188881160Y-147054075D01*
X188800675Y-147134560D01*
X188800669Y-147134568D01*
X188743764Y-147233132D01*
X188743761Y-147233137D01*
X188724120Y-147306437D01*
X188714300Y-147343087D01*
X169254500Y-147343087D01*
X169254500Y-146168087D01*
X192792700Y-146168087D01*
X192792700Y-146281913D01*
X192812340Y-146355211D01*
X192822161Y-146391862D01*
X192822164Y-146391867D01*
X192879069Y-146490431D01*
X192879073Y-146490436D01*
X192879074Y-146490438D01*
X192959562Y-146570926D01*
X192959564Y-146570927D01*
X192959568Y-146570930D01*
X193051498Y-146624005D01*
X193058139Y-146627839D01*
X193168087Y-146657300D01*
X193168089Y-146657300D01*
X193281911Y-146657300D01*
X193281913Y-146657300D01*
X193391861Y-146627839D01*
X193490438Y-146570926D01*
X193570926Y-146490438D01*
X193623010Y-146400225D01*
X204861451Y-146400225D01*
X204861451Y-146514051D01*
X204876690Y-146570924D01*
X204890912Y-146624000D01*
X204890915Y-146624005D01*
X204947820Y-146722569D01*
X204947824Y-146722574D01*
X204947825Y-146722576D01*
X205028313Y-146803064D01*
X205028315Y-146803065D01*
X205028319Y-146803068D01*
X205126168Y-146859560D01*
X205126890Y-146859977D01*
X205236838Y-146889438D01*
X205236840Y-146889438D01*
X205350662Y-146889438D01*
X205350664Y-146889438D01*
X205460612Y-146859977D01*
X205559189Y-146803064D01*
X205639677Y-146722576D01*
X205696590Y-146623999D01*
X205726051Y-146514051D01*
X205726051Y-146400225D01*
X205696590Y-146290277D01*
X205691644Y-146281711D01*
X205675172Y-146213812D01*
X205698024Y-146147785D01*
X205737033Y-146112325D01*
X205765438Y-146095926D01*
X205845926Y-146015438D01*
X205867612Y-145977875D01*
X205918179Y-145929660D01*
X205986786Y-145916436D01*
X206051651Y-145942404D01*
X206082387Y-145977875D01*
X206104074Y-146015438D01*
X206184562Y-146095926D01*
X206184564Y-146095927D01*
X206184568Y-146095930D01*
X206274385Y-146147785D01*
X206283139Y-146152839D01*
X206393087Y-146182300D01*
X206393089Y-146182300D01*
X206506911Y-146182300D01*
X206506913Y-146182300D01*
X206616861Y-146152839D01*
X206687344Y-146112146D01*
X207160200Y-146112146D01*
X207160200Y-146259853D01*
X207189012Y-146404701D01*
X207189014Y-146404709D01*
X207245534Y-146541160D01*
X207245539Y-146541170D01*
X207327591Y-146663969D01*
X207327594Y-146663973D01*
X207432026Y-146768405D01*
X207432030Y-146768408D01*
X207554829Y-146850460D01*
X207554833Y-146850462D01*
X207554836Y-146850464D01*
X207691291Y-146906986D01*
X207836146Y-146935799D01*
X207836150Y-146935800D01*
X207836151Y-146935800D01*
X207983850Y-146935800D01*
X207983851Y-146935799D01*
X208128709Y-146906986D01*
X208265164Y-146850464D01*
X208387970Y-146768408D01*
X208488291Y-146668087D01*
X213467700Y-146668087D01*
X213467700Y-146781913D01*
X213473369Y-146803068D01*
X213497161Y-146891862D01*
X213497164Y-146891867D01*
X213554069Y-146990431D01*
X213554073Y-146990436D01*
X213554074Y-146990438D01*
X213634562Y-147070926D01*
X213634564Y-147070927D01*
X213634568Y-147070930D01*
X213733132Y-147127835D01*
X213733139Y-147127839D01*
X213843087Y-147157300D01*
X213843089Y-147157300D01*
X213956911Y-147157300D01*
X213956913Y-147157300D01*
X214066861Y-147127839D01*
X214165438Y-147070926D01*
X214245926Y-146990438D01*
X214302839Y-146891861D01*
X214332300Y-146781913D01*
X214332300Y-146668087D01*
X214302839Y-146558139D01*
X214263753Y-146490439D01*
X214245930Y-146459568D01*
X214245924Y-146459560D01*
X214165439Y-146379075D01*
X214165431Y-146379069D01*
X214066867Y-146322164D01*
X214066862Y-146322161D01*
X214030211Y-146312340D01*
X213956913Y-146292700D01*
X213843087Y-146292700D01*
X213788113Y-146307430D01*
X213733137Y-146322161D01*
X213733132Y-146322164D01*
X213634568Y-146379069D01*
X213634560Y-146379075D01*
X213554075Y-146459560D01*
X213554069Y-146459568D01*
X213497164Y-146558132D01*
X213497161Y-146558137D01*
X213479513Y-146624000D01*
X213467700Y-146668087D01*
X208488291Y-146668087D01*
X208492408Y-146663970D01*
X208519116Y-146623999D01*
X208541120Y-146591068D01*
X208574460Y-146541170D01*
X208574460Y-146541169D01*
X208574464Y-146541164D01*
X208630986Y-146404709D01*
X208659800Y-146259849D01*
X208659800Y-146112151D01*
X208630986Y-145967291D01*
X208574464Y-145830836D01*
X208574462Y-145830833D01*
X208574460Y-145830829D01*
X208492408Y-145708030D01*
X208492405Y-145708026D01*
X208387973Y-145603594D01*
X208387969Y-145603591D01*
X208265170Y-145521539D01*
X208265160Y-145521534D01*
X208128709Y-145465014D01*
X208128701Y-145465012D01*
X207983853Y-145436200D01*
X207983849Y-145436200D01*
X207836151Y-145436200D01*
X207836146Y-145436200D01*
X207691298Y-145465012D01*
X207691290Y-145465014D01*
X207554839Y-145521534D01*
X207554829Y-145521539D01*
X207432030Y-145603591D01*
X207432026Y-145603594D01*
X207327594Y-145708026D01*
X207327591Y-145708030D01*
X207245539Y-145830829D01*
X207245534Y-145830839D01*
X207189014Y-145967290D01*
X207189012Y-145967298D01*
X207160200Y-146112146D01*
X206687344Y-146112146D01*
X206715438Y-146095926D01*
X206795926Y-146015438D01*
X206852839Y-145916861D01*
X206882300Y-145806913D01*
X206882300Y-145693087D01*
X206852839Y-145583139D01*
X206819371Y-145525170D01*
X206795930Y-145484568D01*
X206795924Y-145484560D01*
X206715439Y-145404075D01*
X206715431Y-145404069D01*
X206616867Y-145347164D01*
X206616862Y-145347161D01*
X206580211Y-145337340D01*
X206506913Y-145317700D01*
X206393087Y-145317700D01*
X206338113Y-145332430D01*
X206283137Y-145347161D01*
X206283132Y-145347164D01*
X206184568Y-145404069D01*
X206184560Y-145404075D01*
X206104075Y-145484560D01*
X206104071Y-145484565D01*
X206082387Y-145522124D01*
X206031820Y-145570340D01*
X205963213Y-145583562D01*
X205898348Y-145557594D01*
X205867613Y-145522124D01*
X205845928Y-145484565D01*
X205845924Y-145484560D01*
X205765439Y-145404075D01*
X205765431Y-145404069D01*
X205666867Y-145347164D01*
X205666862Y-145347161D01*
X205630211Y-145337340D01*
X205556913Y-145317700D01*
X205443087Y-145317700D01*
X205388113Y-145332430D01*
X205333137Y-145347161D01*
X205333132Y-145347164D01*
X205234568Y-145404069D01*
X205234560Y-145404075D01*
X205154075Y-145484560D01*
X205154069Y-145484568D01*
X205097164Y-145583132D01*
X205097161Y-145583137D01*
X205079789Y-145647970D01*
X205067700Y-145693087D01*
X205067700Y-145806913D01*
X205097161Y-145916861D01*
X205102105Y-145925425D01*
X205118578Y-145993323D01*
X205095726Y-146059350D01*
X205056720Y-146094810D01*
X205028316Y-146111209D01*
X205028311Y-146111213D01*
X204947826Y-146191698D01*
X204947820Y-146191706D01*
X204890915Y-146290270D01*
X204890912Y-146290275D01*
X204872229Y-146360003D01*
X204861451Y-146400225D01*
X193623010Y-146400225D01*
X193627839Y-146391861D01*
X193657300Y-146281913D01*
X193657300Y-146168087D01*
X193627839Y-146058139D01*
X193625622Y-146054299D01*
X193570930Y-145959568D01*
X193570924Y-145959560D01*
X193490439Y-145879075D01*
X193490431Y-145879069D01*
X193391867Y-145822164D01*
X193391862Y-145822161D01*
X193367803Y-145815714D01*
X193281913Y-145792700D01*
X193168087Y-145792700D01*
X193115052Y-145806911D01*
X193058137Y-145822161D01*
X193058132Y-145822164D01*
X192959568Y-145879069D01*
X192959560Y-145879075D01*
X192879075Y-145959560D01*
X192879069Y-145959568D01*
X192822164Y-146058132D01*
X192822161Y-146058137D01*
X192807688Y-146112151D01*
X192792700Y-146168087D01*
X169254500Y-146168087D01*
X169254500Y-145693087D01*
X199492700Y-145693087D01*
X199492700Y-145806913D01*
X199500083Y-145834465D01*
X199522161Y-145916862D01*
X199522164Y-145916867D01*
X199579069Y-146015431D01*
X199579073Y-146015436D01*
X199579074Y-146015438D01*
X199659562Y-146095926D01*
X199659564Y-146095927D01*
X199659568Y-146095930D01*
X199749385Y-146147785D01*
X199758139Y-146152839D01*
X199868087Y-146182300D01*
X199868089Y-146182300D01*
X199981911Y-146182300D01*
X199981913Y-146182300D01*
X200091861Y-146152839D01*
X200190438Y-146095926D01*
X200270926Y-146015438D01*
X200327839Y-145916861D01*
X200357300Y-145806913D01*
X200357300Y-145693087D01*
X200327839Y-145583139D01*
X200294371Y-145525170D01*
X200270930Y-145484568D01*
X200270924Y-145484560D01*
X200190439Y-145404075D01*
X200190431Y-145404069D01*
X200091867Y-145347164D01*
X200091862Y-145347161D01*
X200055211Y-145337340D01*
X199981913Y-145317700D01*
X199868087Y-145317700D01*
X199813113Y-145332430D01*
X199758137Y-145347161D01*
X199758132Y-145347164D01*
X199659568Y-145404069D01*
X199659560Y-145404075D01*
X199579075Y-145484560D01*
X199579069Y-145484568D01*
X199522164Y-145583132D01*
X199522161Y-145583137D01*
X199504789Y-145647970D01*
X199492700Y-145693087D01*
X169254500Y-145693087D01*
X169254500Y-145096146D01*
X212240200Y-145096146D01*
X212240200Y-145243853D01*
X212269012Y-145388701D01*
X212269014Y-145388709D01*
X212325534Y-145525160D01*
X212325539Y-145525170D01*
X212407591Y-145647969D01*
X212407594Y-145647973D01*
X212512026Y-145752405D01*
X212512030Y-145752408D01*
X212634829Y-145834460D01*
X212634833Y-145834462D01*
X212634836Y-145834464D01*
X212771291Y-145890986D01*
X212901406Y-145916867D01*
X212916146Y-145919799D01*
X212916150Y-145919800D01*
X212916151Y-145919800D01*
X213063850Y-145919800D01*
X213063851Y-145919799D01*
X213208709Y-145890986D01*
X213345164Y-145834464D01*
X213467970Y-145752408D01*
X213572408Y-145647970D01*
X213654464Y-145525164D01*
X213710986Y-145388709D01*
X213739800Y-145243849D01*
X213739800Y-145096151D01*
X213710986Y-144951291D01*
X213654464Y-144814836D01*
X213654462Y-144814833D01*
X213654460Y-144814829D01*
X213572408Y-144692030D01*
X213572405Y-144692026D01*
X213467972Y-144587593D01*
X213442441Y-144570534D01*
X213412489Y-144550521D01*
X213367684Y-144496910D01*
X213358977Y-144427585D01*
X213389131Y-144364557D01*
X213448574Y-144327837D01*
X213449017Y-144327716D01*
X213541861Y-144302839D01*
X213640438Y-144245926D01*
X213720926Y-144165438D01*
X213777839Y-144066861D01*
X213807300Y-143956913D01*
X213807300Y-143843087D01*
X213777839Y-143733139D01*
X213754008Y-143691862D01*
X213720930Y-143634568D01*
X213720924Y-143634560D01*
X213640439Y-143554075D01*
X213640431Y-143554069D01*
X213541867Y-143497164D01*
X213541862Y-143497161D01*
X213505211Y-143487340D01*
X213431913Y-143467700D01*
X213318087Y-143467700D01*
X213263113Y-143482430D01*
X213208137Y-143497161D01*
X213208132Y-143497164D01*
X213109568Y-143554069D01*
X213109560Y-143554075D01*
X213029075Y-143634560D01*
X213029069Y-143634568D01*
X212972164Y-143733132D01*
X212972161Y-143733137D01*
X212956807Y-143790439D01*
X212942700Y-143843087D01*
X212942700Y-143956913D01*
X212944985Y-143965439D01*
X212972161Y-144066862D01*
X212972164Y-144066867D01*
X213029069Y-144165431D01*
X213029075Y-144165439D01*
X213072155Y-144208519D01*
X213105640Y-144269842D01*
X213100656Y-144339534D01*
X213058784Y-144395467D01*
X212993320Y-144419884D01*
X212984474Y-144420200D01*
X212916146Y-144420200D01*
X212771298Y-144449012D01*
X212771290Y-144449014D01*
X212634839Y-144505534D01*
X212634829Y-144505539D01*
X212512030Y-144587591D01*
X212512026Y-144587594D01*
X212407594Y-144692026D01*
X212407591Y-144692030D01*
X212325539Y-144814829D01*
X212325534Y-144814839D01*
X212269014Y-144951290D01*
X212269012Y-144951298D01*
X212240200Y-145096146D01*
X169254500Y-145096146D01*
X169254500Y-144293087D01*
X198717700Y-144293087D01*
X198717700Y-144406913D01*
X198728981Y-144449012D01*
X198747161Y-144516862D01*
X198747164Y-144516867D01*
X198804069Y-144615431D01*
X198804073Y-144615436D01*
X198804074Y-144615438D01*
X198884562Y-144695926D01*
X198884564Y-144695927D01*
X198884568Y-144695930D01*
X198954674Y-144736405D01*
X198983139Y-144752839D01*
X199093087Y-144782300D01*
X199093089Y-144782300D01*
X199206911Y-144782300D01*
X199206913Y-144782300D01*
X199316861Y-144752839D01*
X199415438Y-144695926D01*
X199495926Y-144615438D01*
X199552839Y-144516861D01*
X199582300Y-144406913D01*
X199582300Y-144293087D01*
X199552839Y-144183139D01*
X199525657Y-144136058D01*
X199525657Y-144136057D01*
X199495297Y-144083472D01*
X199494490Y-144080146D01*
X207160200Y-144080146D01*
X207160200Y-144227853D01*
X207189012Y-144372701D01*
X207189014Y-144372709D01*
X207245534Y-144509160D01*
X207245539Y-144509170D01*
X207327591Y-144631969D01*
X207327594Y-144631973D01*
X207432026Y-144736405D01*
X207432030Y-144736408D01*
X207554829Y-144818460D01*
X207554833Y-144818462D01*
X207554836Y-144818464D01*
X207691291Y-144874986D01*
X207836146Y-144903799D01*
X207836150Y-144903800D01*
X207836151Y-144903800D01*
X207983850Y-144903800D01*
X207983851Y-144903799D01*
X208128709Y-144874986D01*
X208265164Y-144818464D01*
X208387970Y-144736408D01*
X208492408Y-144631970D01*
X208574464Y-144509164D01*
X208630986Y-144372709D01*
X208659800Y-144227849D01*
X208659800Y-144080151D01*
X208630986Y-143935291D01*
X208574464Y-143798836D01*
X208574462Y-143798833D01*
X208574460Y-143798829D01*
X208510997Y-143703850D01*
X208492408Y-143676029D01*
X208459466Y-143643087D01*
X210017700Y-143643087D01*
X210017700Y-143756913D01*
X210028934Y-143798839D01*
X210047161Y-143866862D01*
X210047164Y-143866867D01*
X210104069Y-143965431D01*
X210104073Y-143965436D01*
X210104074Y-143965438D01*
X210184562Y-144045926D01*
X210184564Y-144045927D01*
X210184568Y-144045930D01*
X210251482Y-144084562D01*
X210283139Y-144102839D01*
X210393087Y-144132300D01*
X210393089Y-144132300D01*
X210506911Y-144132300D01*
X210506913Y-144132300D01*
X210616861Y-144102839D01*
X210715438Y-144045926D01*
X210795926Y-143965438D01*
X210852839Y-143866861D01*
X210882300Y-143756913D01*
X210882300Y-143643087D01*
X211292700Y-143643087D01*
X211292700Y-143756913D01*
X211303934Y-143798839D01*
X211322161Y-143866862D01*
X211322164Y-143866867D01*
X211379069Y-143965431D01*
X211379073Y-143965436D01*
X211379074Y-143965438D01*
X211459562Y-144045926D01*
X211459564Y-144045927D01*
X211459568Y-144045930D01*
X211526482Y-144084562D01*
X211558139Y-144102839D01*
X211668087Y-144132300D01*
X211668089Y-144132300D01*
X211781911Y-144132300D01*
X211781913Y-144132300D01*
X211891861Y-144102839D01*
X211990438Y-144045926D01*
X212070926Y-143965438D01*
X212127839Y-143866861D01*
X212157300Y-143756913D01*
X212157300Y-143643087D01*
X212127839Y-143533139D01*
X212090058Y-143467700D01*
X212070930Y-143434568D01*
X212070924Y-143434560D01*
X211990439Y-143354075D01*
X211990431Y-143354069D01*
X211891867Y-143297164D01*
X211891862Y-143297161D01*
X211855211Y-143287340D01*
X211781913Y-143267700D01*
X211668087Y-143267700D01*
X211613113Y-143282430D01*
X211558137Y-143297161D01*
X211558132Y-143297164D01*
X211459568Y-143354069D01*
X211459560Y-143354075D01*
X211379075Y-143434560D01*
X211379069Y-143434568D01*
X211322164Y-143533132D01*
X211322161Y-143533137D01*
X211311857Y-143571592D01*
X211292700Y-143643087D01*
X210882300Y-143643087D01*
X210852839Y-143533139D01*
X210815058Y-143467700D01*
X210795930Y-143434568D01*
X210795924Y-143434560D01*
X210715439Y-143354075D01*
X210715431Y-143354069D01*
X210616867Y-143297164D01*
X210616862Y-143297161D01*
X210580211Y-143287340D01*
X210506913Y-143267700D01*
X210393087Y-143267700D01*
X210338113Y-143282430D01*
X210283137Y-143297161D01*
X210283132Y-143297164D01*
X210184568Y-143354069D01*
X210184560Y-143354075D01*
X210104075Y-143434560D01*
X210104069Y-143434568D01*
X210047164Y-143533132D01*
X210047161Y-143533137D01*
X210036857Y-143571592D01*
X210017700Y-143643087D01*
X208459466Y-143643087D01*
X208387973Y-143571594D01*
X208387969Y-143571591D01*
X208265170Y-143489539D01*
X208265160Y-143489534D01*
X208128709Y-143433014D01*
X208128701Y-143433012D01*
X207983853Y-143404200D01*
X207983849Y-143404200D01*
X207836151Y-143404200D01*
X207836146Y-143404200D01*
X207691298Y-143433012D01*
X207691290Y-143433014D01*
X207554839Y-143489534D01*
X207554829Y-143489539D01*
X207432030Y-143571591D01*
X207432026Y-143571594D01*
X207327594Y-143676026D01*
X207327591Y-143676030D01*
X207245539Y-143798829D01*
X207245534Y-143798839D01*
X207189014Y-143935290D01*
X207189012Y-143935298D01*
X207160200Y-144080146D01*
X199494490Y-144080146D01*
X199478824Y-144015572D01*
X199501677Y-143949545D01*
X199540684Y-143914084D01*
X199615438Y-143870926D01*
X199695926Y-143790438D01*
X199752839Y-143691861D01*
X199782300Y-143581913D01*
X199782300Y-143468087D01*
X199752839Y-143358139D01*
X199750489Y-143354069D01*
X199695930Y-143259568D01*
X199695924Y-143259560D01*
X199615439Y-143179075D01*
X199615431Y-143179069D01*
X199516867Y-143122164D01*
X199516862Y-143122161D01*
X199480211Y-143112340D01*
X199406913Y-143092700D01*
X199293087Y-143092700D01*
X199238113Y-143107430D01*
X199183137Y-143122161D01*
X199183132Y-143122164D01*
X199084568Y-143179069D01*
X199084560Y-143179075D01*
X199004075Y-143259560D01*
X199004069Y-143259568D01*
X198947164Y-143358132D01*
X198947161Y-143358137D01*
X198934819Y-143404200D01*
X198917700Y-143468087D01*
X198917700Y-143581913D01*
X198931807Y-143634560D01*
X198947161Y-143691861D01*
X199004703Y-143791528D01*
X199021175Y-143859428D01*
X198998322Y-143925455D01*
X198959316Y-143960914D01*
X198884563Y-144004073D01*
X198884560Y-144004075D01*
X198804075Y-144084560D01*
X198804069Y-144084568D01*
X198747164Y-144183132D01*
X198747161Y-144183137D01*
X198730337Y-144245926D01*
X198717700Y-144293087D01*
X169254500Y-144293087D01*
X169254500Y-142474687D01*
X207792700Y-142474687D01*
X207792700Y-142588513D01*
X207812340Y-142661811D01*
X207822161Y-142698462D01*
X207822164Y-142698467D01*
X207879069Y-142797031D01*
X207879073Y-142797036D01*
X207879074Y-142797038D01*
X207959562Y-142877526D01*
X207959564Y-142877527D01*
X207959568Y-142877530D01*
X208058132Y-142934435D01*
X208058139Y-142934439D01*
X208168087Y-142963900D01*
X208168089Y-142963900D01*
X208281911Y-142963900D01*
X208281913Y-142963900D01*
X208391861Y-142934439D01*
X208490438Y-142877526D01*
X208570926Y-142797038D01*
X208627839Y-142698461D01*
X208657300Y-142588513D01*
X208657300Y-142474687D01*
X208627839Y-142364739D01*
X208627835Y-142364732D01*
X208570930Y-142266168D01*
X208570924Y-142266160D01*
X208490439Y-142185675D01*
X208490431Y-142185669D01*
X208391867Y-142128764D01*
X208391862Y-142128761D01*
X208355211Y-142118940D01*
X208281913Y-142099300D01*
X208168087Y-142099300D01*
X208113113Y-142114030D01*
X208058137Y-142128761D01*
X208058132Y-142128764D01*
X207959568Y-142185669D01*
X207959560Y-142185675D01*
X207879075Y-142266160D01*
X207879069Y-142266168D01*
X207822164Y-142364732D01*
X207822161Y-142364737D01*
X207802520Y-142438037D01*
X207792700Y-142474687D01*
X169254500Y-142474687D01*
X169254500Y-141318087D01*
X203792700Y-141318087D01*
X203792700Y-141431913D01*
X203792804Y-141432300D01*
X203822161Y-141541862D01*
X203822164Y-141541867D01*
X203879069Y-141640431D01*
X203879073Y-141640436D01*
X203879074Y-141640438D01*
X203959562Y-141720926D01*
X203959564Y-141720927D01*
X203959568Y-141720930D01*
X204058132Y-141777835D01*
X204058139Y-141777839D01*
X204168087Y-141807300D01*
X204168089Y-141807300D01*
X204281911Y-141807300D01*
X204281913Y-141807300D01*
X204391861Y-141777839D01*
X204490438Y-141720926D01*
X204570926Y-141640438D01*
X204627839Y-141541861D01*
X204657300Y-141431913D01*
X204657300Y-141318087D01*
X204627839Y-141208139D01*
X204604008Y-141166862D01*
X204570930Y-141109568D01*
X204570924Y-141109560D01*
X204490439Y-141029075D01*
X204490431Y-141029069D01*
X204391867Y-140972164D01*
X204391862Y-140972161D01*
X204355211Y-140962340D01*
X204281913Y-140942700D01*
X204168087Y-140942700D01*
X204113113Y-140957430D01*
X204058137Y-140972161D01*
X204058132Y-140972164D01*
X203959568Y-141029069D01*
X203959560Y-141029075D01*
X203879075Y-141109560D01*
X203879069Y-141109568D01*
X203822164Y-141208132D01*
X203822161Y-141208137D01*
X203806807Y-141265439D01*
X203792700Y-141318087D01*
X169254500Y-141318087D01*
X169254500Y-139978087D01*
X175067700Y-139978087D01*
X175067700Y-140091913D01*
X175082504Y-140147161D01*
X175097161Y-140201862D01*
X175097164Y-140201867D01*
X175154069Y-140300431D01*
X175154073Y-140300436D01*
X175154074Y-140300438D01*
X175234562Y-140380926D01*
X175234564Y-140380927D01*
X175234568Y-140380930D01*
X175279573Y-140406913D01*
X175333139Y-140437839D01*
X175443087Y-140467300D01*
X175443089Y-140467300D01*
X175556911Y-140467300D01*
X175556913Y-140467300D01*
X175666861Y-140437839D01*
X175765438Y-140380926D01*
X175774819Y-140371545D01*
X175836142Y-140338060D01*
X175905834Y-140343044D01*
X175950181Y-140371545D01*
X175959562Y-140380926D01*
X175959564Y-140380927D01*
X175959568Y-140380930D01*
X176004573Y-140406913D01*
X176058139Y-140437839D01*
X176168087Y-140467300D01*
X176168089Y-140467300D01*
X176281911Y-140467300D01*
X176281913Y-140467300D01*
X176391861Y-140437839D01*
X176490438Y-140380926D01*
X176499819Y-140371545D01*
X176561142Y-140338060D01*
X176630834Y-140343044D01*
X176675181Y-140371545D01*
X176684562Y-140380926D01*
X176684564Y-140380927D01*
X176684568Y-140380930D01*
X176729573Y-140406913D01*
X176783139Y-140437839D01*
X176893087Y-140467300D01*
X176893089Y-140467300D01*
X177006911Y-140467300D01*
X177006913Y-140467300D01*
X177116861Y-140437839D01*
X177215438Y-140380926D01*
X177295926Y-140300438D01*
X177352839Y-140201861D01*
X177382300Y-140091913D01*
X177382300Y-139978087D01*
X177352839Y-139868139D01*
X177316493Y-139805185D01*
X177295930Y-139769568D01*
X177295924Y-139769560D01*
X177215439Y-139689075D01*
X177215431Y-139689069D01*
X177116867Y-139632164D01*
X177116862Y-139632161D01*
X177080211Y-139622340D01*
X177006913Y-139602700D01*
X176893087Y-139602700D01*
X176839578Y-139617038D01*
X176783137Y-139632161D01*
X176783132Y-139632164D01*
X176684568Y-139689069D01*
X176684560Y-139689075D01*
X176675181Y-139698455D01*
X176613858Y-139731940D01*
X176544166Y-139726956D01*
X176499819Y-139698455D01*
X176490439Y-139689075D01*
X176490431Y-139689069D01*
X176391867Y-139632164D01*
X176391862Y-139632161D01*
X176355211Y-139622340D01*
X176281913Y-139602700D01*
X176168087Y-139602700D01*
X176114578Y-139617038D01*
X176058137Y-139632161D01*
X176058132Y-139632164D01*
X175959568Y-139689069D01*
X175959560Y-139689075D01*
X175950181Y-139698455D01*
X175888858Y-139731940D01*
X175819166Y-139726956D01*
X175774819Y-139698455D01*
X175765439Y-139689075D01*
X175765431Y-139689069D01*
X175666867Y-139632164D01*
X175666862Y-139632161D01*
X175630211Y-139622340D01*
X175556913Y-139602700D01*
X175443087Y-139602700D01*
X175389578Y-139617038D01*
X175333137Y-139632161D01*
X175333132Y-139632164D01*
X175234568Y-139689069D01*
X175234560Y-139689075D01*
X175154075Y-139769560D01*
X175154069Y-139769568D01*
X175097164Y-139868132D01*
X175097161Y-139868137D01*
X175083015Y-139920930D01*
X175067700Y-139978087D01*
X169254500Y-139978087D01*
X169254500Y-137828087D01*
X179892700Y-137828087D01*
X179892700Y-137941913D01*
X179916598Y-138031099D01*
X179922161Y-138051861D01*
X179970450Y-138135501D01*
X179986922Y-138203401D01*
X179970450Y-138259499D01*
X179922161Y-138343138D01*
X179922161Y-138343139D01*
X179892700Y-138453087D01*
X179892700Y-138566913D01*
X179914132Y-138646897D01*
X179922161Y-138676861D01*
X179970450Y-138760501D01*
X179986922Y-138828401D01*
X179970450Y-138884499D01*
X179922161Y-138968138D01*
X179922161Y-138968139D01*
X179892700Y-139078087D01*
X179892700Y-139191913D01*
X179902658Y-139229075D01*
X179922161Y-139301861D01*
X179970450Y-139385501D01*
X179986922Y-139453401D01*
X179970450Y-139509499D01*
X179922161Y-139593138D01*
X179911772Y-139631911D01*
X179892700Y-139703087D01*
X179892700Y-139816913D01*
X179919706Y-139917700D01*
X179922161Y-139926861D01*
X179970450Y-140010501D01*
X179986922Y-140078401D01*
X179970450Y-140134499D01*
X179922161Y-140218138D01*
X179922161Y-140218139D01*
X179892700Y-140328087D01*
X179892700Y-140441913D01*
X179910117Y-140506913D01*
X179922161Y-140551862D01*
X179922164Y-140551867D01*
X179979069Y-140650431D01*
X179979073Y-140650436D01*
X179979074Y-140650438D01*
X180059562Y-140730926D01*
X180059564Y-140730927D01*
X180059568Y-140730930D01*
X180148545Y-140782300D01*
X180158139Y-140787839D01*
X180268087Y-140817300D01*
X180268089Y-140817300D01*
X180381911Y-140817300D01*
X180381913Y-140817300D01*
X180491861Y-140787839D01*
X180590438Y-140730926D01*
X180670926Y-140650438D01*
X180727839Y-140551861D01*
X180743588Y-140493087D01*
X182867700Y-140493087D01*
X182867700Y-140606913D01*
X182879361Y-140650431D01*
X182897161Y-140716862D01*
X182897164Y-140716867D01*
X182954069Y-140815431D01*
X182954073Y-140815436D01*
X182954074Y-140815438D01*
X183034562Y-140895926D01*
X183034564Y-140895927D01*
X183034568Y-140895930D01*
X183116251Y-140943089D01*
X183133139Y-140952839D01*
X183243087Y-140982300D01*
X183243089Y-140982300D01*
X183356911Y-140982300D01*
X183356913Y-140982300D01*
X183466861Y-140952839D01*
X183565438Y-140895926D01*
X183645926Y-140815438D01*
X183702839Y-140716861D01*
X183732300Y-140606913D01*
X183732300Y-140493087D01*
X183705505Y-140393087D01*
X193517700Y-140393087D01*
X193517700Y-140506913D01*
X193529744Y-140551861D01*
X193547161Y-140616862D01*
X193547164Y-140616867D01*
X193604069Y-140715431D01*
X193604073Y-140715436D01*
X193604074Y-140715438D01*
X193684562Y-140795926D01*
X193684564Y-140795927D01*
X193684568Y-140795930D01*
X193749017Y-140833139D01*
X193783139Y-140852839D01*
X193893087Y-140882300D01*
X193893089Y-140882300D01*
X194006911Y-140882300D01*
X194006913Y-140882300D01*
X194116861Y-140852839D01*
X194215438Y-140795926D01*
X194295926Y-140715438D01*
X194352839Y-140616861D01*
X194382300Y-140506913D01*
X194382300Y-140393087D01*
X194355505Y-140293087D01*
X214717700Y-140293087D01*
X214717700Y-140406913D01*
X214730013Y-140452865D01*
X214747161Y-140516862D01*
X214747164Y-140516867D01*
X214804069Y-140615431D01*
X214804073Y-140615436D01*
X214804074Y-140615438D01*
X214884562Y-140695926D01*
X214884564Y-140695927D01*
X214884568Y-140695930D01*
X214951482Y-140734562D01*
X214983139Y-140752839D01*
X215093087Y-140782300D01*
X215093089Y-140782300D01*
X215099183Y-140782300D01*
X215166222Y-140801985D01*
X215211977Y-140854789D01*
X215221921Y-140923947D01*
X215218960Y-140938382D01*
X215217700Y-140943087D01*
X215217700Y-141056913D01*
X215231807Y-141109560D01*
X215247161Y-141166862D01*
X215247164Y-141166867D01*
X215304069Y-141265431D01*
X215304073Y-141265436D01*
X215304074Y-141265438D01*
X215384562Y-141345926D01*
X215384564Y-141345927D01*
X215384568Y-141345930D01*
X215483132Y-141402835D01*
X215483139Y-141402839D01*
X215593087Y-141432300D01*
X215593089Y-141432300D01*
X215706911Y-141432300D01*
X215706913Y-141432300D01*
X215816861Y-141402839D01*
X215915438Y-141345926D01*
X215995926Y-141265438D01*
X216052839Y-141166861D01*
X216082300Y-141056913D01*
X216082300Y-140943087D01*
X216052839Y-140833139D01*
X216052835Y-140833132D01*
X215995930Y-140734568D01*
X215995924Y-140734560D01*
X215915439Y-140654075D01*
X215915431Y-140654069D01*
X215816867Y-140597164D01*
X215816862Y-140597161D01*
X215780211Y-140587340D01*
X215706913Y-140567700D01*
X215700817Y-140567700D01*
X215633778Y-140548015D01*
X215588023Y-140495211D01*
X215578079Y-140426053D01*
X215581039Y-140411617D01*
X215582300Y-140406913D01*
X215582300Y-140293087D01*
X215552839Y-140183139D01*
X215532067Y-140147161D01*
X215495930Y-140084568D01*
X215495924Y-140084560D01*
X215415439Y-140004075D01*
X215415431Y-140004069D01*
X215316867Y-139947164D01*
X215316862Y-139947161D01*
X215280211Y-139937340D01*
X215206913Y-139917700D01*
X215093087Y-139917700D01*
X215038113Y-139932430D01*
X214983137Y-139947161D01*
X214983132Y-139947164D01*
X214884568Y-140004069D01*
X214884560Y-140004075D01*
X214804075Y-140084560D01*
X214804069Y-140084568D01*
X214747164Y-140183132D01*
X214747161Y-140183137D01*
X214727520Y-140256437D01*
X214717700Y-140293087D01*
X194355505Y-140293087D01*
X194352839Y-140283139D01*
X194315311Y-140218138D01*
X194295930Y-140184568D01*
X194295924Y-140184560D01*
X194215439Y-140104075D01*
X194215431Y-140104069D01*
X194116867Y-140047164D01*
X194116862Y-140047161D01*
X194080211Y-140037340D01*
X194006913Y-140017700D01*
X193893087Y-140017700D01*
X193851069Y-140028959D01*
X193783137Y-140047161D01*
X193783132Y-140047164D01*
X193684568Y-140104069D01*
X193684560Y-140104075D01*
X193604075Y-140184560D01*
X193604069Y-140184568D01*
X193547164Y-140283132D01*
X193547161Y-140283137D01*
X193535117Y-140328087D01*
X193517700Y-140393087D01*
X183705505Y-140393087D01*
X183702839Y-140383139D01*
X183696145Y-140371545D01*
X183645930Y-140284568D01*
X183645924Y-140284560D01*
X183565439Y-140204075D01*
X183565431Y-140204069D01*
X183466867Y-140147164D01*
X183466862Y-140147161D01*
X183419610Y-140134500D01*
X183356913Y-140117700D01*
X183243087Y-140117700D01*
X183188113Y-140132430D01*
X183133137Y-140147161D01*
X183133132Y-140147164D01*
X183034568Y-140204069D01*
X183034560Y-140204075D01*
X182954075Y-140284560D01*
X182954069Y-140284568D01*
X182897164Y-140383132D01*
X182897161Y-140383137D01*
X182889533Y-140411605D01*
X182867700Y-140493087D01*
X180743588Y-140493087D01*
X180757300Y-140441913D01*
X180757300Y-140328087D01*
X180727839Y-140218139D01*
X180679549Y-140134498D01*
X180663077Y-140066600D01*
X180679550Y-140010500D01*
X180727839Y-139926861D01*
X180757300Y-139816913D01*
X180757300Y-139805184D01*
X190318553Y-139805184D01*
X190318553Y-139919010D01*
X190334383Y-139978087D01*
X190348014Y-140028959D01*
X190348017Y-140028964D01*
X190404922Y-140127528D01*
X190404926Y-140127533D01*
X190404927Y-140127535D01*
X190485415Y-140208023D01*
X190485417Y-140208024D01*
X190485421Y-140208027D01*
X190583985Y-140264932D01*
X190583992Y-140264936D01*
X190693940Y-140294397D01*
X190693942Y-140294397D01*
X190807764Y-140294397D01*
X190807766Y-140294397D01*
X190917714Y-140264936D01*
X191016291Y-140208023D01*
X191096779Y-140127535D01*
X191153692Y-140028958D01*
X191183153Y-139919010D01*
X191183153Y-139805184D01*
X191153692Y-139695236D01*
X191100267Y-139602700D01*
X191096783Y-139596665D01*
X191096777Y-139596657D01*
X191016292Y-139516172D01*
X191016284Y-139516166D01*
X190993850Y-139503214D01*
X195364500Y-139503214D01*
X195364500Y-139617040D01*
X195368552Y-139632161D01*
X195393961Y-139726989D01*
X195393964Y-139726994D01*
X195450869Y-139825558D01*
X195450873Y-139825563D01*
X195450874Y-139825565D01*
X195531362Y-139906053D01*
X195531364Y-139906054D01*
X195531368Y-139906057D01*
X195602569Y-139947164D01*
X195629939Y-139962966D01*
X195739887Y-139992427D01*
X195739889Y-139992427D01*
X195853711Y-139992427D01*
X195853713Y-139992427D01*
X195963661Y-139962966D01*
X196062238Y-139906053D01*
X196142726Y-139825565D01*
X196199639Y-139726988D01*
X196229100Y-139617040D01*
X196229100Y-139503214D01*
X196199639Y-139393266D01*
X196195155Y-139385500D01*
X196142730Y-139294695D01*
X196142724Y-139294687D01*
X196062239Y-139214202D01*
X196062231Y-139214196D01*
X195963667Y-139157291D01*
X195963662Y-139157288D01*
X195927011Y-139147467D01*
X195853713Y-139127827D01*
X195739887Y-139127827D01*
X195692267Y-139140587D01*
X195629937Y-139157288D01*
X195629932Y-139157291D01*
X195531368Y-139214196D01*
X195531360Y-139214202D01*
X195450875Y-139294687D01*
X195450869Y-139294695D01*
X195393964Y-139393259D01*
X195393961Y-139393264D01*
X195376278Y-139459258D01*
X195364500Y-139503214D01*
X190993850Y-139503214D01*
X190917720Y-139459261D01*
X190917715Y-139459258D01*
X190873833Y-139447500D01*
X190807766Y-139429797D01*
X190693940Y-139429797D01*
X190638966Y-139444527D01*
X190583990Y-139459258D01*
X190583985Y-139459261D01*
X190485421Y-139516166D01*
X190485413Y-139516172D01*
X190404928Y-139596657D01*
X190404922Y-139596665D01*
X190348017Y-139695229D01*
X190348014Y-139695234D01*
X190335520Y-139741862D01*
X190318553Y-139805184D01*
X180757300Y-139805184D01*
X180757300Y-139703087D01*
X180727839Y-139593139D01*
X180679549Y-139509498D01*
X180663077Y-139441600D01*
X180679550Y-139385500D01*
X180691425Y-139364932D01*
X180727839Y-139301861D01*
X180757300Y-139191913D01*
X180757300Y-139078087D01*
X180727839Y-138968139D01*
X180679549Y-138884498D01*
X180676719Y-138872834D01*
X180669756Y-138863055D01*
X180668634Y-138839508D01*
X180663077Y-138816600D01*
X180666920Y-138803510D01*
X180666817Y-138801338D01*
X181130113Y-138801338D01*
X181130113Y-138915164D01*
X181149753Y-138988462D01*
X181159574Y-139025113D01*
X181159577Y-139025118D01*
X181216482Y-139123682D01*
X181216486Y-139123687D01*
X181216487Y-139123689D01*
X181296975Y-139204177D01*
X181296977Y-139204178D01*
X181296981Y-139204181D01*
X181395545Y-139261086D01*
X181395552Y-139261090D01*
X181505500Y-139290551D01*
X181505502Y-139290551D01*
X181619324Y-139290551D01*
X181619326Y-139290551D01*
X181729274Y-139261090D01*
X181827851Y-139204177D01*
X181873457Y-139158570D01*
X181934778Y-139125086D01*
X182004469Y-139130070D01*
X182023453Y-139140587D01*
X182024045Y-139139563D01*
X182125386Y-139198071D01*
X182129661Y-139200539D01*
X182239609Y-139230000D01*
X182239611Y-139230000D01*
X182353433Y-139230000D01*
X182353435Y-139230000D01*
X182463383Y-139200539D01*
X182561960Y-139143626D01*
X182642448Y-139063138D01*
X182699361Y-138964561D01*
X182728822Y-138854613D01*
X182728822Y-138740787D01*
X182699361Y-138630839D01*
X182679799Y-138596956D01*
X182648698Y-138543087D01*
X194642700Y-138543087D01*
X194642700Y-138656913D01*
X194662340Y-138730211D01*
X194672161Y-138766862D01*
X194672164Y-138766867D01*
X194729069Y-138865431D01*
X194729073Y-138865436D01*
X194729074Y-138865438D01*
X194809562Y-138945926D01*
X194809564Y-138945927D01*
X194809568Y-138945930D01*
X194885109Y-138989543D01*
X194908139Y-139002839D01*
X195018087Y-139032300D01*
X195018089Y-139032300D01*
X195131911Y-139032300D01*
X195131913Y-139032300D01*
X195241861Y-139002839D01*
X195340438Y-138945926D01*
X195420926Y-138865438D01*
X195426712Y-138855416D01*
X207889765Y-138855416D01*
X207889765Y-138969242D01*
X207904736Y-139025112D01*
X207919226Y-139079191D01*
X207919229Y-139079196D01*
X207976134Y-139177760D01*
X207976138Y-139177765D01*
X207976139Y-139177767D01*
X208056627Y-139258255D01*
X208056629Y-139258256D01*
X208056633Y-139258259D01*
X208162242Y-139319232D01*
X208161462Y-139320582D01*
X208208658Y-139358611D01*
X208230727Y-139424903D01*
X208226581Y-139461430D01*
X208211913Y-139516171D01*
X208211400Y-139518087D01*
X208211400Y-139631913D01*
X208226715Y-139689069D01*
X208240861Y-139741862D01*
X208240864Y-139741867D01*
X208297769Y-139840431D01*
X208297773Y-139840436D01*
X208297774Y-139840438D01*
X208378262Y-139920926D01*
X208378264Y-139920927D01*
X208378268Y-139920930D01*
X208451071Y-139962962D01*
X208476839Y-139977839D01*
X208586787Y-140007300D01*
X208586789Y-140007300D01*
X208700611Y-140007300D01*
X208700613Y-140007300D01*
X208810561Y-139977839D01*
X208909138Y-139920926D01*
X208989626Y-139840438D01*
X209046539Y-139741861D01*
X209076000Y-139631913D01*
X209076000Y-139518087D01*
X210599000Y-139518087D01*
X210599000Y-139631913D01*
X210614315Y-139689069D01*
X210628461Y-139741862D01*
X210628464Y-139741867D01*
X210685369Y-139840431D01*
X210685373Y-139840436D01*
X210685374Y-139840438D01*
X210765862Y-139920926D01*
X210765864Y-139920927D01*
X210765868Y-139920930D01*
X210838671Y-139962962D01*
X210864439Y-139977839D01*
X210974387Y-140007300D01*
X210974389Y-140007300D01*
X211088211Y-140007300D01*
X211088213Y-140007300D01*
X211198161Y-139977839D01*
X211296738Y-139920926D01*
X211377226Y-139840438D01*
X211434139Y-139741861D01*
X211463600Y-139631913D01*
X211463600Y-139518087D01*
X211434139Y-139408139D01*
X211421069Y-139385501D01*
X211377230Y-139309568D01*
X211377224Y-139309560D01*
X211296739Y-139229075D01*
X211296731Y-139229069D01*
X211198167Y-139172164D01*
X211198162Y-139172161D01*
X211142655Y-139157288D01*
X211088213Y-139142700D01*
X210974387Y-139142700D01*
X210919945Y-139157288D01*
X210864437Y-139172161D01*
X210864432Y-139172164D01*
X210765868Y-139229069D01*
X210765860Y-139229075D01*
X210685375Y-139309560D01*
X210685369Y-139309568D01*
X210628464Y-139408132D01*
X210628461Y-139408137D01*
X210614181Y-139461430D01*
X210599000Y-139518087D01*
X209076000Y-139518087D01*
X209046539Y-139408139D01*
X209033469Y-139385501D01*
X208989630Y-139309568D01*
X208989624Y-139309560D01*
X208909139Y-139229075D01*
X208909131Y-139229069D01*
X208803523Y-139168097D01*
X208804302Y-139166747D01*
X208757101Y-139128710D01*
X208735037Y-139062415D01*
X208735597Y-139045417D01*
X208736605Y-139035518D01*
X208754365Y-138969242D01*
X208754365Y-138875719D01*
X212100332Y-138875719D01*
X212100332Y-138989545D01*
X212115303Y-139045417D01*
X212129793Y-139099494D01*
X212129796Y-139099499D01*
X212186701Y-139198063D01*
X212186705Y-139198068D01*
X212186706Y-139198070D01*
X212267194Y-139278558D01*
X212267196Y-139278559D01*
X212267200Y-139278562D01*
X212320905Y-139309568D01*
X212365771Y-139335471D01*
X212475719Y-139364932D01*
X212475721Y-139364932D01*
X212589543Y-139364932D01*
X212589545Y-139364932D01*
X212699493Y-139335471D01*
X212798070Y-139278558D01*
X212878558Y-139198070D01*
X212935471Y-139099493D01*
X212964932Y-138989545D01*
X212964932Y-138875719D01*
X212935471Y-138765771D01*
X212915517Y-138731209D01*
X212878562Y-138667200D01*
X212878556Y-138667192D01*
X212798071Y-138586707D01*
X212798063Y-138586701D01*
X212699499Y-138529796D01*
X212699494Y-138529793D01*
X212662843Y-138519972D01*
X212589545Y-138500332D01*
X212475719Y-138500332D01*
X212430958Y-138512326D01*
X212365769Y-138529793D01*
X212365764Y-138529796D01*
X212267200Y-138586701D01*
X212267192Y-138586707D01*
X212186707Y-138667192D01*
X212186701Y-138667200D01*
X212129796Y-138765764D01*
X212129793Y-138765769D01*
X212116173Y-138816600D01*
X212100332Y-138875719D01*
X208754365Y-138875719D01*
X208754365Y-138855416D01*
X208724904Y-138745468D01*
X208722202Y-138740788D01*
X208667995Y-138646897D01*
X208667989Y-138646889D01*
X208587504Y-138566404D01*
X208587496Y-138566398D01*
X208488932Y-138509493D01*
X208488927Y-138509490D01*
X208452276Y-138499669D01*
X208378978Y-138480029D01*
X208265152Y-138480029D01*
X208210178Y-138494759D01*
X208155202Y-138509490D01*
X208155197Y-138509493D01*
X208056633Y-138566398D01*
X208056625Y-138566404D01*
X207976140Y-138646889D01*
X207976134Y-138646897D01*
X207919229Y-138745461D01*
X207919226Y-138745466D01*
X207904255Y-138801338D01*
X207889765Y-138855416D01*
X195426712Y-138855416D01*
X195477839Y-138766861D01*
X195507300Y-138656913D01*
X195507300Y-138543087D01*
X195477839Y-138433139D01*
X195455741Y-138394864D01*
X195420930Y-138334568D01*
X195420927Y-138334565D01*
X195420926Y-138334562D01*
X195420923Y-138334559D01*
X195415980Y-138328117D01*
X195417866Y-138326669D01*
X195390194Y-138275992D01*
X195395178Y-138206300D01*
X195423678Y-138161954D01*
X195455963Y-138129670D01*
X195512876Y-138031093D01*
X195542337Y-137921145D01*
X195542337Y-137918087D01*
X199717700Y-137918087D01*
X199717700Y-138031913D01*
X199723046Y-138051863D01*
X199747161Y-138141862D01*
X199747164Y-138141867D01*
X199804069Y-138240431D01*
X199804073Y-138240436D01*
X199804074Y-138240438D01*
X199884562Y-138320926D01*
X199884564Y-138320927D01*
X199884568Y-138320930D01*
X199923036Y-138343139D01*
X199983139Y-138377839D01*
X200093087Y-138407300D01*
X200093089Y-138407300D01*
X200206911Y-138407300D01*
X200206913Y-138407300D01*
X200316861Y-138377839D01*
X200415438Y-138320926D01*
X200495926Y-138240438D01*
X200552839Y-138141861D01*
X200582300Y-138031913D01*
X200582300Y-137918087D01*
X200552839Y-137808139D01*
X200500874Y-137718132D01*
X200495930Y-137709568D01*
X200495924Y-137709560D01*
X200415439Y-137629075D01*
X200415431Y-137629069D01*
X200316867Y-137572164D01*
X200316862Y-137572161D01*
X200280211Y-137562340D01*
X200206913Y-137542700D01*
X200093087Y-137542700D01*
X200038113Y-137557430D01*
X199983137Y-137572161D01*
X199983132Y-137572164D01*
X199884568Y-137629069D01*
X199884560Y-137629075D01*
X199804075Y-137709560D01*
X199804069Y-137709568D01*
X199747164Y-137808132D01*
X199747161Y-137808137D01*
X199727520Y-137881437D01*
X199717700Y-137918087D01*
X195542337Y-137918087D01*
X195542337Y-137807319D01*
X195512876Y-137697371D01*
X195483177Y-137645930D01*
X195455967Y-137598800D01*
X195455961Y-137598792D01*
X195375476Y-137518307D01*
X195375468Y-137518301D01*
X195276904Y-137461396D01*
X195276899Y-137461393D01*
X195240248Y-137451572D01*
X195166950Y-137431932D01*
X195053124Y-137431932D01*
X194998150Y-137446662D01*
X194943174Y-137461393D01*
X194943169Y-137461396D01*
X194844605Y-137518301D01*
X194844597Y-137518307D01*
X194764112Y-137598792D01*
X194764106Y-137598800D01*
X194707201Y-137697364D01*
X194707198Y-137697369D01*
X194687557Y-137770669D01*
X194677737Y-137807319D01*
X194677737Y-137921145D01*
X194683302Y-137941913D01*
X194707198Y-138031094D01*
X194707201Y-138031099D01*
X194764106Y-138129663D01*
X194769057Y-138136115D01*
X194767170Y-138137562D01*
X194794842Y-138188239D01*
X194789858Y-138257931D01*
X194761358Y-138302277D01*
X194729075Y-138334560D01*
X194729069Y-138334568D01*
X194672164Y-138433132D01*
X194672161Y-138433137D01*
X194654947Y-138497380D01*
X194642700Y-138543087D01*
X182648698Y-138543087D01*
X182642450Y-138532265D01*
X182642446Y-138532260D01*
X182561961Y-138451775D01*
X182561953Y-138451769D01*
X182463389Y-138394864D01*
X182463384Y-138394861D01*
X182426733Y-138385040D01*
X182353435Y-138365400D01*
X182239609Y-138365400D01*
X182193202Y-138377835D01*
X182129659Y-138394861D01*
X182129654Y-138394864D01*
X182031090Y-138451769D01*
X182031082Y-138451775D01*
X181985477Y-138497380D01*
X181924154Y-138530864D01*
X181854462Y-138525879D01*
X181835480Y-138515365D01*
X181834890Y-138516388D01*
X181729280Y-138455415D01*
X181729275Y-138455412D01*
X181692624Y-138445591D01*
X181619326Y-138425951D01*
X181505500Y-138425951D01*
X181450526Y-138440681D01*
X181395550Y-138455412D01*
X181395545Y-138455415D01*
X181296981Y-138512320D01*
X181296973Y-138512326D01*
X181216488Y-138592811D01*
X181216482Y-138592819D01*
X181159577Y-138691383D01*
X181159574Y-138691388D01*
X181141056Y-138760499D01*
X181130113Y-138801338D01*
X180666817Y-138801338D01*
X180666433Y-138793265D01*
X180679551Y-138760499D01*
X180696462Y-138731209D01*
X180709232Y-138709089D01*
X180727839Y-138676861D01*
X180757300Y-138566913D01*
X180757300Y-138453087D01*
X180727839Y-138343139D01*
X180679549Y-138259498D01*
X180663077Y-138191600D01*
X180679550Y-138135500D01*
X180682920Y-138129663D01*
X180727839Y-138051861D01*
X180757300Y-137941913D01*
X180757300Y-137828087D01*
X180727839Y-137718139D01*
X180715845Y-137697364D01*
X180670930Y-137619568D01*
X180670924Y-137619560D01*
X180590439Y-137539075D01*
X180590431Y-137539069D01*
X180491867Y-137482164D01*
X180491862Y-137482161D01*
X180455211Y-137472340D01*
X180381913Y-137452700D01*
X180268087Y-137452700D01*
X180215238Y-137466861D01*
X180158137Y-137482161D01*
X180158132Y-137482164D01*
X180059568Y-137539069D01*
X180059560Y-137539075D01*
X179979075Y-137619560D01*
X179979069Y-137619568D01*
X179922164Y-137718132D01*
X179922161Y-137718137D01*
X179902520Y-137791437D01*
X179892700Y-137828087D01*
X169254500Y-137828087D01*
X169254500Y-136765587D01*
X181136097Y-136765587D01*
X181136097Y-136879413D01*
X181150876Y-136934568D01*
X181165558Y-136989362D01*
X181165561Y-136989367D01*
X181222466Y-137087931D01*
X181222470Y-137087936D01*
X181222471Y-137087938D01*
X181302959Y-137168426D01*
X181302961Y-137168427D01*
X181302965Y-137168430D01*
X181401529Y-137225335D01*
X181401536Y-137225339D01*
X181511484Y-137254800D01*
X181511486Y-137254800D01*
X181625308Y-137254800D01*
X181625310Y-137254800D01*
X181735258Y-137225339D01*
X181833835Y-137168426D01*
X181849017Y-137153243D01*
X181910337Y-137119758D01*
X181980029Y-137124741D01*
X182024379Y-137153243D01*
X182039562Y-137168426D01*
X182039564Y-137168427D01*
X182039568Y-137168430D01*
X182138132Y-137225335D01*
X182138139Y-137225339D01*
X182248087Y-137254800D01*
X182248089Y-137254800D01*
X182361911Y-137254800D01*
X182361913Y-137254800D01*
X182471861Y-137225339D01*
X182570438Y-137168426D01*
X182595777Y-137143087D01*
X197267700Y-137143087D01*
X197267700Y-137256913D01*
X197287340Y-137330211D01*
X197297161Y-137366862D01*
X197297164Y-137366867D01*
X197354069Y-137465431D01*
X197354073Y-137465436D01*
X197354074Y-137465438D01*
X197434562Y-137545926D01*
X197434564Y-137545927D01*
X197434568Y-137545930D01*
X197526129Y-137598792D01*
X197533139Y-137602839D01*
X197643087Y-137632300D01*
X197643089Y-137632300D01*
X197756911Y-137632300D01*
X197756913Y-137632300D01*
X197866861Y-137602839D01*
X197965438Y-137545926D01*
X198045926Y-137465438D01*
X198102839Y-137366861D01*
X198132300Y-137256913D01*
X198132300Y-137243087D01*
X215842700Y-137243087D01*
X215842700Y-137356913D01*
X215862340Y-137430211D01*
X215872161Y-137466862D01*
X215872164Y-137466867D01*
X215929069Y-137565431D01*
X215929073Y-137565436D01*
X215929074Y-137565438D01*
X216009562Y-137645926D01*
X216009564Y-137645927D01*
X216009568Y-137645930D01*
X216098668Y-137697371D01*
X216108139Y-137702839D01*
X216218087Y-137732300D01*
X216218089Y-137732300D01*
X216331911Y-137732300D01*
X216331913Y-137732300D01*
X216441861Y-137702839D01*
X216540438Y-137645926D01*
X216620926Y-137565438D01*
X216677839Y-137466861D01*
X216707300Y-137356913D01*
X216707300Y-137243087D01*
X216677839Y-137133139D01*
X216677835Y-137133132D01*
X216620930Y-137034568D01*
X216620924Y-137034560D01*
X216540439Y-136954075D01*
X216540431Y-136954069D01*
X216441867Y-136897164D01*
X216441862Y-136897161D01*
X216405211Y-136887340D01*
X216331913Y-136867700D01*
X216218087Y-136867700D01*
X216163113Y-136882430D01*
X216108137Y-136897161D01*
X216108132Y-136897164D01*
X216009568Y-136954069D01*
X216009560Y-136954075D01*
X215929075Y-137034560D01*
X215929069Y-137034568D01*
X215872164Y-137133132D01*
X215872161Y-137133137D01*
X215852520Y-137206437D01*
X215842700Y-137243087D01*
X198132300Y-137243087D01*
X198132300Y-137143087D01*
X198102839Y-137033139D01*
X198102835Y-137033132D01*
X198045930Y-136934568D01*
X198045924Y-136934560D01*
X197965439Y-136854075D01*
X197965431Y-136854069D01*
X197866867Y-136797164D01*
X197866862Y-136797161D01*
X197830211Y-136787340D01*
X197756913Y-136767700D01*
X197643087Y-136767700D01*
X197588113Y-136782430D01*
X197533137Y-136797161D01*
X197533132Y-136797164D01*
X197434568Y-136854069D01*
X197434560Y-136854075D01*
X197354075Y-136934560D01*
X197354069Y-136934568D01*
X197297164Y-137033132D01*
X197297161Y-137033137D01*
X197282479Y-137087931D01*
X197267700Y-137143087D01*
X182595777Y-137143087D01*
X182650926Y-137087938D01*
X182707839Y-136989361D01*
X182737300Y-136879413D01*
X182737300Y-136765587D01*
X182707839Y-136655639D01*
X182655504Y-136564991D01*
X182650930Y-136557068D01*
X182650924Y-136557060D01*
X182570439Y-136476575D01*
X182570431Y-136476569D01*
X182471867Y-136419664D01*
X182471862Y-136419661D01*
X182435211Y-136409840D01*
X182361913Y-136390200D01*
X182248087Y-136390200D01*
X182193113Y-136404930D01*
X182138137Y-136419661D01*
X182138132Y-136419664D01*
X182039568Y-136476569D01*
X182039559Y-136476576D01*
X182024377Y-136491758D01*
X181963053Y-136525242D01*
X181893362Y-136520256D01*
X181849017Y-136491756D01*
X181833836Y-136476575D01*
X181833828Y-136476569D01*
X181735264Y-136419664D01*
X181735259Y-136419661D01*
X181698608Y-136409840D01*
X181625310Y-136390200D01*
X181511484Y-136390200D01*
X181456510Y-136404930D01*
X181401534Y-136419661D01*
X181401529Y-136419664D01*
X181302965Y-136476569D01*
X181302957Y-136476575D01*
X181222472Y-136557060D01*
X181222466Y-136557068D01*
X181165561Y-136655632D01*
X181165558Y-136655637D01*
X181145917Y-136728937D01*
X181136097Y-136765587D01*
X169254500Y-136765587D01*
X169254500Y-134873723D01*
X170745500Y-134873723D01*
X170745500Y-135126277D01*
X170753863Y-135179075D01*
X170785009Y-135375722D01*
X170785009Y-135375725D01*
X170863050Y-135615911D01*
X170863051Y-135615914D01*
X170951973Y-135790431D01*
X170977709Y-135840941D01*
X171126156Y-136045261D01*
X171304739Y-136223844D01*
X171509059Y-136372291D01*
X171602028Y-136419661D01*
X171734085Y-136486948D01*
X171734088Y-136486949D01*
X171859933Y-136527838D01*
X171974279Y-136564991D01*
X172223723Y-136604500D01*
X172223724Y-136604500D01*
X172476276Y-136604500D01*
X172476277Y-136604500D01*
X172725721Y-136564991D01*
X172725724Y-136564990D01*
X172725725Y-136564990D01*
X172965911Y-136486949D01*
X172965914Y-136486948D01*
X172997363Y-136470924D01*
X173190941Y-136372291D01*
X173395261Y-136223844D01*
X173551018Y-136068087D01*
X194733500Y-136068087D01*
X194733500Y-136181913D01*
X194744735Y-136223841D01*
X194762961Y-136291862D01*
X194762964Y-136291867D01*
X194819869Y-136390431D01*
X194819873Y-136390436D01*
X194819874Y-136390438D01*
X194900362Y-136470926D01*
X194900364Y-136470927D01*
X194900368Y-136470930D01*
X194936444Y-136491758D01*
X194998939Y-136527839D01*
X195108887Y-136557300D01*
X195108889Y-136557300D01*
X195222711Y-136557300D01*
X195222713Y-136557300D01*
X195332661Y-136527839D01*
X195431238Y-136470926D01*
X195511726Y-136390438D01*
X195568639Y-136291861D01*
X195598100Y-136181913D01*
X195598100Y-136068087D01*
X196726900Y-136068087D01*
X196726900Y-136181913D01*
X196738135Y-136223841D01*
X196756361Y-136291862D01*
X196756364Y-136291867D01*
X196813269Y-136390431D01*
X196813273Y-136390436D01*
X196813274Y-136390438D01*
X196893762Y-136470926D01*
X196893764Y-136470927D01*
X196893768Y-136470930D01*
X196929844Y-136491758D01*
X196992339Y-136527839D01*
X197102287Y-136557300D01*
X197102289Y-136557300D01*
X197216111Y-136557300D01*
X197216113Y-136557300D01*
X197326061Y-136527839D01*
X197424638Y-136470926D01*
X197505126Y-136390438D01*
X197562039Y-136291861D01*
X197591500Y-136181913D01*
X197591500Y-136068087D01*
X197562039Y-135958139D01*
X197561555Y-135957300D01*
X197505130Y-135859568D01*
X197505124Y-135859560D01*
X197424639Y-135779075D01*
X197424631Y-135779069D01*
X197326067Y-135722164D01*
X197326062Y-135722161D01*
X197289411Y-135712340D01*
X197216113Y-135692700D01*
X197102287Y-135692700D01*
X197047313Y-135707430D01*
X196992337Y-135722161D01*
X196992332Y-135722164D01*
X196893768Y-135779069D01*
X196893760Y-135779075D01*
X196813275Y-135859560D01*
X196813269Y-135859568D01*
X196756364Y-135958132D01*
X196756361Y-135958137D01*
X196748608Y-135987073D01*
X196726900Y-136068087D01*
X195598100Y-136068087D01*
X195568639Y-135958139D01*
X195568155Y-135957300D01*
X195511730Y-135859568D01*
X195511724Y-135859560D01*
X195431239Y-135779075D01*
X195431231Y-135779069D01*
X195332667Y-135722164D01*
X195332662Y-135722161D01*
X195296011Y-135712340D01*
X195222713Y-135692700D01*
X195108887Y-135692700D01*
X195053913Y-135707430D01*
X194998937Y-135722161D01*
X194998932Y-135722164D01*
X194900368Y-135779069D01*
X194900360Y-135779075D01*
X194819875Y-135859560D01*
X194819869Y-135859568D01*
X194762964Y-135958132D01*
X194762961Y-135958137D01*
X194755208Y-135987073D01*
X194733500Y-136068087D01*
X173551018Y-136068087D01*
X173573844Y-136045261D01*
X173722291Y-135840941D01*
X173836948Y-135615914D01*
X173847996Y-135581911D01*
X173884980Y-135468087D01*
X200617700Y-135468087D01*
X200617700Y-135581913D01*
X200626810Y-135615911D01*
X200647161Y-135691862D01*
X200647164Y-135691867D01*
X200704069Y-135790431D01*
X200704073Y-135790436D01*
X200704074Y-135790438D01*
X200784562Y-135870926D01*
X200784564Y-135870927D01*
X200784568Y-135870930D01*
X200883132Y-135927835D01*
X200883139Y-135927839D01*
X200993087Y-135957300D01*
X200993089Y-135957300D01*
X201106911Y-135957300D01*
X201106913Y-135957300D01*
X201216861Y-135927839D01*
X201315438Y-135870926D01*
X201395926Y-135790438D01*
X201452839Y-135691861D01*
X201482300Y-135581913D01*
X201482300Y-135468087D01*
X201452839Y-135358139D01*
X201449624Y-135352571D01*
X201395930Y-135259568D01*
X201395924Y-135259560D01*
X201315439Y-135179075D01*
X201315431Y-135179069D01*
X201216867Y-135122164D01*
X201216862Y-135122161D01*
X201180211Y-135112340D01*
X201106913Y-135092700D01*
X200993087Y-135092700D01*
X200938113Y-135107430D01*
X200883137Y-135122161D01*
X200883132Y-135122164D01*
X200784568Y-135179069D01*
X200784560Y-135179075D01*
X200704075Y-135259560D01*
X200704069Y-135259568D01*
X200647164Y-135358132D01*
X200647161Y-135358137D01*
X200635345Y-135402235D01*
X200617700Y-135468087D01*
X173884980Y-135468087D01*
X173914990Y-135375725D01*
X173914990Y-135375724D01*
X173914991Y-135375721D01*
X173954500Y-135126277D01*
X173954500Y-134913022D01*
X193886451Y-134913022D01*
X193886451Y-135026848D01*
X193904096Y-135092700D01*
X193915912Y-135136797D01*
X193915915Y-135136802D01*
X193972820Y-135235366D01*
X193972824Y-135235371D01*
X193972825Y-135235373D01*
X194053313Y-135315861D01*
X194053315Y-135315862D01*
X194053319Y-135315865D01*
X194151883Y-135372770D01*
X194151886Y-135372772D01*
X194151890Y-135372774D01*
X194261838Y-135402235D01*
X194261840Y-135402235D01*
X194375662Y-135402235D01*
X194375664Y-135402235D01*
X194485612Y-135372774D01*
X194584189Y-135315861D01*
X194664677Y-135235373D01*
X194721590Y-135136796D01*
X194751051Y-135026848D01*
X194751051Y-134913022D01*
X194721590Y-134803074D01*
X194721586Y-134803067D01*
X194664681Y-134704503D01*
X194664675Y-134704495D01*
X194584190Y-134624010D01*
X194584182Y-134624004D01*
X194485618Y-134567099D01*
X194485613Y-134567096D01*
X194448962Y-134557275D01*
X194375664Y-134537635D01*
X194261838Y-134537635D01*
X194206864Y-134552365D01*
X194151888Y-134567096D01*
X194151883Y-134567099D01*
X194053319Y-134624004D01*
X194053311Y-134624010D01*
X193972826Y-134704495D01*
X193972820Y-134704503D01*
X193915915Y-134803067D01*
X193915912Y-134803072D01*
X193896981Y-134873723D01*
X193886451Y-134913022D01*
X173954500Y-134913022D01*
X173954500Y-134873723D01*
X173914991Y-134624279D01*
X173914990Y-134624275D01*
X173914990Y-134624274D01*
X173836949Y-134384088D01*
X173836948Y-134384085D01*
X173762359Y-134237697D01*
X173722291Y-134159059D01*
X173573844Y-133954739D01*
X173395261Y-133776156D01*
X173190941Y-133627709D01*
X172965914Y-133513051D01*
X172965911Y-133513050D01*
X172725723Y-133435009D01*
X172550777Y-133407300D01*
X172476277Y-133395500D01*
X172223723Y-133395500D01*
X172149223Y-133407300D01*
X171974277Y-133435009D01*
X171974274Y-133435009D01*
X171734088Y-133513050D01*
X171734085Y-133513051D01*
X171509058Y-133627709D01*
X171304736Y-133776158D01*
X171126158Y-133954736D01*
X170977709Y-134159058D01*
X170863051Y-134384085D01*
X170863050Y-134384088D01*
X170785009Y-134624274D01*
X170785009Y-134624277D01*
X170756691Y-134803067D01*
X170745500Y-134873723D01*
X169254500Y-134873723D01*
X169254500Y-131993087D01*
X178042700Y-131993087D01*
X178042700Y-132106913D01*
X178054411Y-132150617D01*
X178072161Y-132216862D01*
X178072164Y-132216867D01*
X178129069Y-132315431D01*
X178129073Y-132315436D01*
X178129074Y-132315438D01*
X178209562Y-132395926D01*
X178209564Y-132395927D01*
X178209568Y-132395930D01*
X178308132Y-132452835D01*
X178308139Y-132452839D01*
X178418087Y-132482300D01*
X178418089Y-132482300D01*
X178531912Y-132482300D01*
X178531913Y-132482300D01*
X178537697Y-132480750D01*
X178607547Y-132482411D01*
X178665411Y-132521573D01*
X178692916Y-132585801D01*
X178693793Y-132600524D01*
X178693793Y-132638279D01*
X178708479Y-132693087D01*
X178723254Y-132748228D01*
X178723257Y-132748233D01*
X178780162Y-132846797D01*
X178780168Y-132846805D01*
X178792369Y-132859006D01*
X178825854Y-132920329D01*
X178820870Y-132990021D01*
X178792373Y-133034365D01*
X178774234Y-133052504D01*
X178774230Y-133052510D01*
X178717325Y-133151074D01*
X178717322Y-133151079D01*
X178706679Y-133190800D01*
X178687861Y-133261029D01*
X178687861Y-133374855D01*
X178688661Y-133377839D01*
X178717322Y-133484804D01*
X178717325Y-133484809D01*
X178774230Y-133583373D01*
X178774234Y-133583378D01*
X178774235Y-133583380D01*
X178854723Y-133663868D01*
X178908154Y-133694716D01*
X178956369Y-133745282D01*
X178969593Y-133813889D01*
X178943625Y-133878754D01*
X178908154Y-133909490D01*
X178840274Y-133948680D01*
X178840269Y-133948684D01*
X178759784Y-134029169D01*
X178759778Y-134029177D01*
X178702873Y-134127741D01*
X178702870Y-134127746D01*
X178692389Y-134166862D01*
X178673409Y-134237696D01*
X178673409Y-134351522D01*
X178682135Y-134384086D01*
X178702870Y-134461471D01*
X178702873Y-134461476D01*
X178759778Y-134560040D01*
X178759782Y-134560045D01*
X178759783Y-134560047D01*
X178840271Y-134640535D01*
X178840273Y-134640536D01*
X178840277Y-134640539D01*
X178938841Y-134697444D01*
X178938848Y-134697448D01*
X179048796Y-134726909D01*
X179048798Y-134726909D01*
X179162620Y-134726909D01*
X179162622Y-134726909D01*
X179272570Y-134697448D01*
X179371147Y-134640535D01*
X179451635Y-134560047D01*
X179508548Y-134461470D01*
X179538009Y-134351522D01*
X179538009Y-134237696D01*
X179508548Y-134127748D01*
X179467651Y-134056911D01*
X179451639Y-134029177D01*
X179451633Y-134029169D01*
X179449601Y-134027137D01*
X179371147Y-133948683D01*
X179361454Y-133943087D01*
X217567700Y-133943087D01*
X217567700Y-134056913D01*
X217586679Y-134127741D01*
X217597161Y-134166862D01*
X217597164Y-134166867D01*
X217654069Y-134265431D01*
X217654073Y-134265436D01*
X217654074Y-134265438D01*
X217734562Y-134345926D01*
X217734564Y-134345927D01*
X217734568Y-134345930D01*
X217800661Y-134384088D01*
X217833139Y-134402839D01*
X217943087Y-134432300D01*
X217943089Y-134432300D01*
X218056911Y-134432300D01*
X218056913Y-134432300D01*
X218166861Y-134402839D01*
X218265438Y-134345926D01*
X218345926Y-134265438D01*
X218402839Y-134166861D01*
X218432300Y-134056913D01*
X218432300Y-133943087D01*
X218402839Y-133833139D01*
X218377531Y-133789304D01*
X218345930Y-133734568D01*
X218345924Y-133734560D01*
X218265439Y-133654075D01*
X218265431Y-133654069D01*
X218166867Y-133597164D01*
X218166862Y-133597161D01*
X218115434Y-133583381D01*
X218056913Y-133567700D01*
X217943087Y-133567700D01*
X217888113Y-133582430D01*
X217833137Y-133597161D01*
X217833132Y-133597164D01*
X217734568Y-133654069D01*
X217734560Y-133654075D01*
X217654075Y-133734560D01*
X217654069Y-133734568D01*
X217597164Y-133833132D01*
X217597161Y-133833137D01*
X217577520Y-133906437D01*
X217567700Y-133943087D01*
X179361454Y-133943087D01*
X179309147Y-133912888D01*
X179301468Y-133906641D01*
X179287057Y-133885681D01*
X179269500Y-133867268D01*
X179267592Y-133857370D01*
X179261883Y-133849067D01*
X179261091Y-133823642D01*
X179256276Y-133798661D01*
X179260021Y-133789304D01*
X179259708Y-133779231D01*
X179272789Y-133757411D01*
X179282244Y-133733796D01*
X179292035Y-133725311D01*
X179295636Y-133719306D01*
X179303400Y-133715463D01*
X179317712Y-133703061D01*
X179385599Y-133663868D01*
X179466087Y-133583380D01*
X179523000Y-133484803D01*
X179552461Y-133374855D01*
X179552461Y-133261029D01*
X179523000Y-133151081D01*
X179517680Y-133141867D01*
X179466091Y-133052510D01*
X179466085Y-133052502D01*
X179453884Y-133040301D01*
X179451610Y-133036137D01*
X179447626Y-133033561D01*
X179435023Y-133005760D01*
X179420399Y-132978978D01*
X179420737Y-132974246D01*
X179418778Y-132969924D01*
X179423206Y-132939726D01*
X179424754Y-132918087D01*
X199817700Y-132918087D01*
X199817700Y-133031913D01*
X199823219Y-133052510D01*
X199847161Y-133141862D01*
X199847164Y-133141867D01*
X199904069Y-133240431D01*
X199904073Y-133240436D01*
X199904074Y-133240438D01*
X199984562Y-133320926D01*
X199984564Y-133320927D01*
X199984568Y-133320930D01*
X200083132Y-133377835D01*
X200083139Y-133377839D01*
X200193087Y-133407300D01*
X200193089Y-133407300D01*
X200306911Y-133407300D01*
X200306913Y-133407300D01*
X200416861Y-133377839D01*
X200515438Y-133320926D01*
X200595926Y-133240438D01*
X200652839Y-133141861D01*
X200670226Y-133076974D01*
X211010297Y-133076974D01*
X211010297Y-133190800D01*
X211023596Y-133240431D01*
X211039758Y-133300749D01*
X211039761Y-133300754D01*
X211096666Y-133399318D01*
X211096670Y-133399323D01*
X211096671Y-133399325D01*
X211177159Y-133479813D01*
X211177161Y-133479814D01*
X211177165Y-133479817D01*
X211234729Y-133513051D01*
X211275736Y-133536726D01*
X211385684Y-133566187D01*
X211385686Y-133566187D01*
X211499508Y-133566187D01*
X211499510Y-133566187D01*
X211609458Y-133536726D01*
X211708035Y-133479813D01*
X211788523Y-133399325D01*
X211845436Y-133300748D01*
X211874897Y-133190800D01*
X211874897Y-133076974D01*
X212280297Y-133076974D01*
X212280297Y-133190800D01*
X212293596Y-133240431D01*
X212309758Y-133300749D01*
X212309761Y-133300754D01*
X212366666Y-133399318D01*
X212366670Y-133399323D01*
X212366671Y-133399325D01*
X212447159Y-133479813D01*
X212447161Y-133479814D01*
X212447165Y-133479817D01*
X212504729Y-133513051D01*
X212545736Y-133536726D01*
X212655684Y-133566187D01*
X212655686Y-133566187D01*
X212769508Y-133566187D01*
X212769510Y-133566187D01*
X212879458Y-133536726D01*
X212978035Y-133479813D01*
X213058523Y-133399325D01*
X213115436Y-133300748D01*
X213144897Y-133190800D01*
X213144897Y-133076974D01*
X213115436Y-132967026D01*
X213104417Y-132947941D01*
X213058527Y-132868455D01*
X213058521Y-132868447D01*
X212978037Y-132787963D01*
X212978036Y-132787962D01*
X212978035Y-132787961D01*
X212978031Y-132787958D01*
X212978026Y-132787955D01*
X212879464Y-132731051D01*
X212879459Y-132731048D01*
X212842808Y-132721227D01*
X212769510Y-132701587D01*
X212655684Y-132701587D01*
X212600710Y-132716317D01*
X212545734Y-132731048D01*
X212545729Y-132731051D01*
X212447165Y-132787956D01*
X212447157Y-132787962D01*
X212366672Y-132868447D01*
X212366666Y-132868455D01*
X212309761Y-132967019D01*
X212309758Y-132967024D01*
X212292371Y-133031913D01*
X212280297Y-133076974D01*
X211874897Y-133076974D01*
X211845436Y-132967026D01*
X211834417Y-132947941D01*
X211788527Y-132868455D01*
X211788521Y-132868447D01*
X211708036Y-132787962D01*
X211708028Y-132787956D01*
X211609464Y-132731051D01*
X211609459Y-132731048D01*
X211572808Y-132721227D01*
X211499510Y-132701587D01*
X211385684Y-132701587D01*
X211330710Y-132716317D01*
X211275734Y-132731048D01*
X211275729Y-132731051D01*
X211177165Y-132787956D01*
X211177157Y-132787962D01*
X211096672Y-132868447D01*
X211096666Y-132868455D01*
X211039761Y-132967019D01*
X211039758Y-132967024D01*
X211022371Y-133031913D01*
X211010297Y-133076974D01*
X200670226Y-133076974D01*
X200682300Y-133031913D01*
X200682300Y-132918087D01*
X200652839Y-132808139D01*
X200652130Y-132806911D01*
X200595930Y-132709568D01*
X200595924Y-132709560D01*
X200515439Y-132629075D01*
X200515431Y-132629069D01*
X200416867Y-132572164D01*
X200416862Y-132572161D01*
X200380211Y-132562340D01*
X200306913Y-132542700D01*
X200193087Y-132542700D01*
X200142485Y-132556259D01*
X200083137Y-132572161D01*
X200083132Y-132572164D01*
X199984568Y-132629069D01*
X199984560Y-132629075D01*
X199904075Y-132709560D01*
X199904069Y-132709568D01*
X199847164Y-132808132D01*
X199847161Y-132808137D01*
X199836800Y-132846805D01*
X199817700Y-132918087D01*
X179424754Y-132918087D01*
X179425383Y-132909286D01*
X179428417Y-132904188D01*
X179428915Y-132900794D01*
X179439396Y-132885742D01*
X179448079Y-132871156D01*
X179450870Y-132867952D01*
X179472019Y-132846804D01*
X179528932Y-132748227D01*
X179558393Y-132638279D01*
X179558393Y-132524453D01*
X179528932Y-132414505D01*
X179518208Y-132395930D01*
X179472023Y-132315934D01*
X179472017Y-132315926D01*
X179391532Y-132235441D01*
X179391524Y-132235435D01*
X179292960Y-132178530D01*
X179292955Y-132178527D01*
X179256304Y-132168706D01*
X179183006Y-132149066D01*
X179069180Y-132149066D01*
X179069179Y-132149066D01*
X179069172Y-132149067D01*
X179063387Y-132150617D01*
X178993538Y-132148951D01*
X178935677Y-132109786D01*
X178929993Y-132096511D01*
X202293370Y-132096511D01*
X202293370Y-132210337D01*
X202300097Y-132235441D01*
X202322831Y-132320286D01*
X202322834Y-132320291D01*
X202379739Y-132418855D01*
X202379743Y-132418860D01*
X202379744Y-132418862D01*
X202460232Y-132499350D01*
X202460234Y-132499351D01*
X202460238Y-132499354D01*
X202535317Y-132542700D01*
X202558809Y-132556263D01*
X202668757Y-132585724D01*
X202668759Y-132585724D01*
X202782581Y-132585724D01*
X202782583Y-132585724D01*
X202892531Y-132556263D01*
X202991108Y-132499350D01*
X203071596Y-132418862D01*
X203128509Y-132320285D01*
X203157970Y-132210337D01*
X203157970Y-132105497D01*
X204514347Y-132105497D01*
X204514347Y-132219323D01*
X204518666Y-132235440D01*
X204543808Y-132329272D01*
X204543811Y-132329277D01*
X204600716Y-132427841D01*
X204600720Y-132427846D01*
X204600721Y-132427848D01*
X204681209Y-132508336D01*
X204681211Y-132508337D01*
X204681215Y-132508340D01*
X204779779Y-132565245D01*
X204779786Y-132565249D01*
X204889734Y-132594710D01*
X204889736Y-132594710D01*
X205003558Y-132594710D01*
X205003560Y-132594710D01*
X205113508Y-132565249D01*
X205212085Y-132508336D01*
X205292573Y-132427848D01*
X205349486Y-132329271D01*
X205359182Y-132293087D01*
X206442700Y-132293087D01*
X206442700Y-132406913D01*
X206445900Y-132418855D01*
X206472161Y-132516862D01*
X206472164Y-132516867D01*
X206529069Y-132615431D01*
X206529073Y-132615436D01*
X206529074Y-132615438D01*
X206609562Y-132695926D01*
X206609564Y-132695927D01*
X206609568Y-132695930D01*
X206700151Y-132748227D01*
X206708139Y-132752839D01*
X206818087Y-132782300D01*
X206818089Y-132782300D01*
X206931911Y-132782300D01*
X206931913Y-132782300D01*
X207041861Y-132752839D01*
X207140438Y-132695926D01*
X207143277Y-132693087D01*
X217567700Y-132693087D01*
X217567700Y-132806913D01*
X217584914Y-132871156D01*
X217597161Y-132916862D01*
X217597164Y-132916867D01*
X217654069Y-133015431D01*
X217654073Y-133015436D01*
X217654074Y-133015438D01*
X217734562Y-133095926D01*
X217734564Y-133095927D01*
X217734568Y-133095930D01*
X217830094Y-133151081D01*
X217833139Y-133152839D01*
X217943087Y-133182300D01*
X217943089Y-133182300D01*
X218056911Y-133182300D01*
X218056913Y-133182300D01*
X218166861Y-133152839D01*
X218265438Y-133095926D01*
X218345926Y-133015438D01*
X218402839Y-132916861D01*
X218432300Y-132806913D01*
X218432300Y-132693087D01*
X218402839Y-132583139D01*
X218379492Y-132542700D01*
X218345930Y-132484568D01*
X218345924Y-132484560D01*
X218265439Y-132404075D01*
X218265431Y-132404069D01*
X218166867Y-132347164D01*
X218166862Y-132347161D01*
X218130211Y-132337340D01*
X218056913Y-132317700D01*
X217943087Y-132317700D01*
X217899882Y-132329277D01*
X217833137Y-132347161D01*
X217833132Y-132347164D01*
X217734568Y-132404069D01*
X217734560Y-132404075D01*
X217654075Y-132484560D01*
X217654069Y-132484568D01*
X217597164Y-132583132D01*
X217597161Y-132583137D01*
X217582386Y-132638279D01*
X217567700Y-132693087D01*
X207143277Y-132693087D01*
X207220926Y-132615438D01*
X207277839Y-132516861D01*
X207307300Y-132406913D01*
X207307300Y-132293087D01*
X207277839Y-132183139D01*
X207235489Y-132109786D01*
X207220930Y-132084568D01*
X207220924Y-132084560D01*
X207140439Y-132004075D01*
X207140431Y-132004069D01*
X207041867Y-131947164D01*
X207041862Y-131947161D01*
X207005211Y-131937340D01*
X206931913Y-131917700D01*
X206818087Y-131917700D01*
X206763600Y-131932300D01*
X206708137Y-131947161D01*
X206708132Y-131947164D01*
X206609568Y-132004069D01*
X206609560Y-132004075D01*
X206529075Y-132084560D01*
X206529069Y-132084568D01*
X206472164Y-132183132D01*
X206472161Y-132183137D01*
X206463123Y-132216867D01*
X206442700Y-132293087D01*
X205359182Y-132293087D01*
X205378947Y-132219323D01*
X205378947Y-132105497D01*
X205349486Y-131995549D01*
X205321551Y-131947164D01*
X205292577Y-131896978D01*
X205292571Y-131896970D01*
X205212086Y-131816485D01*
X205212078Y-131816479D01*
X205113514Y-131759574D01*
X205113509Y-131759571D01*
X205076858Y-131749750D01*
X205003560Y-131730110D01*
X204889734Y-131730110D01*
X204834760Y-131744840D01*
X204779784Y-131759571D01*
X204779779Y-131759574D01*
X204681215Y-131816479D01*
X204681207Y-131816485D01*
X204600722Y-131896970D01*
X204600716Y-131896978D01*
X204543811Y-131995542D01*
X204543808Y-131995547D01*
X204524167Y-132068847D01*
X204514347Y-132105497D01*
X203157970Y-132105497D01*
X203157970Y-132096511D01*
X203128509Y-131986563D01*
X203105762Y-131947164D01*
X203071600Y-131887992D01*
X203071594Y-131887984D01*
X202991109Y-131807499D01*
X202991101Y-131807493D01*
X202892537Y-131750588D01*
X202892532Y-131750585D01*
X202855881Y-131740764D01*
X202782583Y-131721124D01*
X202668757Y-131721124D01*
X202613783Y-131735854D01*
X202558807Y-131750585D01*
X202558802Y-131750588D01*
X202460238Y-131807493D01*
X202460230Y-131807499D01*
X202379745Y-131887984D01*
X202379739Y-131887992D01*
X202322834Y-131986556D01*
X202322831Y-131986561D01*
X202303877Y-132057300D01*
X202293370Y-132096511D01*
X178929993Y-132096511D01*
X178908176Y-132045556D01*
X178907300Y-132030841D01*
X178907300Y-131993088D01*
X178904060Y-131980995D01*
X178877839Y-131883139D01*
X178839356Y-131816484D01*
X178820930Y-131784568D01*
X178820924Y-131784560D01*
X178740439Y-131704075D01*
X178740431Y-131704069D01*
X178641867Y-131647164D01*
X178641862Y-131647161D01*
X178605211Y-131637340D01*
X178531913Y-131617700D01*
X178418087Y-131617700D01*
X178363113Y-131632430D01*
X178308137Y-131647161D01*
X178308132Y-131647164D01*
X178209568Y-131704069D01*
X178209560Y-131704075D01*
X178129075Y-131784560D01*
X178129069Y-131784568D01*
X178072164Y-131883132D01*
X178072161Y-131883137D01*
X178066882Y-131902839D01*
X178042700Y-131993087D01*
X169254500Y-131993087D01*
X169254500Y-131568087D01*
X186567700Y-131568087D01*
X186567700Y-131681913D01*
X186578207Y-131721124D01*
X186597161Y-131791862D01*
X186597164Y-131791867D01*
X186654069Y-131890431D01*
X186654073Y-131890436D01*
X186654074Y-131890438D01*
X186734562Y-131970926D01*
X186734564Y-131970927D01*
X186734568Y-131970930D01*
X186791976Y-132004074D01*
X186833139Y-132027839D01*
X186943087Y-132057300D01*
X186943089Y-132057300D01*
X187056911Y-132057300D01*
X187056913Y-132057300D01*
X187166861Y-132027839D01*
X187265438Y-131970926D01*
X187345926Y-131890438D01*
X187402839Y-131791861D01*
X187432300Y-131681913D01*
X187432300Y-131568087D01*
X187402839Y-131458139D01*
X187399779Y-131452839D01*
X187394149Y-131443087D01*
X217567700Y-131443087D01*
X217567700Y-131556913D01*
X217583988Y-131617700D01*
X217597161Y-131666862D01*
X217597164Y-131666867D01*
X217654069Y-131765431D01*
X217654073Y-131765436D01*
X217654074Y-131765438D01*
X217734562Y-131845926D01*
X217734564Y-131845927D01*
X217734568Y-131845930D01*
X217822977Y-131896972D01*
X217833139Y-131902839D01*
X217943087Y-131932300D01*
X217943089Y-131932300D01*
X218056911Y-131932300D01*
X218056913Y-131932300D01*
X218166861Y-131902839D01*
X218265438Y-131845926D01*
X218345926Y-131765438D01*
X218402839Y-131666861D01*
X218432300Y-131556913D01*
X218432300Y-131443087D01*
X218402839Y-131333139D01*
X218392620Y-131315439D01*
X218345930Y-131234568D01*
X218345924Y-131234560D01*
X218265439Y-131154075D01*
X218265431Y-131154069D01*
X218166867Y-131097164D01*
X218166862Y-131097161D01*
X218126544Y-131086358D01*
X218056913Y-131067700D01*
X217943087Y-131067700D01*
X217888113Y-131082430D01*
X217833137Y-131097161D01*
X217833132Y-131097164D01*
X217734568Y-131154069D01*
X217734560Y-131154075D01*
X217654075Y-131234560D01*
X217654069Y-131234568D01*
X217597164Y-131333132D01*
X217597161Y-131333137D01*
X217580337Y-131395926D01*
X217567700Y-131443087D01*
X187394149Y-131443087D01*
X187345930Y-131359568D01*
X187345924Y-131359560D01*
X187265439Y-131279075D01*
X187265431Y-131279069D01*
X187166867Y-131222164D01*
X187166862Y-131222161D01*
X187130211Y-131212340D01*
X187056913Y-131192700D01*
X186943087Y-131192700D01*
X186888113Y-131207430D01*
X186833137Y-131222161D01*
X186833132Y-131222164D01*
X186734568Y-131279069D01*
X186734560Y-131279075D01*
X186654075Y-131359560D01*
X186654069Y-131359568D01*
X186597164Y-131458132D01*
X186597161Y-131458137D01*
X186590687Y-131482300D01*
X186567700Y-131568087D01*
X169254500Y-131568087D01*
X169254500Y-130993087D01*
X178542700Y-130993087D01*
X178542700Y-131106913D01*
X178550112Y-131134574D01*
X178572161Y-131216862D01*
X178572164Y-131216867D01*
X178629069Y-131315431D01*
X178629073Y-131315436D01*
X178629074Y-131315438D01*
X178709562Y-131395926D01*
X178709564Y-131395927D01*
X178709568Y-131395930D01*
X178808132Y-131452835D01*
X178808135Y-131452837D01*
X178808139Y-131452839D01*
X178918087Y-131482300D01*
X178918089Y-131482300D01*
X179031911Y-131482300D01*
X179031913Y-131482300D01*
X179141861Y-131452839D01*
X179240438Y-131395926D01*
X179320926Y-131315438D01*
X179377839Y-131216861D01*
X179407300Y-131106913D01*
X179407300Y-130993087D01*
X179380505Y-130893087D01*
X202917700Y-130893087D01*
X202917700Y-131006913D01*
X202933988Y-131067700D01*
X202947161Y-131116862D01*
X202947164Y-131116867D01*
X203004069Y-131215431D01*
X203004073Y-131215436D01*
X203004074Y-131215438D01*
X203084562Y-131295926D01*
X203084564Y-131295927D01*
X203084568Y-131295930D01*
X203183132Y-131352835D01*
X203183135Y-131352837D01*
X203183139Y-131352839D01*
X203293087Y-131382300D01*
X203293089Y-131382300D01*
X203406911Y-131382300D01*
X203406913Y-131382300D01*
X203516861Y-131352839D01*
X203615438Y-131295926D01*
X203695926Y-131215438D01*
X203742613Y-131134572D01*
X203793179Y-131086358D01*
X203861786Y-131073134D01*
X203926651Y-131099102D01*
X203957386Y-131134572D01*
X204004074Y-131215438D01*
X204084562Y-131295926D01*
X204084564Y-131295927D01*
X204084568Y-131295930D01*
X204183132Y-131352835D01*
X204183135Y-131352837D01*
X204183139Y-131352839D01*
X204293087Y-131382300D01*
X204293089Y-131382300D01*
X204406911Y-131382300D01*
X204406913Y-131382300D01*
X204516861Y-131352839D01*
X204615438Y-131295926D01*
X204695926Y-131215438D01*
X204752839Y-131116861D01*
X204782300Y-131006913D01*
X204782300Y-130893087D01*
X204752839Y-130783139D01*
X204752835Y-130783132D01*
X204695930Y-130684568D01*
X204695924Y-130684560D01*
X204615439Y-130604075D01*
X204615431Y-130604069D01*
X204516867Y-130547164D01*
X204516862Y-130547161D01*
X204480211Y-130537340D01*
X204406913Y-130517700D01*
X204293087Y-130517700D01*
X204238113Y-130532430D01*
X204183137Y-130547161D01*
X204183132Y-130547164D01*
X204084568Y-130604069D01*
X204084560Y-130604075D01*
X204004075Y-130684560D01*
X204004071Y-130684565D01*
X203957387Y-130765426D01*
X203906820Y-130813641D01*
X203838213Y-130826865D01*
X203773348Y-130800897D01*
X203742613Y-130765426D01*
X203695928Y-130684565D01*
X203695924Y-130684560D01*
X203615439Y-130604075D01*
X203615431Y-130604069D01*
X203516867Y-130547164D01*
X203516862Y-130547161D01*
X203480211Y-130537340D01*
X203406913Y-130517700D01*
X203293087Y-130517700D01*
X203238113Y-130532430D01*
X203183137Y-130547161D01*
X203183132Y-130547164D01*
X203084568Y-130604069D01*
X203084560Y-130604075D01*
X203004075Y-130684560D01*
X203004069Y-130684568D01*
X202947164Y-130783132D01*
X202947161Y-130783137D01*
X202938988Y-130813641D01*
X202917700Y-130893087D01*
X179380505Y-130893087D01*
X179377839Y-130883139D01*
X179377835Y-130883132D01*
X179320930Y-130784568D01*
X179320924Y-130784560D01*
X179240439Y-130704075D01*
X179240431Y-130704069D01*
X179141867Y-130647164D01*
X179141862Y-130647161D01*
X179105211Y-130637340D01*
X179031913Y-130617700D01*
X178918087Y-130617700D01*
X178863113Y-130632430D01*
X178808137Y-130647161D01*
X178808132Y-130647164D01*
X178709568Y-130704069D01*
X178709560Y-130704075D01*
X178629075Y-130784560D01*
X178629069Y-130784568D01*
X178572164Y-130883132D01*
X178572161Y-130883137D01*
X178552520Y-130956437D01*
X178542700Y-130993087D01*
X169254500Y-130993087D01*
X169254500Y-130193087D01*
X217567700Y-130193087D01*
X217567700Y-130306913D01*
X217587340Y-130380211D01*
X217597161Y-130416862D01*
X217597164Y-130416867D01*
X217654069Y-130515431D01*
X217654073Y-130515436D01*
X217654074Y-130515438D01*
X217734562Y-130595926D01*
X217734564Y-130595927D01*
X217734568Y-130595930D01*
X217833132Y-130652835D01*
X217833139Y-130652839D01*
X217943087Y-130682300D01*
X217943089Y-130682300D01*
X218056911Y-130682300D01*
X218056913Y-130682300D01*
X218166861Y-130652839D01*
X218265438Y-130595926D01*
X218345926Y-130515438D01*
X218402839Y-130416861D01*
X218432300Y-130306913D01*
X218432300Y-130193087D01*
X218402839Y-130083139D01*
X218402835Y-130083132D01*
X218345930Y-129984568D01*
X218345924Y-129984560D01*
X218265439Y-129904075D01*
X218265431Y-129904069D01*
X218166867Y-129847164D01*
X218166862Y-129847161D01*
X218130211Y-129837340D01*
X218056913Y-129817700D01*
X217943087Y-129817700D01*
X217888113Y-129832430D01*
X217833137Y-129847161D01*
X217833132Y-129847164D01*
X217734568Y-129904069D01*
X217734560Y-129904075D01*
X217654075Y-129984560D01*
X217654069Y-129984568D01*
X217597164Y-130083132D01*
X217597161Y-130083137D01*
X217577520Y-130156437D01*
X217567700Y-130193087D01*
X169254500Y-130193087D01*
X169254500Y-128543087D01*
X178067700Y-128543087D01*
X178067700Y-128656913D01*
X178067701Y-128656915D01*
X178097161Y-128766862D01*
X178097164Y-128766867D01*
X178154069Y-128865431D01*
X178154073Y-128865436D01*
X178154074Y-128865438D01*
X178234562Y-128945926D01*
X178234564Y-128945927D01*
X178234568Y-128945930D01*
X178270833Y-128966867D01*
X178333139Y-129002839D01*
X178443087Y-129032300D01*
X178443089Y-129032300D01*
X178556911Y-129032300D01*
X178556913Y-129032300D01*
X178666861Y-129002839D01*
X178765438Y-128945926D01*
X178845926Y-128865438D01*
X178902839Y-128766861D01*
X178909209Y-128743087D01*
X203942700Y-128743087D01*
X203942700Y-128856913D01*
X203944985Y-128865439D01*
X203972161Y-128966862D01*
X203972164Y-128966867D01*
X204029069Y-129065431D01*
X204029073Y-129065436D01*
X204029074Y-129065438D01*
X204109562Y-129145926D01*
X204109564Y-129145927D01*
X204109568Y-129145930D01*
X204145833Y-129166867D01*
X204208139Y-129202839D01*
X204318087Y-129232300D01*
X204318089Y-129232300D01*
X204431911Y-129232300D01*
X204431913Y-129232300D01*
X204541861Y-129202839D01*
X204640438Y-129145926D01*
X204720926Y-129065438D01*
X204777839Y-128966861D01*
X204807300Y-128856913D01*
X204807300Y-128743087D01*
X204777839Y-128633139D01*
X204757067Y-128597161D01*
X204720930Y-128534568D01*
X204720924Y-128534560D01*
X204640439Y-128454075D01*
X204640431Y-128454069D01*
X204541867Y-128397164D01*
X204541862Y-128397161D01*
X204505211Y-128387340D01*
X204431913Y-128367700D01*
X204318087Y-128367700D01*
X204263113Y-128382430D01*
X204208137Y-128397161D01*
X204208132Y-128397164D01*
X204109568Y-128454069D01*
X204109560Y-128454075D01*
X204029075Y-128534560D01*
X204029069Y-128534568D01*
X203972164Y-128633132D01*
X203972161Y-128633137D01*
X203965790Y-128656915D01*
X203942700Y-128743087D01*
X178909209Y-128743087D01*
X178932300Y-128656913D01*
X178932300Y-128543087D01*
X178902839Y-128433139D01*
X178885747Y-128403535D01*
X178845930Y-128334568D01*
X178845924Y-128334560D01*
X178765439Y-128254075D01*
X178765431Y-128254069D01*
X178666867Y-128197164D01*
X178666862Y-128197161D01*
X178630211Y-128187340D01*
X178556913Y-128167700D01*
X178443087Y-128167700D01*
X178388113Y-128182430D01*
X178333137Y-128197161D01*
X178333132Y-128197164D01*
X178234568Y-128254069D01*
X178234560Y-128254075D01*
X178154075Y-128334560D01*
X178154069Y-128334568D01*
X178097164Y-128433132D01*
X178097161Y-128433137D01*
X178091551Y-128454074D01*
X178067700Y-128543087D01*
X169254500Y-128543087D01*
X169254500Y-127843087D01*
X189767700Y-127843087D01*
X189767700Y-127956913D01*
X189787340Y-128030211D01*
X189797161Y-128066862D01*
X189797164Y-128066867D01*
X189854069Y-128165431D01*
X189854073Y-128165436D01*
X189854074Y-128165438D01*
X189934562Y-128245926D01*
X189934564Y-128245927D01*
X189934568Y-128245930D01*
X189969558Y-128266131D01*
X190033139Y-128302839D01*
X190143087Y-128332300D01*
X190143089Y-128332300D01*
X190256911Y-128332300D01*
X190256913Y-128332300D01*
X190366861Y-128302839D01*
X190465438Y-128245926D01*
X190512319Y-128199045D01*
X190573642Y-128165560D01*
X190643334Y-128170544D01*
X190687681Y-128199045D01*
X190734562Y-128245926D01*
X190734564Y-128245927D01*
X190734568Y-128245930D01*
X190769558Y-128266131D01*
X190833139Y-128302839D01*
X190943087Y-128332300D01*
X190943089Y-128332300D01*
X191056911Y-128332300D01*
X191056913Y-128332300D01*
X191166861Y-128302839D01*
X191265438Y-128245926D01*
X191345926Y-128165438D01*
X191402839Y-128066861D01*
X191432300Y-127956913D01*
X191432300Y-127843087D01*
X191402839Y-127733139D01*
X191400000Y-127728221D01*
X191345930Y-127634568D01*
X191345924Y-127634560D01*
X191265439Y-127554075D01*
X191265431Y-127554069D01*
X191166867Y-127497164D01*
X191166862Y-127497161D01*
X191142803Y-127490714D01*
X191056913Y-127467700D01*
X190943087Y-127467700D01*
X190890052Y-127481911D01*
X190833137Y-127497161D01*
X190833132Y-127497164D01*
X190734568Y-127554069D01*
X190734560Y-127554075D01*
X190687681Y-127600955D01*
X190626358Y-127634440D01*
X190556666Y-127629456D01*
X190512319Y-127600955D01*
X190465439Y-127554075D01*
X190465431Y-127554069D01*
X190366867Y-127497164D01*
X190366862Y-127497161D01*
X190330211Y-127487340D01*
X190256913Y-127467700D01*
X190143087Y-127467700D01*
X190090052Y-127481911D01*
X190033137Y-127497161D01*
X190033132Y-127497164D01*
X189934568Y-127554069D01*
X189934560Y-127554075D01*
X189854075Y-127634560D01*
X189854069Y-127634568D01*
X189797164Y-127733132D01*
X189797161Y-127733137D01*
X189777520Y-127806437D01*
X189767700Y-127843087D01*
X169254500Y-127843087D01*
X169254500Y-127368087D01*
X192067700Y-127368087D01*
X192067700Y-127481913D01*
X192071786Y-127497161D01*
X192097161Y-127591862D01*
X192097164Y-127591867D01*
X192154069Y-127690431D01*
X192154073Y-127690436D01*
X192154074Y-127690438D01*
X192234562Y-127770926D01*
X192234564Y-127770927D01*
X192234568Y-127770930D01*
X192333132Y-127827835D01*
X192333139Y-127827839D01*
X192443087Y-127857300D01*
X192443089Y-127857300D01*
X192556911Y-127857300D01*
X192556913Y-127857300D01*
X192609956Y-127843087D01*
X209042700Y-127843087D01*
X209042700Y-127956913D01*
X209062340Y-128030211D01*
X209072161Y-128066862D01*
X209072164Y-128066867D01*
X209129069Y-128165431D01*
X209129073Y-128165436D01*
X209129074Y-128165438D01*
X209209562Y-128245926D01*
X209209564Y-128245927D01*
X209209568Y-128245930D01*
X209244558Y-128266131D01*
X209308139Y-128302839D01*
X209418087Y-128332300D01*
X209418089Y-128332300D01*
X209531911Y-128332300D01*
X209531913Y-128332300D01*
X209641861Y-128302839D01*
X209740438Y-128245926D01*
X209820926Y-128165438D01*
X209877839Y-128066861D01*
X209907300Y-127956913D01*
X209907300Y-127943787D01*
X211063030Y-127943787D01*
X211063030Y-128057613D01*
X211065510Y-128066867D01*
X211092491Y-128167562D01*
X211092494Y-128167567D01*
X211149399Y-128266131D01*
X211149403Y-128266136D01*
X211149404Y-128266138D01*
X211229892Y-128346626D01*
X211229894Y-128346627D01*
X211229898Y-128346630D01*
X211328462Y-128403535D01*
X211328469Y-128403539D01*
X211438417Y-128433000D01*
X211438419Y-128433000D01*
X211552241Y-128433000D01*
X211552243Y-128433000D01*
X211662191Y-128403539D01*
X211760768Y-128346626D01*
X211841256Y-128266138D01*
X211898169Y-128167561D01*
X211927630Y-128057613D01*
X211927630Y-127943787D01*
X211927442Y-127943087D01*
X217567700Y-127943087D01*
X217567700Y-128056913D01*
X217587340Y-128130211D01*
X217597161Y-128166862D01*
X217597164Y-128166867D01*
X217654069Y-128265431D01*
X217654073Y-128265436D01*
X217654074Y-128265438D01*
X217734562Y-128345926D01*
X217734563Y-128345927D01*
X217734565Y-128345928D01*
X217815426Y-128392613D01*
X217863641Y-128443180D01*
X217876865Y-128511787D01*
X217850897Y-128576652D01*
X217815426Y-128607387D01*
X217734565Y-128654071D01*
X217734560Y-128654075D01*
X217654075Y-128734560D01*
X217654069Y-128734568D01*
X217597164Y-128833132D01*
X217597161Y-128833137D01*
X217588508Y-128865431D01*
X217567700Y-128943087D01*
X217567700Y-129056913D01*
X217569985Y-129065439D01*
X217597161Y-129166862D01*
X217597164Y-129166867D01*
X217654069Y-129265431D01*
X217654073Y-129265436D01*
X217654074Y-129265438D01*
X217734562Y-129345926D01*
X217734564Y-129345927D01*
X217734568Y-129345930D01*
X217833132Y-129402835D01*
X217833139Y-129402839D01*
X217943087Y-129432300D01*
X217943089Y-129432300D01*
X218056911Y-129432300D01*
X218056913Y-129432300D01*
X218166861Y-129402839D01*
X218265438Y-129345926D01*
X218345926Y-129265438D01*
X218402839Y-129166861D01*
X218432300Y-129056913D01*
X218432300Y-128943087D01*
X218402839Y-128833139D01*
X218402835Y-128833132D01*
X218345930Y-128734568D01*
X218345924Y-128734560D01*
X218265439Y-128654075D01*
X218265438Y-128654074D01*
X218184572Y-128607386D01*
X218136358Y-128556821D01*
X218123134Y-128488214D01*
X218149102Y-128423349D01*
X218184572Y-128392613D01*
X218265438Y-128345926D01*
X218345926Y-128265438D01*
X218402839Y-128166861D01*
X218432300Y-128056913D01*
X218432300Y-127943087D01*
X218402839Y-127833139D01*
X218399779Y-127827839D01*
X218345930Y-127734568D01*
X218345924Y-127734560D01*
X218265439Y-127654075D01*
X218265431Y-127654069D01*
X218166867Y-127597164D01*
X218166862Y-127597161D01*
X218130211Y-127587340D01*
X218056913Y-127567700D01*
X217943087Y-127567700D01*
X217888113Y-127582430D01*
X217833137Y-127597161D01*
X217833132Y-127597164D01*
X217734568Y-127654069D01*
X217734560Y-127654075D01*
X217654075Y-127734560D01*
X217654069Y-127734568D01*
X217597164Y-127833132D01*
X217597161Y-127833137D01*
X217596973Y-127833839D01*
X217567700Y-127943087D01*
X211927442Y-127943087D01*
X211898169Y-127833839D01*
X211861849Y-127770930D01*
X211841260Y-127735268D01*
X211841254Y-127735260D01*
X211760769Y-127654775D01*
X211760761Y-127654769D01*
X211662197Y-127597864D01*
X211662192Y-127597861D01*
X211625541Y-127588040D01*
X211552243Y-127568400D01*
X211438417Y-127568400D01*
X211383443Y-127583130D01*
X211328467Y-127597861D01*
X211328462Y-127597864D01*
X211229898Y-127654769D01*
X211229890Y-127654775D01*
X211149405Y-127735260D01*
X211149399Y-127735268D01*
X211092494Y-127833832D01*
X211092491Y-127833837D01*
X211072850Y-127907137D01*
X211063030Y-127943787D01*
X209907300Y-127943787D01*
X209907300Y-127843087D01*
X209877839Y-127733139D01*
X209875000Y-127728221D01*
X209820930Y-127634568D01*
X209820924Y-127634560D01*
X209740439Y-127554075D01*
X209740431Y-127554069D01*
X209641867Y-127497164D01*
X209641862Y-127497161D01*
X209605211Y-127487340D01*
X209531913Y-127467700D01*
X209418087Y-127467700D01*
X209365052Y-127481911D01*
X209308137Y-127497161D01*
X209308132Y-127497164D01*
X209209568Y-127554069D01*
X209209560Y-127554075D01*
X209129075Y-127634560D01*
X209129069Y-127634568D01*
X209072164Y-127733132D01*
X209072161Y-127733137D01*
X209052520Y-127806437D01*
X209042700Y-127843087D01*
X192609956Y-127843087D01*
X192666861Y-127827839D01*
X192765438Y-127770926D01*
X192845926Y-127690438D01*
X192902839Y-127591861D01*
X192932300Y-127481913D01*
X192932300Y-127368087D01*
X192902839Y-127258139D01*
X192863753Y-127190439D01*
X192845930Y-127159568D01*
X192845924Y-127159560D01*
X192765439Y-127079075D01*
X192765431Y-127079069D01*
X192666867Y-127022164D01*
X192666862Y-127022161D01*
X192630211Y-127012340D01*
X192556913Y-126992700D01*
X192443087Y-126992700D01*
X192388113Y-127007430D01*
X192333137Y-127022161D01*
X192333132Y-127022164D01*
X192234568Y-127079069D01*
X192234560Y-127079075D01*
X192154075Y-127159560D01*
X192154069Y-127159568D01*
X192097164Y-127258132D01*
X192097161Y-127258137D01*
X192078486Y-127327835D01*
X192067700Y-127368087D01*
X169254500Y-127368087D01*
X169254500Y-126868087D01*
X186542700Y-126868087D01*
X186542700Y-126981913D01*
X186562340Y-127055211D01*
X186572161Y-127091862D01*
X186572164Y-127091867D01*
X186629069Y-127190431D01*
X186629073Y-127190436D01*
X186629074Y-127190438D01*
X186709562Y-127270926D01*
X186709564Y-127270927D01*
X186709568Y-127270930D01*
X186808132Y-127327835D01*
X186808139Y-127327839D01*
X186918087Y-127357300D01*
X186918089Y-127357300D01*
X187031911Y-127357300D01*
X187031913Y-127357300D01*
X187141861Y-127327839D01*
X187240438Y-127270926D01*
X187320926Y-127190438D01*
X187377839Y-127091861D01*
X187407300Y-126981913D01*
X187407300Y-126868087D01*
X187377839Y-126758139D01*
X187340282Y-126693087D01*
X217567700Y-126693087D01*
X217567700Y-126806913D01*
X217584092Y-126868087D01*
X217597161Y-126916862D01*
X217597164Y-126916867D01*
X217654069Y-127015431D01*
X217654073Y-127015436D01*
X217654074Y-127015438D01*
X217734562Y-127095926D01*
X217734564Y-127095927D01*
X217734568Y-127095930D01*
X217833132Y-127152835D01*
X217833139Y-127152839D01*
X217943087Y-127182300D01*
X217943089Y-127182300D01*
X218056911Y-127182300D01*
X218056913Y-127182300D01*
X218166861Y-127152839D01*
X218265438Y-127095926D01*
X218345926Y-127015438D01*
X218402839Y-126916861D01*
X218432300Y-126806913D01*
X218432300Y-126693087D01*
X218402839Y-126583139D01*
X218400489Y-126579069D01*
X218345930Y-126484568D01*
X218345924Y-126484560D01*
X218265439Y-126404075D01*
X218265431Y-126404069D01*
X218166867Y-126347164D01*
X218166862Y-126347161D01*
X218130211Y-126337340D01*
X218056913Y-126317700D01*
X217943087Y-126317700D01*
X217888113Y-126332430D01*
X217833137Y-126347161D01*
X217833132Y-126347164D01*
X217734568Y-126404069D01*
X217734560Y-126404075D01*
X217654075Y-126484560D01*
X217654069Y-126484568D01*
X217597164Y-126583132D01*
X217597161Y-126583137D01*
X217577520Y-126656437D01*
X217567700Y-126693087D01*
X187340282Y-126693087D01*
X187320926Y-126659562D01*
X187240438Y-126579074D01*
X187240436Y-126579073D01*
X187240431Y-126579069D01*
X187141867Y-126522164D01*
X187141862Y-126522161D01*
X187105211Y-126512340D01*
X187031913Y-126492700D01*
X186918087Y-126492700D01*
X186863113Y-126507430D01*
X186808137Y-126522161D01*
X186808132Y-126522164D01*
X186709568Y-126579069D01*
X186709560Y-126579075D01*
X186629075Y-126659560D01*
X186629069Y-126659568D01*
X186572164Y-126758132D01*
X186572161Y-126758137D01*
X186559092Y-126806911D01*
X186542700Y-126868087D01*
X169254500Y-126868087D01*
X169254500Y-125443087D01*
X217567700Y-125443087D01*
X217567700Y-125556913D01*
X217587340Y-125630211D01*
X217597161Y-125666862D01*
X217597164Y-125666867D01*
X217654069Y-125765431D01*
X217654073Y-125765436D01*
X217654074Y-125765438D01*
X217734562Y-125845926D01*
X217734564Y-125845927D01*
X217734568Y-125845930D01*
X217833132Y-125902835D01*
X217833139Y-125902839D01*
X217943087Y-125932300D01*
X217943089Y-125932300D01*
X218056911Y-125932300D01*
X218056913Y-125932300D01*
X218166861Y-125902839D01*
X218265438Y-125845926D01*
X218345926Y-125765438D01*
X218402839Y-125666861D01*
X218432300Y-125556913D01*
X218432300Y-125443087D01*
X218402839Y-125333139D01*
X218402835Y-125333132D01*
X218345930Y-125234568D01*
X218345924Y-125234560D01*
X218265439Y-125154075D01*
X218265431Y-125154069D01*
X218166867Y-125097164D01*
X218166862Y-125097161D01*
X218130211Y-125087340D01*
X218056913Y-125067700D01*
X217943087Y-125067700D01*
X217888113Y-125082430D01*
X217833137Y-125097161D01*
X217833132Y-125097164D01*
X217734568Y-125154069D01*
X217734560Y-125154075D01*
X217654075Y-125234560D01*
X217654069Y-125234568D01*
X217597164Y-125333132D01*
X217597161Y-125333137D01*
X217577520Y-125406437D01*
X217567700Y-125443087D01*
X169254500Y-125443087D01*
X169254500Y-124543087D01*
X186542700Y-124543087D01*
X186542700Y-124656913D01*
X186549503Y-124682300D01*
X186572161Y-124766862D01*
X186572164Y-124766867D01*
X186629069Y-124865431D01*
X186629073Y-124865436D01*
X186629074Y-124865438D01*
X186709562Y-124945926D01*
X186709564Y-124945927D01*
X186709568Y-124945930D01*
X186808132Y-125002835D01*
X186808139Y-125002839D01*
X186918087Y-125032300D01*
X186918089Y-125032300D01*
X187031911Y-125032300D01*
X187031913Y-125032300D01*
X187141861Y-125002839D01*
X187240438Y-124945926D01*
X187320926Y-124865438D01*
X187377839Y-124766861D01*
X187407300Y-124656913D01*
X187407300Y-124543087D01*
X187377839Y-124433139D01*
X187377835Y-124433132D01*
X187320930Y-124334568D01*
X187320924Y-124334560D01*
X187240439Y-124254075D01*
X187240431Y-124254069D01*
X187141867Y-124197164D01*
X187141862Y-124197161D01*
X187126658Y-124193087D01*
X217567700Y-124193087D01*
X217567700Y-124306913D01*
X217587340Y-124380211D01*
X217597161Y-124416862D01*
X217597164Y-124416867D01*
X217654069Y-124515431D01*
X217654073Y-124515436D01*
X217654074Y-124515438D01*
X217734562Y-124595926D01*
X217734564Y-124595927D01*
X217734568Y-124595930D01*
X217833132Y-124652835D01*
X217833139Y-124652839D01*
X217943087Y-124682300D01*
X217943089Y-124682300D01*
X218056911Y-124682300D01*
X218056913Y-124682300D01*
X218166861Y-124652839D01*
X218265438Y-124595926D01*
X218345926Y-124515438D01*
X218402839Y-124416861D01*
X218432300Y-124306913D01*
X218432300Y-124193087D01*
X218402839Y-124083139D01*
X218402835Y-124083132D01*
X218345930Y-123984568D01*
X218345924Y-123984560D01*
X218265439Y-123904075D01*
X218265431Y-123904069D01*
X218166867Y-123847164D01*
X218166862Y-123847161D01*
X218130211Y-123837340D01*
X218056913Y-123817700D01*
X217943087Y-123817700D01*
X217888113Y-123832430D01*
X217833137Y-123847161D01*
X217833132Y-123847164D01*
X217734568Y-123904069D01*
X217734560Y-123904075D01*
X217654075Y-123984560D01*
X217654069Y-123984568D01*
X217597164Y-124083132D01*
X217597161Y-124083137D01*
X217577520Y-124156437D01*
X217567700Y-124193087D01*
X187126658Y-124193087D01*
X187105211Y-124187340D01*
X187031913Y-124167700D01*
X186918087Y-124167700D01*
X186863113Y-124182430D01*
X186808137Y-124197161D01*
X186808132Y-124197164D01*
X186709568Y-124254069D01*
X186709560Y-124254075D01*
X186629075Y-124334560D01*
X186629069Y-124334568D01*
X186572164Y-124433132D01*
X186572161Y-124433137D01*
X186552520Y-124506437D01*
X186542700Y-124543087D01*
X169254500Y-124543087D01*
X169254500Y-123157287D01*
X190042700Y-123157287D01*
X190042700Y-123271113D01*
X190062340Y-123344411D01*
X190072161Y-123381062D01*
X190072164Y-123381067D01*
X190129069Y-123479631D01*
X190129073Y-123479636D01*
X190129074Y-123479638D01*
X190209562Y-123560126D01*
X190209564Y-123560127D01*
X190209568Y-123560130D01*
X190308132Y-123617035D01*
X190308139Y-123617039D01*
X190418087Y-123646500D01*
X190418089Y-123646500D01*
X190531911Y-123646500D01*
X190531913Y-123646500D01*
X190641861Y-123617039D01*
X190740438Y-123560126D01*
X190820926Y-123479638D01*
X190877839Y-123381061D01*
X190907300Y-123271113D01*
X190907300Y-123157287D01*
X190877839Y-123047339D01*
X190820929Y-122948768D01*
X190820928Y-122948765D01*
X190820924Y-122948760D01*
X190815251Y-122943087D01*
X217567700Y-122943087D01*
X217567700Y-123056913D01*
X217587340Y-123130211D01*
X217597161Y-123166862D01*
X217597164Y-123166867D01*
X217654069Y-123265431D01*
X217654073Y-123265436D01*
X217654074Y-123265438D01*
X217734562Y-123345926D01*
X217734564Y-123345927D01*
X217734568Y-123345930D01*
X217795428Y-123381067D01*
X217833139Y-123402839D01*
X217943087Y-123432300D01*
X217943089Y-123432300D01*
X218056911Y-123432300D01*
X218056913Y-123432300D01*
X218166861Y-123402839D01*
X218265438Y-123345926D01*
X218345926Y-123265438D01*
X218402839Y-123166861D01*
X218432300Y-123056913D01*
X218432300Y-122943087D01*
X218402839Y-122833139D01*
X218390266Y-122811361D01*
X218345930Y-122734568D01*
X218345924Y-122734560D01*
X218265439Y-122654075D01*
X218265431Y-122654069D01*
X218166867Y-122597164D01*
X218166862Y-122597161D01*
X218130211Y-122587340D01*
X218056913Y-122567700D01*
X217943087Y-122567700D01*
X217888113Y-122582430D01*
X217833137Y-122597161D01*
X217833132Y-122597164D01*
X217734568Y-122654069D01*
X217734560Y-122654075D01*
X217654075Y-122734560D01*
X217654069Y-122734568D01*
X217597164Y-122833132D01*
X217597161Y-122833137D01*
X217587746Y-122868274D01*
X217567700Y-122943087D01*
X190815251Y-122943087D01*
X190740439Y-122868275D01*
X190740431Y-122868269D01*
X190641867Y-122811364D01*
X190641862Y-122811361D01*
X190605211Y-122801540D01*
X190531913Y-122781900D01*
X190418087Y-122781900D01*
X190363113Y-122796630D01*
X190308137Y-122811361D01*
X190308132Y-122811364D01*
X190209568Y-122868269D01*
X190209560Y-122868275D01*
X190129075Y-122948760D01*
X190129069Y-122948768D01*
X190072164Y-123047332D01*
X190072161Y-123047337D01*
X190052520Y-123120637D01*
X190042700Y-123157287D01*
X169254500Y-123157287D01*
X169254500Y-122293087D01*
X204942700Y-122293087D01*
X204942700Y-122406913D01*
X204962340Y-122480211D01*
X204972161Y-122516862D01*
X204972164Y-122516867D01*
X205029069Y-122615431D01*
X205029073Y-122615436D01*
X205029074Y-122615438D01*
X205109562Y-122695926D01*
X205109564Y-122695927D01*
X205109568Y-122695930D01*
X205176482Y-122734562D01*
X205208139Y-122752839D01*
X205318087Y-122782300D01*
X205318089Y-122782300D01*
X205431911Y-122782300D01*
X205431913Y-122782300D01*
X205541861Y-122752839D01*
X205640438Y-122695926D01*
X205720926Y-122615438D01*
X205777839Y-122516861D01*
X205807300Y-122406913D01*
X205807300Y-122293087D01*
X205777839Y-122183139D01*
X205777835Y-122183132D01*
X205720930Y-122084568D01*
X205720924Y-122084560D01*
X205640439Y-122004075D01*
X205640431Y-122004069D01*
X205541867Y-121947164D01*
X205541862Y-121947161D01*
X205505211Y-121937340D01*
X205431913Y-121917700D01*
X205318087Y-121917700D01*
X205263113Y-121932430D01*
X205208137Y-121947161D01*
X205208132Y-121947164D01*
X205109568Y-122004069D01*
X205109560Y-122004075D01*
X205029075Y-122084560D01*
X205029069Y-122084568D01*
X204972164Y-122183132D01*
X204972161Y-122183137D01*
X204952520Y-122256437D01*
X204942700Y-122293087D01*
X169254500Y-122293087D01*
X169254500Y-117873723D01*
X170745500Y-117873723D01*
X170745500Y-118126276D01*
X170785009Y-118375722D01*
X170785009Y-118375725D01*
X170863050Y-118615911D01*
X170863051Y-118615914D01*
X170977709Y-118840941D01*
X171126156Y-119045261D01*
X171304739Y-119223844D01*
X171509059Y-119372291D01*
X171619428Y-119428526D01*
X171734085Y-119486948D01*
X171734088Y-119486949D01*
X171958123Y-119559741D01*
X171974279Y-119564991D01*
X172223723Y-119604500D01*
X172223724Y-119604500D01*
X172476276Y-119604500D01*
X172476277Y-119604500D01*
X172725721Y-119564991D01*
X172725724Y-119564990D01*
X172725725Y-119564990D01*
X172965911Y-119486949D01*
X172965914Y-119486948D01*
X173190941Y-119372291D01*
X173395261Y-119223844D01*
X173573844Y-119045261D01*
X173722291Y-118840941D01*
X173836948Y-118615914D01*
X173914991Y-118375721D01*
X173954500Y-118126277D01*
X173954500Y-117873723D01*
X173914991Y-117624279D01*
X173914990Y-117624275D01*
X173914990Y-117624274D01*
X173836949Y-117384088D01*
X173836948Y-117384085D01*
X173722290Y-117159058D01*
X173573844Y-116954739D01*
X173495400Y-116876295D01*
X178945000Y-116876295D01*
X178945000Y-118878704D01*
X178984484Y-119077203D01*
X178984486Y-119077211D01*
X179061939Y-119264201D01*
X179061944Y-119264210D01*
X179174387Y-119432492D01*
X179174390Y-119432496D01*
X179317503Y-119575609D01*
X179317507Y-119575612D01*
X179485789Y-119688055D01*
X179485795Y-119688058D01*
X179485796Y-119688059D01*
X179672789Y-119765514D01*
X179871295Y-119804999D01*
X179871299Y-119805000D01*
X179871300Y-119805000D01*
X180073701Y-119805000D01*
X180073702Y-119804999D01*
X180272211Y-119765514D01*
X180459204Y-119688059D01*
X180627493Y-119575612D01*
X180770612Y-119432493D01*
X180883059Y-119264204D01*
X180960514Y-119077211D01*
X181000000Y-118878700D01*
X181000000Y-116876300D01*
X180999999Y-116876295D01*
X182445000Y-116876295D01*
X182445000Y-118878704D01*
X182484484Y-119077203D01*
X182484486Y-119077211D01*
X182561939Y-119264201D01*
X182561944Y-119264210D01*
X182674387Y-119432492D01*
X182674390Y-119432496D01*
X182817503Y-119575609D01*
X182817507Y-119575612D01*
X182985789Y-119688055D01*
X182985795Y-119688058D01*
X182985796Y-119688059D01*
X183172789Y-119765514D01*
X183371295Y-119804999D01*
X183371299Y-119805000D01*
X183371300Y-119805000D01*
X183573701Y-119805000D01*
X183573702Y-119804999D01*
X183772211Y-119765514D01*
X183959204Y-119688059D01*
X184127493Y-119575612D01*
X184270612Y-119432493D01*
X184383059Y-119264204D01*
X184460514Y-119077211D01*
X184500000Y-118878700D01*
X184500000Y-116876300D01*
X184499999Y-116876295D01*
X185945000Y-116876295D01*
X185945000Y-118878704D01*
X185984484Y-119077203D01*
X185984486Y-119077211D01*
X186061939Y-119264201D01*
X186061944Y-119264210D01*
X186174387Y-119432492D01*
X186174390Y-119432496D01*
X186317503Y-119575609D01*
X186317507Y-119575612D01*
X186485789Y-119688055D01*
X186485795Y-119688058D01*
X186485796Y-119688059D01*
X186672789Y-119765514D01*
X186871295Y-119804999D01*
X186871299Y-119805000D01*
X186871300Y-119805000D01*
X187073701Y-119805000D01*
X187073702Y-119804999D01*
X187272211Y-119765514D01*
X187459204Y-119688059D01*
X187627493Y-119575612D01*
X187770612Y-119432493D01*
X187883059Y-119264204D01*
X187960514Y-119077211D01*
X188000000Y-118878700D01*
X188000000Y-116876300D01*
X187999999Y-116876295D01*
X189445000Y-116876295D01*
X189445000Y-118878704D01*
X189484484Y-119077203D01*
X189484486Y-119077211D01*
X189561939Y-119264201D01*
X189561944Y-119264210D01*
X189674387Y-119432492D01*
X189674390Y-119432496D01*
X189817503Y-119575609D01*
X189817507Y-119575612D01*
X189985789Y-119688055D01*
X189985795Y-119688058D01*
X189985796Y-119688059D01*
X190172789Y-119765514D01*
X190371295Y-119804999D01*
X190371299Y-119805000D01*
X190371300Y-119805000D01*
X190573701Y-119805000D01*
X190573702Y-119804999D01*
X190772211Y-119765514D01*
X190959204Y-119688059D01*
X191127493Y-119575612D01*
X191270612Y-119432493D01*
X191383059Y-119264204D01*
X191460514Y-119077211D01*
X191500000Y-118878700D01*
X191500000Y-116876300D01*
X191499999Y-116876295D01*
X192945000Y-116876295D01*
X192945000Y-118878704D01*
X192984484Y-119077203D01*
X192984486Y-119077211D01*
X193061939Y-119264201D01*
X193061944Y-119264210D01*
X193174387Y-119432492D01*
X193174390Y-119432496D01*
X193317503Y-119575609D01*
X193317507Y-119575612D01*
X193485789Y-119688055D01*
X193485795Y-119688058D01*
X193485796Y-119688059D01*
X193672789Y-119765514D01*
X193871295Y-119804999D01*
X193871299Y-119805000D01*
X193871300Y-119805000D01*
X194073701Y-119805000D01*
X194073702Y-119804999D01*
X194272211Y-119765514D01*
X194459204Y-119688059D01*
X194627493Y-119575612D01*
X194770612Y-119432493D01*
X194883059Y-119264204D01*
X194960514Y-119077211D01*
X195000000Y-118878700D01*
X195000000Y-116876300D01*
X194999999Y-116876295D01*
X202345000Y-116876295D01*
X202345000Y-118878704D01*
X202384484Y-119077203D01*
X202384486Y-119077211D01*
X202461939Y-119264201D01*
X202461944Y-119264210D01*
X202574387Y-119432492D01*
X202574390Y-119432496D01*
X202717503Y-119575609D01*
X202717507Y-119575612D01*
X202885789Y-119688055D01*
X202885795Y-119688058D01*
X202885796Y-119688059D01*
X203072789Y-119765514D01*
X203271295Y-119804999D01*
X203271299Y-119805000D01*
X203271300Y-119805000D01*
X203473701Y-119805000D01*
X203473702Y-119804999D01*
X203672211Y-119765514D01*
X203859204Y-119688059D01*
X204027493Y-119575612D01*
X204170612Y-119432493D01*
X204283059Y-119264204D01*
X204360514Y-119077211D01*
X204400000Y-118878700D01*
X204400000Y-116876300D01*
X204399999Y-116876295D01*
X205845000Y-116876295D01*
X205845000Y-118878704D01*
X205884484Y-119077203D01*
X205884486Y-119077211D01*
X205961939Y-119264201D01*
X205961944Y-119264210D01*
X206074387Y-119432492D01*
X206074390Y-119432496D01*
X206217503Y-119575609D01*
X206217507Y-119575612D01*
X206385789Y-119688055D01*
X206385795Y-119688058D01*
X206385796Y-119688059D01*
X206572789Y-119765514D01*
X206771295Y-119804999D01*
X206771299Y-119805000D01*
X206771300Y-119805000D01*
X206973701Y-119805000D01*
X206973702Y-119804999D01*
X207172211Y-119765514D01*
X207359204Y-119688059D01*
X207527493Y-119575612D01*
X207670612Y-119432493D01*
X207783059Y-119264204D01*
X207860514Y-119077211D01*
X207900000Y-118878700D01*
X207900000Y-116876300D01*
X207899999Y-116876295D01*
X209345000Y-116876295D01*
X209345000Y-118878704D01*
X209384484Y-119077203D01*
X209384486Y-119077211D01*
X209461939Y-119264201D01*
X209461944Y-119264210D01*
X209574387Y-119432492D01*
X209574390Y-119432496D01*
X209717503Y-119575609D01*
X209717507Y-119575612D01*
X209885789Y-119688055D01*
X209885795Y-119688058D01*
X209885796Y-119688059D01*
X210072789Y-119765514D01*
X210271295Y-119804999D01*
X210271299Y-119805000D01*
X210271300Y-119805000D01*
X210473701Y-119805000D01*
X210473702Y-119804999D01*
X210672211Y-119765514D01*
X210859204Y-119688059D01*
X211027493Y-119575612D01*
X211170612Y-119432493D01*
X211283059Y-119264204D01*
X211360514Y-119077211D01*
X211400000Y-118878700D01*
X211400000Y-116876300D01*
X211399999Y-116876295D01*
X212845000Y-116876295D01*
X212845000Y-118878704D01*
X212884484Y-119077203D01*
X212884486Y-119077211D01*
X212961939Y-119264201D01*
X212961944Y-119264210D01*
X213074387Y-119432492D01*
X213074390Y-119432496D01*
X213217503Y-119575609D01*
X213217507Y-119575612D01*
X213385789Y-119688055D01*
X213385795Y-119688058D01*
X213385796Y-119688059D01*
X213572789Y-119765514D01*
X213771295Y-119804999D01*
X213771299Y-119805000D01*
X213771300Y-119805000D01*
X213973701Y-119805000D01*
X213973702Y-119804999D01*
X214172211Y-119765514D01*
X214359204Y-119688059D01*
X214527493Y-119575612D01*
X214670612Y-119432493D01*
X214783059Y-119264204D01*
X214860514Y-119077211D01*
X214900000Y-118878700D01*
X214900000Y-117873723D01*
X223745500Y-117873723D01*
X223745500Y-118126276D01*
X223785009Y-118375722D01*
X223785009Y-118375725D01*
X223863050Y-118615911D01*
X223863051Y-118615914D01*
X223977709Y-118840941D01*
X224126156Y-119045261D01*
X224304739Y-119223844D01*
X224509059Y-119372291D01*
X224619428Y-119428526D01*
X224734085Y-119486948D01*
X224734088Y-119486949D01*
X224958123Y-119559741D01*
X224974279Y-119564991D01*
X225223723Y-119604500D01*
X225223724Y-119604500D01*
X225476276Y-119604500D01*
X225476277Y-119604500D01*
X225725721Y-119564991D01*
X225725724Y-119564990D01*
X225725725Y-119564990D01*
X225965911Y-119486949D01*
X225965914Y-119486948D01*
X226190941Y-119372291D01*
X226395261Y-119223844D01*
X226573844Y-119045261D01*
X226722291Y-118840941D01*
X226836948Y-118615914D01*
X226914991Y-118375721D01*
X226954500Y-118126277D01*
X226954500Y-117873723D01*
X226914991Y-117624279D01*
X226914990Y-117624275D01*
X226914990Y-117624274D01*
X226836949Y-117384088D01*
X226836948Y-117384085D01*
X226722290Y-117159058D01*
X226573844Y-116954739D01*
X226395261Y-116776156D01*
X226190941Y-116627709D01*
X225965914Y-116513051D01*
X225965911Y-116513050D01*
X225725723Y-116435009D01*
X225559425Y-116408669D01*
X225476277Y-116395500D01*
X225223723Y-116395500D01*
X225140575Y-116408669D01*
X224974277Y-116435009D01*
X224974274Y-116435009D01*
X224734088Y-116513050D01*
X224734085Y-116513051D01*
X224509058Y-116627709D01*
X224304736Y-116776158D01*
X224126158Y-116954736D01*
X223977709Y-117159058D01*
X223863051Y-117384085D01*
X223863050Y-117384088D01*
X223785009Y-117624274D01*
X223785009Y-117624277D01*
X223745500Y-117873723D01*
X214900000Y-117873723D01*
X214900000Y-116876300D01*
X214860514Y-116677789D01*
X214783059Y-116490796D01*
X214783058Y-116490795D01*
X214783055Y-116490789D01*
X214670612Y-116322507D01*
X214670609Y-116322503D01*
X214527496Y-116179390D01*
X214527492Y-116179387D01*
X214359210Y-116066944D01*
X214359201Y-116066939D01*
X214172211Y-115989486D01*
X214172203Y-115989484D01*
X213973704Y-115950000D01*
X213973700Y-115950000D01*
X213771300Y-115950000D01*
X213771295Y-115950000D01*
X213572796Y-115989484D01*
X213572788Y-115989486D01*
X213385798Y-116066939D01*
X213385789Y-116066944D01*
X213217507Y-116179387D01*
X213217503Y-116179390D01*
X213074390Y-116322503D01*
X213074387Y-116322507D01*
X212961944Y-116490789D01*
X212961939Y-116490798D01*
X212884486Y-116677788D01*
X212884484Y-116677796D01*
X212845000Y-116876295D01*
X211399999Y-116876295D01*
X211360514Y-116677789D01*
X211283059Y-116490796D01*
X211283058Y-116490795D01*
X211283055Y-116490789D01*
X211170612Y-116322507D01*
X211170609Y-116322503D01*
X211027496Y-116179390D01*
X211027492Y-116179387D01*
X210859210Y-116066944D01*
X210859201Y-116066939D01*
X210672211Y-115989486D01*
X210672203Y-115989484D01*
X210473704Y-115950000D01*
X210473700Y-115950000D01*
X210271300Y-115950000D01*
X210271295Y-115950000D01*
X210072796Y-115989484D01*
X210072788Y-115989486D01*
X209885798Y-116066939D01*
X209885789Y-116066944D01*
X209717507Y-116179387D01*
X209717503Y-116179390D01*
X209574390Y-116322503D01*
X209574387Y-116322507D01*
X209461944Y-116490789D01*
X209461939Y-116490798D01*
X209384486Y-116677788D01*
X209384484Y-116677796D01*
X209345000Y-116876295D01*
X207899999Y-116876295D01*
X207860514Y-116677789D01*
X207783059Y-116490796D01*
X207783058Y-116490795D01*
X207783055Y-116490789D01*
X207670612Y-116322507D01*
X207670609Y-116322503D01*
X207527496Y-116179390D01*
X207527492Y-116179387D01*
X207359210Y-116066944D01*
X207359201Y-116066939D01*
X207172211Y-115989486D01*
X207172203Y-115989484D01*
X206973704Y-115950000D01*
X206973700Y-115950000D01*
X206771300Y-115950000D01*
X206771295Y-115950000D01*
X206572796Y-115989484D01*
X206572788Y-115989486D01*
X206385798Y-116066939D01*
X206385789Y-116066944D01*
X206217507Y-116179387D01*
X206217503Y-116179390D01*
X206074390Y-116322503D01*
X206074387Y-116322507D01*
X205961944Y-116490789D01*
X205961939Y-116490798D01*
X205884486Y-116677788D01*
X205884484Y-116677796D01*
X205845000Y-116876295D01*
X204399999Y-116876295D01*
X204360514Y-116677789D01*
X204283059Y-116490796D01*
X204283058Y-116490795D01*
X204283055Y-116490789D01*
X204170612Y-116322507D01*
X204170609Y-116322503D01*
X204027496Y-116179390D01*
X204027492Y-116179387D01*
X203859210Y-116066944D01*
X203859201Y-116066939D01*
X203672211Y-115989486D01*
X203672203Y-115989484D01*
X203473704Y-115950000D01*
X203473700Y-115950000D01*
X203271300Y-115950000D01*
X203271295Y-115950000D01*
X203072796Y-115989484D01*
X203072788Y-115989486D01*
X202885798Y-116066939D01*
X202885789Y-116066944D01*
X202717507Y-116179387D01*
X202717503Y-116179390D01*
X202574390Y-116322503D01*
X202574387Y-116322507D01*
X202461944Y-116490789D01*
X202461939Y-116490798D01*
X202384486Y-116677788D01*
X202384484Y-116677796D01*
X202345000Y-116876295D01*
X194999999Y-116876295D01*
X194960514Y-116677789D01*
X194883059Y-116490796D01*
X194883058Y-116490795D01*
X194883055Y-116490789D01*
X194770612Y-116322507D01*
X194770609Y-116322503D01*
X194627496Y-116179390D01*
X194627492Y-116179387D01*
X194459210Y-116066944D01*
X194459201Y-116066939D01*
X194272211Y-115989486D01*
X194272203Y-115989484D01*
X194073704Y-115950000D01*
X194073700Y-115950000D01*
X193871300Y-115950000D01*
X193871295Y-115950000D01*
X193672796Y-115989484D01*
X193672788Y-115989486D01*
X193485798Y-116066939D01*
X193485789Y-116066944D01*
X193317507Y-116179387D01*
X193317503Y-116179390D01*
X193174390Y-116322503D01*
X193174387Y-116322507D01*
X193061944Y-116490789D01*
X193061939Y-116490798D01*
X192984486Y-116677788D01*
X192984484Y-116677796D01*
X192945000Y-116876295D01*
X191499999Y-116876295D01*
X191460514Y-116677789D01*
X191383059Y-116490796D01*
X191383058Y-116490795D01*
X191383055Y-116490789D01*
X191270612Y-116322507D01*
X191270609Y-116322503D01*
X191127496Y-116179390D01*
X191127492Y-116179387D01*
X190959210Y-116066944D01*
X190959201Y-116066939D01*
X190772211Y-115989486D01*
X190772203Y-115989484D01*
X190573704Y-115950000D01*
X190573700Y-115950000D01*
X190371300Y-115950000D01*
X190371295Y-115950000D01*
X190172796Y-115989484D01*
X190172788Y-115989486D01*
X189985798Y-116066939D01*
X189985789Y-116066944D01*
X189817507Y-116179387D01*
X189817503Y-116179390D01*
X189674390Y-116322503D01*
X189674387Y-116322507D01*
X189561944Y-116490789D01*
X189561939Y-116490798D01*
X189484486Y-116677788D01*
X189484484Y-116677796D01*
X189445000Y-116876295D01*
X187999999Y-116876295D01*
X187960514Y-116677789D01*
X187883059Y-116490796D01*
X187883058Y-116490795D01*
X187883055Y-116490789D01*
X187770612Y-116322507D01*
X187770609Y-116322503D01*
X187627496Y-116179390D01*
X187627492Y-116179387D01*
X187459210Y-116066944D01*
X187459201Y-116066939D01*
X187272211Y-115989486D01*
X187272203Y-115989484D01*
X187073704Y-115950000D01*
X187073700Y-115950000D01*
X186871300Y-115950000D01*
X186871295Y-115950000D01*
X186672796Y-115989484D01*
X186672788Y-115989486D01*
X186485798Y-116066939D01*
X186485789Y-116066944D01*
X186317507Y-116179387D01*
X186317503Y-116179390D01*
X186174390Y-116322503D01*
X186174387Y-116322507D01*
X186061944Y-116490789D01*
X186061939Y-116490798D01*
X185984486Y-116677788D01*
X185984484Y-116677796D01*
X185945000Y-116876295D01*
X184499999Y-116876295D01*
X184460514Y-116677789D01*
X184383059Y-116490796D01*
X184383058Y-116490795D01*
X184383055Y-116490789D01*
X184270612Y-116322507D01*
X184270609Y-116322503D01*
X184127496Y-116179390D01*
X184127492Y-116179387D01*
X183959210Y-116066944D01*
X183959201Y-116066939D01*
X183772211Y-115989486D01*
X183772203Y-115989484D01*
X183573704Y-115950000D01*
X183573700Y-115950000D01*
X183371300Y-115950000D01*
X183371295Y-115950000D01*
X183172796Y-115989484D01*
X183172788Y-115989486D01*
X182985798Y-116066939D01*
X182985789Y-116066944D01*
X182817507Y-116179387D01*
X182817503Y-116179390D01*
X182674390Y-116322503D01*
X182674387Y-116322507D01*
X182561944Y-116490789D01*
X182561939Y-116490798D01*
X182484486Y-116677788D01*
X182484484Y-116677796D01*
X182445000Y-116876295D01*
X180999999Y-116876295D01*
X180960514Y-116677789D01*
X180883059Y-116490796D01*
X180883058Y-116490795D01*
X180883055Y-116490789D01*
X180770612Y-116322507D01*
X180770609Y-116322503D01*
X180627496Y-116179390D01*
X180627492Y-116179387D01*
X180459210Y-116066944D01*
X180459201Y-116066939D01*
X180272211Y-115989486D01*
X180272203Y-115989484D01*
X180073704Y-115950000D01*
X180073700Y-115950000D01*
X179871300Y-115950000D01*
X179871295Y-115950000D01*
X179672796Y-115989484D01*
X179672788Y-115989486D01*
X179485798Y-116066939D01*
X179485789Y-116066944D01*
X179317507Y-116179387D01*
X179317503Y-116179390D01*
X179174390Y-116322503D01*
X179174387Y-116322507D01*
X179061944Y-116490789D01*
X179061939Y-116490798D01*
X178984486Y-116677788D01*
X178984484Y-116677796D01*
X178945000Y-116876295D01*
X173495400Y-116876295D01*
X173395261Y-116776156D01*
X173190941Y-116627709D01*
X172965914Y-116513051D01*
X172965911Y-116513050D01*
X172725723Y-116435009D01*
X172559425Y-116408669D01*
X172476277Y-116395500D01*
X172223723Y-116395500D01*
X172140575Y-116408669D01*
X171974277Y-116435009D01*
X171974274Y-116435009D01*
X171734088Y-116513050D01*
X171734085Y-116513051D01*
X171509058Y-116627709D01*
X171304736Y-116776158D01*
X171126158Y-116954736D01*
X170977709Y-117159058D01*
X170863051Y-117384085D01*
X170863050Y-117384088D01*
X170785009Y-117624274D01*
X170785009Y-117624277D01*
X170745500Y-117873723D01*
X169254500Y-117873723D01*
X169254500Y-115053480D01*
X169254695Y-115046527D01*
X169257343Y-114999377D01*
X169271059Y-114755141D01*
X169272613Y-114741344D01*
X169320917Y-114457049D01*
X169324006Y-114443514D01*
X169403836Y-114166417D01*
X169408427Y-114153298D01*
X169518778Y-113886885D01*
X169524801Y-113874379D01*
X169664287Y-113622002D01*
X169671684Y-113610229D01*
X169683773Y-113593191D01*
X169838555Y-113375044D01*
X169847206Y-113364197D01*
X170039355Y-113149184D01*
X170049186Y-113139354D01*
X170264197Y-112947206D01*
X170275044Y-112938555D01*
X170510234Y-112771680D01*
X170522002Y-112764287D01*
X170543548Y-112752378D01*
X170774379Y-112624801D01*
X170786885Y-112618778D01*
X171053305Y-112508424D01*
X171066417Y-112503836D01*
X171343514Y-112424006D01*
X171357049Y-112420917D01*
X171641344Y-112372613D01*
X171655141Y-112371059D01*
X171946528Y-112354695D01*
X171953481Y-112354500D01*
X171994875Y-112354500D01*
X225705125Y-112354500D01*
X225746519Y-112354500D01*
X225753472Y-112354695D01*
G37*
%TD.AperFunction*%
%TD*%
M02*
