M48
; DRILL file KiCad 10.0.1 date 2026-07-25T22:17:53
; FORMAT={-:-/ absolute / metric / decimal}
; #@! TF.CreationDate,2026-07-25T22:17:53-04:00
; #@! TF.GenerationSoftware,Kicad,Pcbnew,10.0.1
; #@! TF.FileFunction,Plated,1,4,PTH
FMAT,2
METRIC
; #@! TA.AperFunction,Plated,PTH,ComponentDrill
T1C0.254
; #@! TA.AperFunction,Plated,PTH,ComponentDrill
T2C0.300
; #@! TA.AperFunction,Plated,PTH,ViaDrill
T3C0.305
; #@! TA.AperFunction,Plated,PTH,ComponentDrill
T4C1.200
%
G90
G05
T1
X177.25Y-142.715
X178.1Y-142.715
X178.95Y-142.715
X179.8Y-142.715
X181.735Y-131.79
X181.735Y-132.73
X181.735Y-133.67
X182.885Y-131.79
X182.885Y-132.73
X182.885Y-133.67
T2
X187.442Y-143.165
X187.442Y-144.135
X188.732Y-143.165
X188.732Y-144.135
X192.665Y-125.025
X192.665Y-126.315
X193.635Y-125.025
X193.635Y-126.315
T3
X175.5Y-140.035
X176.225Y-140.035
X176.325Y-137.885
X176.325Y-138.535
X176.325Y-139.185
X176.95Y-140.035
X178.175Y-139.31
X178.475Y-132.05
X178.5Y-128.6
X178.975Y-131.05
X179.106Y-134.295
X179.12Y-133.318
X179.126Y-132.581
X179.225Y-126.95
X179.355Y-145.395
X179.725Y-135.45
X180.325Y-137.885
X180.325Y-138.51
X180.325Y-139.135
X180.325Y-139.76
X180.325Y-140.385
X181.562Y-138.858
X181.568Y-136.822
X181.617Y-144.845
X182.297Y-138.798
X182.305Y-136.822
X182.425Y-128.95
X183.3Y-140.55
X186.975Y-124.6
X186.975Y-126.925
X186.975Y-132.575
X186.975Y-136.0
X187.0Y-131.625
X188.25Y-139.3
X188.8Y-137.325
X189.1Y-139.3
X189.147Y-147.4
X189.8Y-147.0
X190.075Y-131.5
X190.2Y-127.9
X190.475Y-123.214
X190.751Y-139.862
X190.85Y-141.15
X191.0Y-127.9
X191.575Y-143.0
X191.675Y-141.7
X192.325Y-139.25
X192.5Y-127.425
X193.225Y-146.225
X193.925Y-144.5
X193.95Y-140.45
X194.319Y-134.97
X195.075Y-138.6
X195.11Y-137.864
X195.166Y-136.125
X195.797Y-139.56
X195.9Y-140.525
X196.75Y-146.975
X197.159Y-136.125
X197.7Y-137.2
X198.113Y-146.841
X199.15Y-144.35
X199.15Y-145.325
X199.35Y-143.525
X199.925Y-145.75
X200.15Y-137.975
X200.25Y-132.975
X201.05Y-135.525
X201.8Y-145.75
X201.8Y-147.125
X202.65Y-141.375
X202.726Y-132.153
X202.75Y-145.75
X203.35Y-130.95
X203.375Y-122.35
X203.425Y-126.6
X203.65Y-145.75
X204.225Y-141.375
X204.35Y-130.95
X204.375Y-122.375
X204.375Y-128.8
X204.4Y-126.525
X204.575Y-145.75
X204.947Y-132.162
X205.05Y-135.375
X205.294Y-146.457
X205.35Y-126.6
X205.375Y-122.35
X205.5Y-145.75
X206.45Y-145.75
X206.875Y-132.35
X207.825Y-132.35
X207.825Y-134.8
X208.225Y-142.532
X208.322Y-138.912
X208.5Y-123.225
X208.5Y-124.275
X208.5Y-125.35
X208.644Y-139.575
X208.9Y-123.75
X208.9Y-124.8
X209.175Y-143.7
X209.2Y-133.125
X209.475Y-127.9
X209.475Y-132.05
X210.45Y-143.7
X210.625Y-128.725
X210.625Y-129.575
X210.625Y-130.425
X211.031Y-139.575
X211.443Y-133.134
X211.495Y-128.001
X211.725Y-143.7
X212.533Y-138.933
X212.713Y-133.134
X213.375Y-143.9
X213.9Y-146.725
X214.475Y-139.075
X214.7Y-143.175
X214.725Y-128.725
X214.725Y-129.575
X214.725Y-130.425
X215.15Y-140.35
X215.65Y-141.0
X215.65Y-143.275
X216.237Y-147.366
X216.275Y-136.35
X216.275Y-137.3
X216.625Y-143.2
X217.15Y-147.35
X218.0Y-123.0
X218.0Y-124.25
X218.0Y-125.5
X218.0Y-126.75
X218.0Y-128.0
X218.0Y-129.0
X218.0Y-130.25
X218.0Y-131.5
X218.0Y-132.75
X218.0Y-134.0
X220.25Y-123.0
X220.25Y-124.25
X220.25Y-125.5
X220.25Y-126.75
X220.25Y-128.0
X220.25Y-129.0
X220.25Y-130.25
X220.25Y-131.5
X220.25Y-132.75
X220.25Y-134.0
X223.15Y-138.725
T4
X178.4Y-151.942
X179.972Y-117.877
X181.9Y-151.942
X183.472Y-117.877
X185.4Y-151.942
X186.972Y-117.877
X188.9Y-151.942
X190.472Y-117.877
X193.972Y-117.877
X194.8Y-151.942
X197.472Y-117.877
X198.3Y-151.942
X201.8Y-151.942
X203.373Y-117.877
X205.3Y-151.942
X206.873Y-117.877
X208.8Y-151.942
X210.373Y-117.877
X212.3Y-151.942
X213.873Y-117.877
X215.8Y-151.942
X217.373Y-117.877
X219.3Y-151.942
M30
